G04*
G04 #@! TF.GenerationSoftware,Altium Limited,Altium Designer,18.1.7 (191)*
G04*
G04 Layer_Color=2752767*
%FSLAX25Y25*%
%MOIN*%
G70*
G01*
G75*
%ADD42C,0.00200*%
%ADD43C,0.00267*%
D42*
X179500Y260230D02*
Y261830D01*
X181100D01*
Y260230D01*
X179500D01*
X189500Y230230D02*
Y231830D01*
X191100D01*
Y230230D01*
X189500D01*
X169500D02*
Y231830D01*
X171100D01*
Y230230D01*
X169500D01*
X189500Y51253D02*
Y52854D01*
X191100D01*
Y51253D01*
X189500D01*
X169500D02*
Y52854D01*
X171100D01*
Y51253D01*
X169500D01*
X179500Y21254D02*
Y22854D01*
X181100D01*
Y21254D01*
X179500D01*
X125900Y272500D02*
X125100Y274100D01*
X126700D01*
X125900Y272500D01*
X212300Y115000D02*
X211500Y116600D01*
X213100D01*
X212300Y115000D01*
X29800Y72100D02*
X29000Y73700D01*
X30600D01*
X29800Y72100D01*
X11200Y134100D02*
X11600Y134500D01*
X12000D01*
X11600Y134900D01*
X12000Y135300D01*
X11600D01*
X11200Y135700D01*
X10800Y135300D01*
X10400D01*
X10800Y134900D01*
X10400Y134500D01*
X10800D01*
X11200Y134100D01*
X21200D02*
X21600Y134500D01*
X22000D01*
X21600Y134900D01*
X22000Y135300D01*
X21600D01*
X21200Y135700D01*
X20800Y135300D01*
X20400D01*
X20800Y134900D01*
X20400Y134500D01*
X20800D01*
X21200Y134100D01*
X11200Y124100D02*
X11600Y124500D01*
X12000D01*
X11600Y124900D01*
X12000Y125300D01*
X11600D01*
X11200Y125700D01*
X10800Y125300D01*
X10400D01*
X10800Y124900D01*
X10400Y124500D01*
X10800D01*
X11200Y124100D01*
X21200D02*
X21600Y124500D01*
X22000D01*
X21600Y124900D01*
X22000Y125300D01*
X21600D01*
X21200Y125700D01*
X20800Y125300D01*
X20400D01*
X20800Y124900D01*
X20400Y124500D01*
X20800D01*
X21200Y124100D01*
X11200Y114100D02*
X11600Y114500D01*
X12000D01*
X11600Y114900D01*
X12000Y115300D01*
X11600D01*
X11200Y115700D01*
X10800Y115300D01*
X10400D01*
X10800Y114900D01*
X10400Y114500D01*
X10800D01*
X11200Y114100D01*
X21200D02*
X21600Y114500D01*
X22000D01*
X21600Y114900D01*
X22000Y115300D01*
X21600D01*
X21200Y115700D01*
X20800Y115300D01*
X20400D01*
X20800Y114900D01*
X20400Y114500D01*
X20800D01*
X21200Y114100D01*
X11200Y104100D02*
X11600Y104500D01*
X12000D01*
X11600Y104900D01*
X12000Y105300D01*
X11600D01*
X11200Y105700D01*
X10800Y105300D01*
X10400D01*
X10800Y104900D01*
X10400Y104500D01*
X10800D01*
X11200Y104100D01*
X21200D02*
X21600Y104500D01*
X22000D01*
X21600Y104900D01*
X22000Y105300D01*
X21600D01*
X21200Y105700D01*
X20800Y105300D01*
X20400D01*
X20800Y104900D01*
X20400Y104500D01*
X20800D01*
X21200Y104100D01*
X11200Y94100D02*
X11600Y94500D01*
X12000D01*
X11600Y94900D01*
X12000Y95300D01*
X11600D01*
X11200Y95700D01*
X10800Y95300D01*
X10400D01*
X10800Y94900D01*
X10400Y94500D01*
X10800D01*
X11200Y94100D01*
X21200D02*
X21600Y94500D01*
X22000D01*
X21600Y94900D01*
X22000Y95300D01*
X21600D01*
X21200Y95700D01*
X20800Y95300D01*
X20400D01*
X20800Y94900D01*
X20400Y94500D01*
X20800D01*
X21200Y94100D01*
X68800Y259890D02*
Y261490D01*
X70400D01*
Y259890D01*
X68800D01*
X78800Y229890D02*
Y231490D01*
X80400D01*
Y229890D01*
X78800D01*
X58800D02*
Y231490D01*
X60400D01*
Y229890D01*
X58800D01*
X78800Y50913D02*
Y52513D01*
X80400D01*
Y50913D01*
X78800D01*
X58800D02*
Y52513D01*
X60400D01*
Y50913D01*
X58800D01*
X68800Y20913D02*
Y22513D01*
X70400D01*
Y20913D01*
X68800D01*
X124800Y205200D02*
X125200Y206000D01*
X124800Y206800D01*
X125600Y206400D01*
X126400Y206800D01*
X126000Y206000D01*
X126400Y205200D01*
X125600Y205600D01*
X124800Y205200D01*
Y74491D02*
X125200Y75291D01*
X124800Y76091D01*
X125600Y75691D01*
X126400Y76091D01*
X126000Y75291D01*
X126400Y74491D01*
X125600Y74891D01*
X124800Y74491D01*
X125000Y52335D02*
Y51935D01*
X125800D01*
Y52335D01*
X126200D01*
Y53135D01*
X125800D01*
Y53535D01*
X125000D01*
Y53135D01*
X124600D01*
Y52335D01*
X125000D01*
Y229500D02*
Y229100D01*
X125800D01*
Y229500D01*
X126200D01*
Y230300D01*
X125800D01*
Y230700D01*
X125000D01*
Y230300D01*
X124600D01*
Y229500D01*
X125000D01*
X124600Y140643D02*
X125000D01*
X125400Y141043D01*
X125800Y140643D01*
X126200D01*
Y141043D01*
X125800Y141443D01*
X126200Y141843D01*
Y142243D01*
X125800D01*
X125400Y141843D01*
X125000Y142243D01*
X124600D01*
Y141843D01*
X125000Y141443D01*
X124600Y141043D01*
Y140643D01*
X238700Y10400D02*
X239100D01*
X239500Y10800D01*
X239900Y10400D01*
X240300D01*
Y10800D01*
X239900Y11200D01*
X240300Y11600D01*
Y12000D01*
X239900D01*
X239500Y11600D01*
X239100Y12000D01*
X238700D01*
Y11600D01*
X239100Y11200D01*
X238700Y10800D01*
Y10400D01*
X10500D02*
X10900D01*
X11300Y10800D01*
X11700Y10400D01*
X12100D01*
Y10800D01*
X11700Y11200D01*
X12100Y11600D01*
Y12000D01*
X11700D01*
X11300Y11600D01*
X10900Y12000D01*
X10500D01*
Y11600D01*
X10900Y11200D01*
X10500Y10800D01*
Y10400D01*
Y270800D02*
X10900D01*
X11300Y271200D01*
X11700Y270800D01*
X12100D01*
Y271200D01*
X11700Y271600D01*
X12100Y272000D01*
Y272400D01*
X11700D01*
X11300Y272000D01*
X10900Y272400D01*
X10500D01*
Y272000D01*
X10900Y271600D01*
X10500Y271200D01*
Y270800D01*
X238700D02*
X239100D01*
X239500Y271200D01*
X239900Y270800D01*
X240300D01*
Y271200D01*
X239900Y271600D01*
X240300Y272000D01*
Y272400D01*
X239900D01*
X239500Y272000D01*
X239100Y272400D01*
X238700D01*
Y272000D01*
X239100Y271600D01*
X238700Y271200D01*
Y270800D01*
X18200Y229500D02*
Y229100D01*
X19000D01*
Y229500D01*
X19400D01*
Y230300D01*
X19000D01*
Y230700D01*
X18200D01*
Y230300D01*
X17800D01*
Y229500D01*
X18200D01*
X231800D02*
Y229100D01*
X232600D01*
Y229500D01*
X233000D01*
Y230300D01*
X232600D01*
Y230700D01*
X231800D01*
Y230300D01*
X231400D01*
Y229500D01*
X231800D01*
X18200Y52300D02*
Y51900D01*
X19000D01*
Y52300D01*
X19400D01*
Y53100D01*
X19000D01*
Y53500D01*
X18200D01*
Y53100D01*
X17800D01*
Y52300D01*
X18200D01*
X231800D02*
Y51900D01*
X232600D01*
Y52300D01*
X233000D01*
Y53100D01*
X232600D01*
Y53500D01*
X231800D01*
Y53100D01*
X231400D01*
Y52300D01*
X231800D01*
X147500Y135200D02*
X148300Y136000D01*
X149100Y135200D01*
X148300Y134400D01*
X147500Y135200D01*
X108100Y134800D02*
Y136400D01*
X109700D01*
Y134800D01*
X108100D01*
X108500Y135200D02*
Y136000D01*
X109300D01*
Y135200D01*
X108500D01*
X129900Y177061D02*
Y178661D01*
X131500D01*
Y177061D01*
X129900D01*
X130300Y177461D02*
Y178261D01*
X131100D01*
Y177461D01*
X130300D01*
X104000Y140900D02*
Y142500D01*
X105600D01*
Y140900D01*
X104000D01*
X104400Y141300D02*
Y142100D01*
X105200D01*
Y141300D01*
X104400D01*
X118300Y181400D02*
Y183000D01*
X119900D01*
Y181400D01*
X118300D01*
X118700Y181800D02*
Y182600D01*
X119500D01*
Y181800D01*
X118700D01*
D43*
X181100Y275302D02*
G03*
X181100Y275302I-800J0D01*
G01*
Y7782D02*
G03*
X181100Y7782I-800J0D01*
G01*
X70400Y274961D02*
G03*
X70400Y274961I-800J0D01*
G01*
Y7442D02*
G03*
X70400Y7442I-800J0D01*
G01*
M02*
