M48
;Layer_Color=9474304
;FILE_FORMAT=2:5
INCH,LZ
;TYPE=PLATED
T1F00S00C0.03937
T2F00S00C0.07205
T3F00S00C0.08661
T4F00S00C0.12598
%
T01
X02953Y02265
X03053
Y02365
X02953
Y02465
X03053
Y02565
X02953
Y02665
X03053
T02
X0353Y01545
X04655Y0154335
X04755Y0184335
X04555
X0363Y01845
X0343
Y0361665
X0363
X0353Y0391665
X04655Y03915
X04555Y03615
X04755
T03
X05163Y01843
X04095Y0184335
X03027Y01843
Y03615
X04095
X05163
T04
X02954Y01428
X05236
X04095Y0273043
X02954Y04032
X05236
M30
