M48
;Layer_Color=9474304
;FILE_FORMAT=2:5
INCH,LZ
;TYPE=PLATED
T1F00S00C0.01575
T3F00S00C0.03543
T4F00S00C0.03937
T5F00S00C0.04134
T6F00S00C0.04331
T7F00S00C0.07205
T8F00S00C0.10236
T9F00S00C0.12598
%
T01
X01089Y01356
X01048Y01417
X01307Y0177861
X01191Y01822
T03
X01483Y01352
T04
X02123Y01158
X00298Y00729
X01259Y02733
T05
X01256Y0075291
Y0206
T06
X00112Y00949
Y01049
Y01149
Y01249
Y01349
X00212
Y01249
Y01149
Y01049
Y00949
T07
X00696Y0021713
X01803Y0022054
X01903Y0052053
X01703
X00796Y0051713
X00596
Y023069
X00796
X00696Y026069
X01803Y026103
X01703Y023103
X01903
T08
X02322Y00527
X01254Y0052735
X00186Y00527
Y02299
X01254
X02322
T09
X00113Y00112
X02395
X01254Y0141443
X00113Y02716
X02395
M30
