G04*
G04 #@! TF.GenerationSoftware,Altium Limited,Altium Designer,18.1.7 (191)*
G04*
G04 Layer_Color=8388736*
%FSLAX25Y25*%
%MOIN*%
G70*
G01*
G75*
%ADD17R,0.07099X0.03950*%
%ADD18R,0.12611X0.09068*%
%ADD19C,0.11627*%
G04:AMPARAMS|DCode=20|XSize=362.33mil|YSize=68mil|CornerRadius=19mil|HoleSize=0mil|Usage=FLASHONLY|Rotation=180.000|XOffset=0mil|YOffset=0mil|HoleType=Round|Shape=RoundedRectangle|*
%AMROUNDEDRECTD20*
21,1,0.36233,0.03000,0,0,180.0*
21,1,0.32433,0.06800,0,0,180.0*
1,1,0.03800,-0.16217,0.01500*
1,1,0.03800,0.16217,0.01500*
1,1,0.03800,0.16217,-0.01500*
1,1,0.03800,-0.16217,-0.01500*
%
%ADD20ROUNDEDRECTD20*%
%ADD21C,0.07887*%
%ADD22C,0.07296*%
%ADD23R,0.07296X0.07296*%
%ADD24C,0.07001*%
%ADD25C,0.20485*%
%ADD26C,0.24422*%
D17*
X219091Y187703D02*
D03*
Y192624D02*
D03*
Y182782D02*
D03*
Y168018D02*
D03*
Y163097D02*
D03*
Y158176D02*
D03*
Y172939D02*
D03*
Y177861D02*
D03*
X31409Y163097D02*
D03*
Y158176D02*
D03*
Y168018D02*
D03*
Y182782D02*
D03*
Y187703D02*
D03*
Y192624D02*
D03*
Y177861D02*
D03*
Y172939D02*
D03*
D18*
X230509Y202664D02*
D03*
Y148136D02*
D03*
X19991Y148136D02*
D03*
Y202664D02*
D03*
D19*
X180300Y261030D02*
D03*
X190300Y231030D02*
D03*
X170300D02*
D03*
X190300Y52053D02*
D03*
X170300D02*
D03*
X180300Y22054D02*
D03*
X69600Y260690D02*
D03*
X79600Y230690D02*
D03*
X59600D02*
D03*
X79600Y51713D02*
D03*
X59600D02*
D03*
X69600Y21713D02*
D03*
D20*
X180300Y275302D02*
D03*
Y7782D02*
D03*
X69600Y274961D02*
D03*
Y7442D02*
D03*
D21*
X125900Y273300D02*
D03*
X212300Y115800D02*
D03*
X29800Y72900D02*
D03*
D22*
X11200Y134900D02*
D03*
X21200D02*
D03*
X11200Y124900D02*
D03*
X21200D02*
D03*
X11200Y114900D02*
D03*
X21200D02*
D03*
X11200Y104900D02*
D03*
X21200D02*
D03*
X11200Y94900D02*
D03*
D23*
X21200D02*
D03*
D24*
X125600Y206000D02*
D03*
Y75291D02*
D03*
D25*
X125400Y52735D02*
D03*
Y229900D02*
D03*
X18600D02*
D03*
X232200D02*
D03*
X18600Y52700D02*
D03*
X232200D02*
D03*
D26*
X125400Y141443D02*
D03*
X239500Y11200D02*
D03*
X11300D02*
D03*
Y271600D02*
D03*
X239500D02*
D03*
M02*
