G04*
G04 #@! TF.GenerationSoftware,Altium Limited,Altium Designer,18.1.7 (191)*
G04*
G04 Layer_Color=32896*
%FSLAX25Y25*%
%MOIN*%
G70*
G01*
G75*
%ADD10C,0.01000*%
%ADD12C,0.00787*%
%ADD40C,0.03000*%
%ADD41C,0.01181*%
D10*
X221200Y280800D02*
X221500D01*
Y2600D02*
Y280800D01*
X141700Y2600D02*
X221500D01*
X141700D02*
Y280800D01*
X221350D01*
X28900Y280700D02*
X109100D01*
X28900Y2200D02*
Y280700D01*
Y2200D02*
X109100D01*
Y280700D01*
X227000Y23300D02*
X227100D01*
X227000D02*
X227100D01*
X228000Y251600D02*
X228200D01*
X191800Y248998D02*
Y243000D01*
X188801D01*
X187801Y244000D01*
Y244999D01*
X188801Y245999D01*
X191800D01*
X188801D01*
X187801Y246999D01*
Y247998D01*
X188801Y248998D01*
X191800D01*
X185802Y243000D02*
Y246999D01*
X183803Y248998D01*
X181803Y246999D01*
Y243000D01*
Y245999D01*
X185802D01*
X179804Y248998D02*
X175805D01*
X177805D01*
Y243000D01*
X169807D02*
X173806D01*
X169807Y246999D01*
Y247998D01*
X170807Y248998D01*
X172806D01*
X173806Y247998D01*
X135700Y197800D02*
X129702D01*
Y194801D01*
X130702Y193801D01*
X132701D01*
X133701Y194801D01*
Y197800D01*
Y195801D02*
X135700Y193801D01*
X129702Y191802D02*
Y187803D01*
Y189803D01*
X135700D01*
X129702Y185804D02*
X135700D01*
Y182805D01*
X134700Y181805D01*
X130702D01*
X129702Y182805D01*
Y185804D01*
X135700Y179806D02*
Y177806D01*
Y178806D01*
X129702D01*
X130702Y179806D01*
X135700Y106200D02*
X129702D01*
Y103201D01*
X130702Y102201D01*
X132701D01*
X133701Y103201D01*
Y106200D01*
Y104201D02*
X135700Y102201D01*
X129702Y100202D02*
Y96203D01*
Y98203D01*
X135700D01*
X129702Y94204D02*
X135700D01*
Y91205D01*
X134700Y90205D01*
X130702D01*
X129702Y91205D01*
Y94204D01*
X135700Y84207D02*
Y88206D01*
X131701Y84207D01*
X130702D01*
X129702Y85207D01*
Y87206D01*
X130702Y88206D01*
X232002Y217900D02*
X238000D01*
Y214901D01*
X237000Y213901D01*
X236001D01*
X235001Y214901D01*
Y217900D01*
Y214901D01*
X234001Y213901D01*
X233002D01*
X232002Y214901D01*
Y217900D01*
X234001Y210902D02*
Y208903D01*
X235001Y207903D01*
X238000D01*
Y210902D01*
X237000Y211902D01*
X236001Y210902D01*
Y207903D01*
X233002Y204904D02*
X234001D01*
Y205904D01*
Y203905D01*
Y204904D01*
X237000D01*
X238000Y203905D01*
X233002Y199906D02*
X234001D01*
Y200905D01*
Y198906D01*
Y199906D01*
X237000D01*
X238000Y198906D01*
Y192908D02*
Y194907D01*
X237000Y195907D01*
X235001D01*
X234001Y194907D01*
Y192908D01*
X235001Y191908D01*
X236001D01*
Y195907D01*
X234001Y189909D02*
X238000D01*
X236001D01*
X235001Y188909D01*
X234001Y187910D01*
Y186910D01*
Y183911D02*
X237000D01*
X238000Y182911D01*
Y179912D01*
X239000D01*
X239999Y180912D01*
Y181912D01*
X238000Y179912D02*
X234001D01*
X239000Y177913D02*
Y173914D01*
X238000Y167916D02*
Y171915D01*
X234001Y167916D01*
X233002D01*
X232002Y168916D01*
Y170915D01*
X233002Y171915D01*
X11902Y218400D02*
X17900D01*
Y215401D01*
X16900Y214401D01*
X15901D01*
X14901Y215401D01*
Y218400D01*
Y215401D01*
X13901Y214401D01*
X12902D01*
X11902Y215401D01*
Y218400D01*
X13901Y211402D02*
Y209403D01*
X14901Y208403D01*
X17900D01*
Y211402D01*
X16900Y212402D01*
X15901Y211402D01*
Y208403D01*
X12902Y205404D02*
X13901D01*
Y206404D01*
Y204404D01*
Y205404D01*
X16900D01*
X17900Y204404D01*
X12902Y200406D02*
X13901D01*
Y201406D01*
Y199406D01*
Y200406D01*
X16900D01*
X17900Y199406D01*
Y193408D02*
Y195407D01*
X16900Y196407D01*
X14901D01*
X13901Y195407D01*
Y193408D01*
X14901Y192408D01*
X15901D01*
Y196407D01*
X13901Y190409D02*
X17900D01*
X15901D01*
X14901Y189409D01*
X13901Y188410D01*
Y187410D01*
Y184411D02*
X16900D01*
X17900Y183411D01*
Y180412D01*
X18900D01*
X19899Y181412D01*
Y182412D01*
X17900Y180412D02*
X13901D01*
X18900Y178413D02*
Y174414D01*
X17900Y172415D02*
Y170415D01*
Y171415D01*
X11902D01*
X12902Y172415D01*
X98402Y158500D02*
X104400D01*
X101401D01*
Y154501D01*
X98402D01*
X104400D01*
Y149503D02*
Y151502D01*
X103400Y152502D01*
X101401D01*
X100401Y151502D01*
Y149503D01*
X101401Y148503D01*
X102401D01*
Y152502D01*
X100401Y145504D02*
Y143505D01*
X101401Y142505D01*
X104400D01*
Y145504D01*
X103400Y146504D01*
X102401Y145504D01*
Y142505D01*
X99402Y139506D02*
X100401D01*
Y140506D01*
Y138506D01*
Y139506D01*
X103400D01*
X104400Y138506D01*
Y132508D02*
Y134508D01*
X103400Y135507D01*
X101401D01*
X100401Y134508D01*
Y132508D01*
X101401Y131509D01*
X102401D01*
Y135507D01*
X100401Y129509D02*
X104400D01*
X102401D01*
X101401Y128510D01*
X100401Y127510D01*
Y126510D01*
X81000Y249698D02*
Y243700D01*
X78001D01*
X77001Y244700D01*
Y245699D01*
X78001Y246699D01*
X81000D01*
X78001D01*
X77001Y247699D01*
Y248698D01*
X78001Y249698D01*
X81000D01*
X75002Y243700D02*
Y247699D01*
X73003Y249698D01*
X71003Y247699D01*
Y243700D01*
Y246699D01*
X75002D01*
X69004Y249698D02*
X65005D01*
X67005D01*
Y243700D01*
X63006D02*
X61006D01*
X62006D01*
Y249698D01*
X63006Y248698D01*
D12*
X125300Y166344D02*
Y171856D01*
Y110744D02*
Y116256D01*
X116250Y158480D02*
X134950D01*
X116250Y147024D02*
X134950D01*
X116250Y135567D02*
X134950D01*
X116250Y124110D02*
X134950D01*
X125600Y168638D02*
Y201520D01*
Y79772D02*
Y112654D01*
X116250D02*
X134950D01*
X116250D02*
Y168638D01*
X134950D01*
Y112654D02*
Y168638D01*
D40*
X227100Y23300D02*
Y32600D01*
X23000Y250600D02*
Y259900D01*
X228000Y251600D02*
Y260300D01*
X223900Y256100D02*
X232400D01*
X17800Y27800D02*
X26300D01*
X21900Y23300D02*
Y32000D01*
D41*
X183253Y192624D02*
Y190656D01*
Y191640D01*
X177349D01*
X178333Y192624D01*
Y187705D02*
X177349Y186721D01*
Y184753D01*
X178333Y183769D01*
X179317D01*
X180301Y184753D01*
X181285Y183769D01*
X182269D01*
X183253Y184753D01*
Y186721D01*
X182269Y187705D01*
X181285D01*
X180301Y186721D01*
X179317Y187705D01*
X178333D01*
X180301Y186721D02*
Y184753D01*
X177349Y177865D02*
X178333Y179833D01*
X180301Y181801D01*
X182269D01*
X183253Y180817D01*
Y178849D01*
X182269Y177865D01*
X181285D01*
X180301Y178849D01*
Y181801D01*
X177349Y171962D02*
Y175898D01*
X180301D01*
X179317Y173930D01*
Y172946D01*
X180301Y171962D01*
X182269D01*
X183253Y172946D01*
Y174914D01*
X182269Y175898D01*
X178333Y169994D02*
X177349Y169010D01*
Y167042D01*
X178333Y166058D01*
X182269D01*
X183253Y167042D01*
Y169010D01*
X182269Y169994D01*
X178333D01*
X177349Y158187D02*
X183253D01*
Y155235D01*
X182269Y154251D01*
X181285D01*
X180301Y155235D01*
Y158187D01*
Y155235D01*
X179317Y154251D01*
X178333D01*
X177349Y155235D01*
Y158187D01*
X183253Y152283D02*
X179317D01*
X177349Y150315D01*
X179317Y148347D01*
X183253D01*
X180301D01*
Y152283D01*
X177349Y146379D02*
Y142444D01*
Y144412D01*
X183253D01*
X177349Y140476D02*
Y136540D01*
Y138508D01*
X183253D01*
X177349Y130637D02*
Y134572D01*
X183253D01*
Y130637D01*
X180301Y134572D02*
Y132605D01*
X183253Y128669D02*
X177349D01*
Y125717D01*
X178333Y124733D01*
X180301D01*
X181285Y125717D01*
Y128669D01*
Y126701D02*
X183253Y124733D01*
X177349Y122765D02*
X178333D01*
X180301Y120797D01*
X178333Y118829D01*
X177349D01*
X180301Y120797D02*
X183253D01*
X178333Y107022D02*
X177349Y108006D01*
Y109974D01*
X178333Y110958D01*
X182269D01*
X183253Y109974D01*
Y108006D01*
X182269Y107022D01*
X177349Y101119D02*
Y105054D01*
X183253D01*
Y101119D01*
X180301Y105054D02*
Y103086D01*
X177349Y99151D02*
X183253D01*
Y95215D01*
X177349Y93247D02*
X183253D01*
Y89311D01*
X153923Y277861D02*
Y272613D01*
X151300Y275237D02*
X156547D01*
X156383Y7781D02*
X151135D01*
X93517Y274963D02*
X98765D01*
X95977Y4883D02*
Y10130D01*
X98601Y7507D02*
X93353D01*
X66647Y90119D02*
Y92087D01*
Y91103D01*
X72551D01*
X71567Y90119D01*
Y95039D02*
X72551Y96022D01*
Y97990D01*
X71567Y98974D01*
X70583D01*
X69599Y97990D01*
X68615Y98974D01*
X67631D01*
X66647Y97990D01*
Y96022D01*
X67631Y95039D01*
X68615D01*
X69599Y96022D01*
X70583Y95039D01*
X71567D01*
X69599Y96022D02*
Y97990D01*
X72551Y104878D02*
X71567Y102910D01*
X69599Y100942D01*
X67631D01*
X66647Y101926D01*
Y103894D01*
X67631Y104878D01*
X68615D01*
X69599Y103894D01*
Y100942D01*
X72551Y110782D02*
Y106846D01*
X69599D01*
X70583Y108814D01*
Y109798D01*
X69599Y110782D01*
X67631D01*
X66647Y109798D01*
Y107830D01*
X67631Y106846D01*
X71567Y112749D02*
X72551Y113733D01*
Y115701D01*
X71567Y116685D01*
X67631D01*
X66647Y115701D01*
Y113733D01*
X67631Y112749D01*
X71567D01*
X72551Y124557D02*
X66647D01*
Y127508D01*
X67631Y128492D01*
X68615D01*
X69599Y127508D01*
Y124557D01*
Y127508D01*
X70583Y128492D01*
X71567D01*
X72551Y127508D01*
Y124557D01*
X66647Y130460D02*
X70583D01*
X72551Y132428D01*
X70583Y134396D01*
X66647D01*
X69599D01*
Y130460D01*
X72551Y136364D02*
Y140299D01*
Y138332D01*
X66647D01*
X72551Y142267D02*
Y146203D01*
Y144235D01*
X66647D01*
X72551Y152107D02*
Y148171D01*
X66647D01*
Y152107D01*
X69599Y148171D02*
Y150139D01*
X66647Y154075D02*
X72551D01*
Y157026D01*
X71567Y158010D01*
X69599D01*
X68615Y157026D01*
Y154075D01*
Y156042D02*
X66647Y158010D01*
X72551Y159978D02*
X71567D01*
X69599Y161946D01*
X71567Y163914D01*
X72551D01*
X69599Y161946D02*
X66647D01*
X71567Y175721D02*
X72551Y174737D01*
Y172769D01*
X71567Y171785D01*
X67631D01*
X66647Y172769D01*
Y174737D01*
X67631Y175721D01*
X72551Y181625D02*
Y177689D01*
X66647D01*
Y181625D01*
X69599Y177689D02*
Y179657D01*
X72551Y183593D02*
X66647D01*
Y187528D01*
X72551Y189496D02*
X66647D01*
Y193432D01*
M02*
