G04*
G04 #@! TF.GenerationSoftware,Altium Limited,Altium Designer,18.1.7 (191)*
G04*
G04 Layer_Physical_Order=1*
G04 Layer_Color=255*
%FSLAX25Y25*%
%MOIN*%
G70*
G01*
G75*
%ADD10C,0.01000*%
%ADD12C,0.00600*%
%ADD18C,0.03000*%
%ADD19R,0.05906X0.05906*%
%ADD20C,0.05906*%
%ADD21C,0.11811*%
%ADD22C,0.09843*%
%ADD23C,0.13780*%
G36*
X501400Y403200D02*
X501500Y403159D01*
Y354554D01*
X501146Y354200D01*
X411161Y354249D01*
X411087Y354749D01*
X412161Y355075D01*
X413364Y355717D01*
X414418Y356582D01*
X415283Y357636D01*
X415925Y358839D01*
X416321Y360143D01*
X416455Y361500D01*
X416321Y362857D01*
X415925Y364161D01*
X415283Y365364D01*
X414418Y366418D01*
X413364Y367283D01*
X412161Y367925D01*
X410857Y368321D01*
X409500Y368455D01*
X408143Y368321D01*
X406839Y367925D01*
X405636Y367283D01*
X404582Y366418D01*
X403717Y365364D01*
X403075Y364161D01*
X402679Y362857D01*
X402545Y361500D01*
X402679Y360143D01*
X403075Y358839D01*
X403717Y357636D01*
X404582Y356582D01*
X405636Y355717D01*
X406839Y355075D01*
X407907Y354750D01*
X407833Y354250D01*
X322013Y354297D01*
X321821Y354759D01*
X322281Y355219D01*
X322613Y355715D01*
X322729Y356300D01*
X322613Y356885D01*
X322281Y357381D01*
X321785Y357713D01*
X321200Y357829D01*
X320615Y357713D01*
X320119Y357381D01*
X319091Y356354D01*
X318629Y356546D01*
Y357167D01*
X321599Y360136D01*
X343000D01*
X343585Y360252D01*
X344081Y360584D01*
X344413Y361080D01*
X344529Y361665D01*
X344413Y362251D01*
X344081Y362747D01*
X343585Y363078D01*
X343000Y363195D01*
X320965D01*
X320380Y363078D01*
X319884Y362747D01*
X316100Y358963D01*
X315782Y359036D01*
X315600Y359155D01*
Y403200D01*
X501400D01*
D02*
G37*
G36*
X609749Y282798D02*
X609813D01*
X609889Y282792D01*
X609971Y282781D01*
X610065Y282769D01*
X610164Y282757D01*
X610276Y282740D01*
X610504Y282687D01*
X610749Y282623D01*
X610872Y282576D01*
X610995Y282529D01*
X611001Y282523D01*
X611024Y282517D01*
X611059Y282500D01*
X611106Y282482D01*
X611165Y282453D01*
X611229Y282424D01*
X611305Y282389D01*
X611387Y282348D01*
X611562Y282248D01*
X611756Y282137D01*
X611954Y282014D01*
X612148Y281874D01*
Y281535D01*
X612142D01*
X612136Y281546D01*
X612112Y281552D01*
X612089Y281570D01*
X612060Y281587D01*
X612025Y281605D01*
X611978Y281628D01*
X611931Y281657D01*
X611820Y281716D01*
X611685Y281780D01*
X611533Y281856D01*
X611364Y281926D01*
X611176Y282003D01*
X610983Y282073D01*
X610773Y282137D01*
X610556Y282196D01*
X610328Y282248D01*
X610100Y282283D01*
X609866Y282313D01*
X609632Y282318D01*
X609626D01*
X609609D01*
X609585D01*
X609550D01*
X609503Y282313D01*
X609451D01*
X609392Y282307D01*
X609328D01*
X609176Y282289D01*
X609012Y282272D01*
X608836Y282242D01*
X608655Y282202D01*
X608649D01*
X608638Y282196D01*
X608614Y282190D01*
X608591Y282184D01*
X608556Y282178D01*
X608509Y282166D01*
X608415Y282137D01*
X608298Y282102D01*
X608170Y282061D01*
X608035Y282014D01*
X607900Y281956D01*
X607889Y281950D01*
X607877Y281944D01*
X607854Y281932D01*
X607830Y281921D01*
X607795Y281903D01*
X607760Y281886D01*
X607713Y281862D01*
X607660Y281839D01*
X607602Y281809D01*
X607538Y281774D01*
X607468Y281733D01*
X607391Y281693D01*
X607304Y281646D01*
X607210Y281593D01*
X607111Y281535D01*
Y281874D01*
X607117Y281880D01*
X607140Y281897D01*
X607175Y281921D01*
X607222Y281956D01*
X607286Y281997D01*
X607356Y282044D01*
X607432Y282096D01*
X607526Y282149D01*
X607620Y282207D01*
X607725Y282266D01*
X607947Y282389D01*
X608187Y282500D01*
X608310Y282553D01*
X608433Y282599D01*
X608439D01*
X608456Y282611D01*
X608491Y282617D01*
X608532Y282634D01*
X608585Y282646D01*
X608649Y282664D01*
X608719Y282681D01*
X608795Y282705D01*
X608883Y282722D01*
X608977Y282740D01*
X609181Y282775D01*
X609398Y282798D01*
X609632Y282804D01*
X609638D01*
X609661D01*
X609702D01*
X609749Y282798D01*
D02*
G37*
G36*
X611018Y280405D02*
X609269D01*
X609263D01*
X609258D01*
X609223D01*
X609170D01*
X609111Y280400D01*
X608977Y280388D01*
X608912Y280376D01*
X608860Y280359D01*
X608854D01*
X608836Y280347D01*
X608813Y280335D01*
X608784Y280318D01*
X608754Y280294D01*
X608719Y280265D01*
X608684Y280230D01*
X608655Y280189D01*
X608649Y280183D01*
X608643Y280166D01*
X608632Y280142D01*
X608614Y280113D01*
X608602Y280072D01*
X608591Y280019D01*
X608585Y279967D01*
X608579Y279908D01*
Y279861D01*
X608591Y279803D01*
X608602Y279739D01*
X608626Y279663D01*
X608661Y279581D01*
X608713Y279493D01*
X608778Y279417D01*
X608790Y279411D01*
X608813Y279388D01*
X608860Y279358D01*
X608930Y279323D01*
X609018Y279282D01*
X609123Y279253D01*
X609252Y279230D01*
X609404Y279224D01*
X611018D01*
Y278750D01*
X609211D01*
X609205D01*
X609199D01*
X609181D01*
X609158D01*
X609100Y278744D01*
X609035Y278738D01*
X608953Y278721D01*
X608877Y278703D01*
X608801Y278674D01*
X608737Y278633D01*
X608731Y278627D01*
X608713Y278610D01*
X608684Y278586D01*
X608655Y278545D01*
X608632Y278493D01*
X608602Y278428D01*
X608585Y278352D01*
X608579Y278259D01*
Y278223D01*
X608585Y278188D01*
X608591Y278136D01*
X608602Y278083D01*
X608626Y278019D01*
X608649Y277954D01*
X608684Y277890D01*
X608690Y277884D01*
X608702Y277861D01*
X608731Y277832D01*
X608760Y277796D01*
X608807Y277755D01*
X608860Y277714D01*
X608924Y277679D01*
X608994Y277644D01*
X609006Y277639D01*
X609029Y277633D01*
X609076Y277621D01*
X609141Y277609D01*
X609223Y277592D01*
X609322Y277580D01*
X609439Y277574D01*
X609574Y277568D01*
X611018D01*
Y277094D01*
X608234D01*
Y277516D01*
X608626D01*
X608614Y277521D01*
X608591Y277539D01*
X608556Y277568D01*
X608509Y277609D01*
X608456Y277656D01*
X608403Y277714D01*
X608345Y277785D01*
X608298Y277861D01*
X608292Y277872D01*
X608281Y277902D01*
X608257Y277948D01*
X608234Y278007D01*
X608210Y278083D01*
X608187Y278165D01*
X608175Y278264D01*
X608170Y278364D01*
Y278416D01*
X608175Y278475D01*
X608187Y278545D01*
X608199Y278621D01*
X608222Y278709D01*
X608257Y278791D01*
X608298Y278867D01*
X608304Y278879D01*
X608322Y278902D01*
X608351Y278937D01*
X608392Y278978D01*
X608444Y279025D01*
X608503Y279072D01*
X608579Y279113D01*
X608661Y279148D01*
X608655Y279154D01*
X608638Y279165D01*
X608614Y279183D01*
X608585Y279206D01*
X608544Y279241D01*
X608503Y279282D01*
X608462Y279329D01*
X608415Y279382D01*
X608368Y279440D01*
X608327Y279505D01*
X608246Y279657D01*
X608216Y279739D01*
X608193Y279826D01*
X608175Y279914D01*
X608170Y280014D01*
Y280054D01*
X608175Y280084D01*
Y280119D01*
X608181Y280160D01*
X608199Y280248D01*
X608228Y280353D01*
X608269Y280458D01*
X608327Y280558D01*
X608403Y280651D01*
X608415Y280663D01*
X608444Y280686D01*
X608503Y280721D01*
X608579Y280768D01*
X608678Y280809D01*
X608795Y280844D01*
X608942Y280868D01*
X609024Y280879D01*
X609111D01*
X611018D01*
Y280405D01*
D02*
G37*
G36*
Y275936D02*
X609269D01*
X609263D01*
X609258D01*
X609223D01*
X609170D01*
X609111Y275930D01*
X608977Y275919D01*
X608912Y275907D01*
X608860Y275889D01*
X608854D01*
X608836Y275878D01*
X608813Y275866D01*
X608784Y275848D01*
X608754Y275825D01*
X608719Y275796D01*
X608684Y275761D01*
X608655Y275720D01*
X608649Y275714D01*
X608643Y275696D01*
X608632Y275673D01*
X608614Y275644D01*
X608602Y275603D01*
X608591Y275550D01*
X608585Y275497D01*
X608579Y275439D01*
Y275392D01*
X608591Y275334D01*
X608602Y275269D01*
X608626Y275193D01*
X608661Y275111D01*
X608713Y275024D01*
X608778Y274948D01*
X608790Y274942D01*
X608813Y274918D01*
X608860Y274889D01*
X608930Y274854D01*
X609018Y274813D01*
X609123Y274784D01*
X609252Y274760D01*
X609404Y274754D01*
X611018D01*
Y274281D01*
X609211D01*
X609205D01*
X609199D01*
X609181D01*
X609158D01*
X609100Y274275D01*
X609035Y274269D01*
X608953Y274251D01*
X608877Y274234D01*
X608801Y274204D01*
X608737Y274164D01*
X608731Y274158D01*
X608713Y274140D01*
X608684Y274117D01*
X608655Y274076D01*
X608632Y274023D01*
X608602Y273959D01*
X608585Y273883D01*
X608579Y273789D01*
Y273754D01*
X608585Y273719D01*
X608591Y273666D01*
X608602Y273614D01*
X608626Y273549D01*
X608649Y273485D01*
X608684Y273421D01*
X608690Y273415D01*
X608702Y273391D01*
X608731Y273362D01*
X608760Y273327D01*
X608807Y273286D01*
X608860Y273245D01*
X608924Y273210D01*
X608994Y273175D01*
X609006Y273169D01*
X609029Y273163D01*
X609076Y273151D01*
X609141Y273140D01*
X609223Y273122D01*
X609322Y273111D01*
X609439Y273105D01*
X609574Y273099D01*
X611018D01*
Y272625D01*
X608234D01*
Y273046D01*
X608626D01*
X608614Y273052D01*
X608591Y273070D01*
X608556Y273099D01*
X608509Y273140D01*
X608456Y273187D01*
X608403Y273245D01*
X608345Y273315D01*
X608298Y273391D01*
X608292Y273403D01*
X608281Y273432D01*
X608257Y273479D01*
X608234Y273538D01*
X608210Y273614D01*
X608187Y273696D01*
X608175Y273795D01*
X608170Y273895D01*
Y273947D01*
X608175Y274006D01*
X608187Y274076D01*
X608199Y274152D01*
X608222Y274240D01*
X608257Y274322D01*
X608298Y274398D01*
X608304Y274409D01*
X608322Y274433D01*
X608351Y274468D01*
X608392Y274509D01*
X608444Y274555D01*
X608503Y274602D01*
X608579Y274643D01*
X608661Y274678D01*
X608655Y274684D01*
X608638Y274696D01*
X608614Y274713D01*
X608585Y274737D01*
X608544Y274772D01*
X608503Y274813D01*
X608462Y274860D01*
X608415Y274912D01*
X608368Y274971D01*
X608327Y275035D01*
X608246Y275187D01*
X608216Y275269D01*
X608193Y275357D01*
X608175Y275445D01*
X608170Y275544D01*
Y275585D01*
X608175Y275614D01*
Y275649D01*
X608181Y275690D01*
X608199Y275778D01*
X608228Y275884D01*
X608269Y275989D01*
X608327Y276088D01*
X608403Y276182D01*
X608415Y276193D01*
X608444Y276217D01*
X608503Y276252D01*
X608579Y276299D01*
X608678Y276340D01*
X608795Y276375D01*
X608942Y276398D01*
X609024Y276410D01*
X609111D01*
X611018D01*
Y275936D01*
D02*
G37*
G36*
X612148Y271747D02*
X612142Y271742D01*
X612124Y271730D01*
X612095Y271712D01*
X612060Y271683D01*
X612013Y271648D01*
X611954Y271607D01*
X611890Y271566D01*
X611814Y271519D01*
X611738Y271467D01*
X611650Y271414D01*
X611551Y271361D01*
X611451Y271303D01*
X611235Y271192D01*
X610995Y271087D01*
X610989D01*
X610966Y271075D01*
X610931Y271063D01*
X610878Y271045D01*
X610819Y271022D01*
X610749Y270999D01*
X610667Y270975D01*
X610574Y270952D01*
X610480Y270929D01*
X610369Y270905D01*
X610258Y270882D01*
X610141Y270858D01*
X609889Y270829D01*
X609761Y270823D01*
X609632Y270817D01*
X609626D01*
X609603D01*
X609568D01*
X609527Y270823D01*
X609468D01*
X609404Y270829D01*
X609328Y270835D01*
X609246Y270841D01*
X609158Y270852D01*
X609064Y270864D01*
X608860Y270899D01*
X608649Y270952D01*
X608433Y271016D01*
X608427Y271022D01*
X608403Y271028D01*
X608368Y271040D01*
X608322Y271063D01*
X608257Y271087D01*
X608187Y271116D01*
X608111Y271151D01*
X608017Y271198D01*
X607924Y271244D01*
X607819Y271297D01*
X607707Y271356D01*
X607596Y271426D01*
X607479Y271496D01*
X607356Y271572D01*
X607233Y271660D01*
X607111Y271747D01*
Y272087D01*
X607117Y272081D01*
X607134Y272075D01*
X607163Y272058D01*
X607198Y272034D01*
X607245Y272011D01*
X607298Y271982D01*
X607415Y271911D01*
X607544Y271841D01*
X607672Y271771D01*
X607795Y271712D01*
X607848Y271689D01*
X607895Y271666D01*
X607900D01*
X607912Y271660D01*
X607930Y271648D01*
X607959Y271636D01*
X607988Y271625D01*
X608029Y271607D01*
X608123Y271572D01*
X608234Y271531D01*
X608362Y271490D01*
X608503Y271449D01*
X608649Y271414D01*
X608655D01*
X608673Y271408D01*
X608696Y271402D01*
X608731Y271396D01*
X608778Y271391D01*
X608830Y271379D01*
X608889Y271367D01*
X608953Y271361D01*
X609100Y271338D01*
X609269Y271321D01*
X609445Y271309D01*
X609632Y271303D01*
X609638D01*
X609644D01*
X609661D01*
X609691D01*
X609720Y271309D01*
X609755D01*
X609802D01*
X609848Y271315D01*
X609960Y271326D01*
X610094Y271344D01*
X610246Y271367D01*
X610416Y271402D01*
X610603Y271443D01*
X610796Y271496D01*
X611007Y271560D01*
X611223Y271636D01*
X611446Y271724D01*
X611680Y271829D01*
X611913Y271946D01*
X612148Y272087D01*
Y271747D01*
D02*
G37*
G36*
X610001Y268758D02*
X610042Y268752D01*
X610094Y268746D01*
X610211Y268723D01*
X610340Y268676D01*
X610410Y268653D01*
X610480Y268618D01*
X610550Y268577D01*
X610621Y268530D01*
X610685Y268477D01*
X610749Y268413D01*
X610755Y268407D01*
X610761Y268395D01*
X610779Y268378D01*
X610802Y268349D01*
X610825Y268314D01*
X610855Y268273D01*
X610884Y268226D01*
X610913Y268167D01*
X610948Y268103D01*
X610978Y268033D01*
X611007Y267957D01*
X611030Y267875D01*
X611054Y267793D01*
X611071Y267699D01*
X611077Y267600D01*
X611083Y267495D01*
Y267442D01*
X611077Y267401D01*
X611071Y267354D01*
X611065Y267296D01*
X611054Y267237D01*
X611042Y267167D01*
X611001Y267021D01*
X610972Y266945D01*
X610942Y266869D01*
X610901Y266793D01*
X610860Y266717D01*
X610808Y266646D01*
X610749Y266576D01*
X610744Y266570D01*
X610732Y266559D01*
X610714Y266547D01*
X610691Y266524D01*
X610656Y266494D01*
X610615Y266465D01*
X610568Y266436D01*
X610515Y266406D01*
X610457Y266371D01*
X610393Y266342D01*
X610252Y266284D01*
X610170Y266260D01*
X610088Y266248D01*
X610001Y266237D01*
X609907Y266231D01*
X609901D01*
X609889D01*
X609872D01*
X609843Y266237D01*
X609813D01*
X609772Y266243D01*
X609691Y266254D01*
X609591Y266278D01*
X609486Y266313D01*
X609380Y266354D01*
X609281Y266418D01*
X609275D01*
X609269Y266430D01*
X609240Y266453D01*
X609193Y266500D01*
X609141Y266559D01*
X609082Y266635D01*
X609024Y266728D01*
X608971Y266839D01*
X608930Y266962D01*
Y266956D01*
X608924Y266950D01*
X608912Y266915D01*
X608883Y266863D01*
X608854Y266798D01*
X608807Y266722D01*
X608754Y266652D01*
X608696Y266582D01*
X608626Y266524D01*
X608614Y266518D01*
X608591Y266500D01*
X608550Y266477D01*
X608491Y266453D01*
X608421Y266430D01*
X608339Y266406D01*
X608251Y266389D01*
X608152Y266383D01*
X608146D01*
X608134D01*
X608111D01*
X608082Y266389D01*
X608047Y266395D01*
X608006Y266401D01*
X607906Y266418D01*
X607795Y266453D01*
X607678Y266512D01*
X607614Y266541D01*
X607555Y266582D01*
X607497Y266629D01*
X607444Y266681D01*
X607438Y266687D01*
X607432Y266693D01*
X607415Y266711D01*
X607397Y266734D01*
X607380Y266769D01*
X607350Y266804D01*
X607327Y266845D01*
X607298Y266898D01*
X607245Y267009D01*
X607204Y267149D01*
X607169Y267307D01*
X607163Y267389D01*
X607157Y267483D01*
Y267530D01*
X607163Y267565D01*
Y267612D01*
X607175Y267658D01*
X607193Y267775D01*
X607228Y267904D01*
X607280Y268039D01*
X607315Y268109D01*
X607350Y268173D01*
X607397Y268237D01*
X607450Y268296D01*
X607456Y268302D01*
X607462Y268308D01*
X607479Y268325D01*
X607503Y268343D01*
X607532Y268366D01*
X607567Y268395D01*
X607649Y268454D01*
X607754Y268507D01*
X607877Y268559D01*
X608011Y268594D01*
X608088Y268600D01*
X608164Y268606D01*
X608175D01*
X608210D01*
X608257Y268600D01*
X608322Y268588D01*
X608398Y268571D01*
X608474Y268548D01*
X608556Y268513D01*
X608632Y268466D01*
X608638Y268460D01*
X608661Y268442D01*
X608696Y268407D01*
X608743Y268360D01*
X608790Y268302D01*
X608836Y268226D01*
X608889Y268138D01*
X608930Y268039D01*
Y268044D01*
X608936Y268056D01*
X608942Y268074D01*
X608953Y268097D01*
X608983Y268162D01*
X609018Y268237D01*
X609070Y268325D01*
X609135Y268413D01*
X609217Y268501D01*
X609304Y268577D01*
X609316Y268583D01*
X609351Y268606D01*
X609404Y268635D01*
X609480Y268670D01*
X609568Y268706D01*
X609673Y268735D01*
X609790Y268758D01*
X609919Y268764D01*
X609925D01*
X609942D01*
X609965D01*
X610001Y268758D01*
D02*
G37*
G36*
X607596Y265763D02*
X607608Y265751D01*
X607631Y265734D01*
X607660Y265704D01*
X607701Y265675D01*
X607748Y265634D01*
X607807Y265587D01*
X607865Y265541D01*
X607935Y265488D01*
X608017Y265429D01*
X608099Y265365D01*
X608193Y265307D01*
X608292Y265242D01*
X608398Y265172D01*
X608515Y265108D01*
X608632Y265038D01*
X608638Y265032D01*
X608661Y265020D01*
X608696Y265002D01*
X608743Y264979D01*
X608801Y264950D01*
X608872Y264915D01*
X608953Y264874D01*
X609041Y264833D01*
X609135Y264792D01*
X609240Y264745D01*
X609351Y264698D01*
X609468Y264651D01*
X609708Y264564D01*
X609965Y264482D01*
X609971D01*
X609989Y264476D01*
X610012Y264470D01*
X610047Y264458D01*
X610094Y264447D01*
X610147Y264435D01*
X610211Y264423D01*
X610276Y264406D01*
X610352Y264394D01*
X610433Y264376D01*
X610609Y264347D01*
X610808Y264324D01*
X611018Y264306D01*
Y263821D01*
X611013D01*
X610995D01*
X610972D01*
X610936Y263827D01*
X610896D01*
X610843Y263832D01*
X610779Y263838D01*
X610714Y263844D01*
X610638Y263856D01*
X610550Y263868D01*
X610463Y263879D01*
X610369Y263897D01*
X610264Y263914D01*
X610158Y263938D01*
X609925Y263996D01*
X609919D01*
X609895Y264002D01*
X609860Y264014D01*
X609813Y264025D01*
X609755Y264043D01*
X609691Y264067D01*
X609614Y264090D01*
X609527Y264119D01*
X609439Y264154D01*
X609340Y264189D01*
X609129Y264271D01*
X608907Y264371D01*
X608684Y264482D01*
X608678Y264488D01*
X608655Y264499D01*
X608626Y264517D01*
X608585Y264540D01*
X608532Y264570D01*
X608474Y264605D01*
X608409Y264646D01*
X608333Y264687D01*
X608175Y264792D01*
X608006Y264909D01*
X607836Y265032D01*
X607672Y265166D01*
Y263283D01*
X607222D01*
Y265769D01*
X607590D01*
X607596Y265763D01*
D02*
G37*
G36*
X651249Y206038D02*
X651313D01*
X651389Y206032D01*
X651471Y206021D01*
X651565Y206009D01*
X651664Y205997D01*
X651776Y205980D01*
X652004Y205927D01*
X652249Y205863D01*
X652372Y205816D01*
X652495Y205769D01*
X652501Y205763D01*
X652524Y205757D01*
X652559Y205740D01*
X652606Y205722D01*
X652665Y205693D01*
X652729Y205664D01*
X652805Y205629D01*
X652887Y205588D01*
X653062Y205488D01*
X653256Y205377D01*
X653454Y205254D01*
X653648Y205114D01*
Y204775D01*
X653642D01*
X653636Y204786D01*
X653612Y204792D01*
X653589Y204810D01*
X653560Y204827D01*
X653525Y204845D01*
X653478Y204868D01*
X653431Y204897D01*
X653320Y204956D01*
X653185Y205020D01*
X653033Y205096D01*
X652864Y205167D01*
X652676Y205243D01*
X652483Y205313D01*
X652273Y205377D01*
X652056Y205436D01*
X651828Y205488D01*
X651600Y205523D01*
X651366Y205553D01*
X651132Y205558D01*
X651126D01*
X651109D01*
X651085D01*
X651050D01*
X651003Y205553D01*
X650951D01*
X650892Y205547D01*
X650828D01*
X650676Y205529D01*
X650512Y205512D01*
X650336Y205483D01*
X650155Y205441D01*
X650149D01*
X650138Y205436D01*
X650114Y205430D01*
X650091Y205424D01*
X650056Y205418D01*
X650009Y205406D01*
X649915Y205377D01*
X649798Y205342D01*
X649670Y205301D01*
X649535Y205254D01*
X649400Y205196D01*
X649389Y205190D01*
X649377Y205184D01*
X649354Y205172D01*
X649330Y205161D01*
X649295Y205143D01*
X649260Y205126D01*
X649213Y205102D01*
X649160Y205079D01*
X649102Y205050D01*
X649038Y205014D01*
X648968Y204974D01*
X648891Y204933D01*
X648804Y204886D01*
X648710Y204833D01*
X648611Y204775D01*
Y205114D01*
X648617Y205120D01*
X648640Y205137D01*
X648675Y205161D01*
X648722Y205196D01*
X648786Y205237D01*
X648856Y205284D01*
X648932Y205336D01*
X649026Y205389D01*
X649120Y205447D01*
X649225Y205506D01*
X649447Y205629D01*
X649687Y205740D01*
X649810Y205792D01*
X649933Y205839D01*
X649939D01*
X649956Y205851D01*
X649991Y205857D01*
X650032Y205874D01*
X650085Y205886D01*
X650149Y205904D01*
X650219Y205921D01*
X650295Y205945D01*
X650383Y205962D01*
X650477Y205980D01*
X650681Y206015D01*
X650898Y206038D01*
X651132Y206044D01*
X651138D01*
X651161D01*
X651202D01*
X651249Y206038D01*
D02*
G37*
G36*
X652518Y203646D02*
X650769D01*
X650763D01*
X650758D01*
X650723D01*
X650670D01*
X650611Y203640D01*
X650477Y203628D01*
X650412Y203616D01*
X650360Y203599D01*
X650354D01*
X650336Y203587D01*
X650313Y203575D01*
X650284Y203558D01*
X650254Y203534D01*
X650219Y203505D01*
X650184Y203470D01*
X650155Y203429D01*
X650149Y203423D01*
X650143Y203406D01*
X650132Y203382D01*
X650114Y203353D01*
X650102Y203312D01*
X650091Y203259D01*
X650085Y203207D01*
X650079Y203148D01*
Y203101D01*
X650091Y203043D01*
X650102Y202979D01*
X650126Y202903D01*
X650161Y202821D01*
X650213Y202733D01*
X650278Y202657D01*
X650290Y202651D01*
X650313Y202628D01*
X650360Y202598D01*
X650430Y202563D01*
X650518Y202522D01*
X650623Y202493D01*
X650752Y202470D01*
X650904Y202464D01*
X652518D01*
Y201990D01*
X650711D01*
X650705D01*
X650699D01*
X650681D01*
X650658D01*
X650600Y201984D01*
X650535Y201978D01*
X650453Y201961D01*
X650377Y201943D01*
X650301Y201914D01*
X650237Y201873D01*
X650231Y201867D01*
X650213Y201850D01*
X650184Y201826D01*
X650155Y201785D01*
X650132Y201733D01*
X650102Y201668D01*
X650085Y201592D01*
X650079Y201499D01*
Y201464D01*
X650085Y201428D01*
X650091Y201376D01*
X650102Y201323D01*
X650126Y201259D01*
X650149Y201194D01*
X650184Y201130D01*
X650190Y201124D01*
X650202Y201101D01*
X650231Y201072D01*
X650260Y201037D01*
X650307Y200995D01*
X650360Y200955D01*
X650424Y200920D01*
X650494Y200884D01*
X650506Y200879D01*
X650529Y200873D01*
X650576Y200861D01*
X650641Y200849D01*
X650723Y200832D01*
X650822Y200820D01*
X650939Y200814D01*
X651074Y200808D01*
X652518D01*
Y200335D01*
X649734D01*
Y200756D01*
X650126D01*
X650114Y200762D01*
X650091Y200779D01*
X650056Y200808D01*
X650009Y200849D01*
X649956Y200896D01*
X649903Y200955D01*
X649845Y201025D01*
X649798Y201101D01*
X649792Y201113D01*
X649781Y201142D01*
X649757Y201189D01*
X649734Y201247D01*
X649710Y201323D01*
X649687Y201405D01*
X649675Y201504D01*
X649670Y201604D01*
Y201657D01*
X649675Y201715D01*
X649687Y201785D01*
X649699Y201861D01*
X649722Y201949D01*
X649757Y202031D01*
X649798Y202107D01*
X649804Y202119D01*
X649822Y202142D01*
X649851Y202177D01*
X649892Y202218D01*
X649944Y202265D01*
X650003Y202312D01*
X650079Y202353D01*
X650161Y202388D01*
X650155Y202394D01*
X650138Y202405D01*
X650114Y202423D01*
X650085Y202446D01*
X650044Y202481D01*
X650003Y202522D01*
X649962Y202569D01*
X649915Y202622D01*
X649868Y202680D01*
X649827Y202745D01*
X649746Y202897D01*
X649716Y202979D01*
X649693Y203066D01*
X649675Y203154D01*
X649670Y203254D01*
Y203295D01*
X649675Y203324D01*
Y203359D01*
X649681Y203400D01*
X649699Y203488D01*
X649728Y203593D01*
X649769Y203698D01*
X649827Y203798D01*
X649903Y203891D01*
X649915Y203903D01*
X649944Y203926D01*
X650003Y203961D01*
X650079Y204008D01*
X650178Y204049D01*
X650295Y204084D01*
X650442Y204108D01*
X650524Y204119D01*
X650611D01*
X652518D01*
Y203646D01*
D02*
G37*
G36*
Y199176D02*
X650769D01*
X650763D01*
X650758D01*
X650723D01*
X650670D01*
X650611Y199170D01*
X650477Y199159D01*
X650412Y199147D01*
X650360Y199129D01*
X650354D01*
X650336Y199118D01*
X650313Y199106D01*
X650284Y199088D01*
X650254Y199065D01*
X650219Y199036D01*
X650184Y199001D01*
X650155Y198960D01*
X650149Y198954D01*
X650143Y198936D01*
X650132Y198913D01*
X650114Y198884D01*
X650102Y198843D01*
X650091Y198790D01*
X650085Y198737D01*
X650079Y198679D01*
Y198632D01*
X650091Y198574D01*
X650102Y198509D01*
X650126Y198433D01*
X650161Y198351D01*
X650213Y198264D01*
X650278Y198187D01*
X650290Y198182D01*
X650313Y198158D01*
X650360Y198129D01*
X650430Y198094D01*
X650518Y198053D01*
X650623Y198024D01*
X650752Y198000D01*
X650904Y197994D01*
X652518D01*
Y197521D01*
X650711D01*
X650705D01*
X650699D01*
X650681D01*
X650658D01*
X650600Y197515D01*
X650535Y197509D01*
X650453Y197491D01*
X650377Y197474D01*
X650301Y197445D01*
X650237Y197404D01*
X650231Y197398D01*
X650213Y197380D01*
X650184Y197357D01*
X650155Y197316D01*
X650132Y197263D01*
X650102Y197199D01*
X650085Y197123D01*
X650079Y197029D01*
Y196994D01*
X650085Y196959D01*
X650091Y196906D01*
X650102Y196854D01*
X650126Y196789D01*
X650149Y196725D01*
X650184Y196661D01*
X650190Y196655D01*
X650202Y196631D01*
X650231Y196602D01*
X650260Y196567D01*
X650307Y196526D01*
X650360Y196485D01*
X650424Y196450D01*
X650494Y196415D01*
X650506Y196409D01*
X650529Y196403D01*
X650576Y196392D01*
X650641Y196380D01*
X650723Y196362D01*
X650822Y196351D01*
X650939Y196345D01*
X651074Y196339D01*
X652518D01*
Y195865D01*
X649734D01*
Y196286D01*
X650126D01*
X650114Y196292D01*
X650091Y196310D01*
X650056Y196339D01*
X650009Y196380D01*
X649956Y196427D01*
X649903Y196485D01*
X649845Y196555D01*
X649798Y196631D01*
X649792Y196643D01*
X649781Y196672D01*
X649757Y196719D01*
X649734Y196778D01*
X649710Y196854D01*
X649687Y196936D01*
X649675Y197035D01*
X649670Y197134D01*
Y197187D01*
X649675Y197246D01*
X649687Y197316D01*
X649699Y197392D01*
X649722Y197480D01*
X649757Y197562D01*
X649798Y197638D01*
X649804Y197649D01*
X649822Y197673D01*
X649851Y197708D01*
X649892Y197749D01*
X649944Y197796D01*
X650003Y197842D01*
X650079Y197883D01*
X650161Y197918D01*
X650155Y197924D01*
X650138Y197936D01*
X650114Y197953D01*
X650085Y197977D01*
X650044Y198012D01*
X650003Y198053D01*
X649962Y198100D01*
X649915Y198152D01*
X649868Y198211D01*
X649827Y198275D01*
X649746Y198427D01*
X649716Y198509D01*
X649693Y198597D01*
X649675Y198685D01*
X649670Y198784D01*
Y198825D01*
X649675Y198854D01*
Y198890D01*
X649681Y198931D01*
X649699Y199018D01*
X649728Y199124D01*
X649769Y199229D01*
X649827Y199328D01*
X649903Y199422D01*
X649915Y199434D01*
X649944Y199457D01*
X650003Y199492D01*
X650079Y199539D01*
X650178Y199580D01*
X650295Y199615D01*
X650442Y199638D01*
X650524Y199650D01*
X650611D01*
X652518D01*
Y199176D01*
D02*
G37*
G36*
X653648Y194988D02*
X653642Y194982D01*
X653624Y194970D01*
X653595Y194952D01*
X653560Y194923D01*
X653513Y194888D01*
X653454Y194847D01*
X653390Y194806D01*
X653314Y194759D01*
X653238Y194707D01*
X653150Y194654D01*
X653051Y194602D01*
X652951Y194543D01*
X652735Y194432D01*
X652495Y194326D01*
X652489D01*
X652466Y194315D01*
X652431Y194303D01*
X652378Y194286D01*
X652319Y194262D01*
X652249Y194239D01*
X652167Y194215D01*
X652074Y194192D01*
X651980Y194169D01*
X651869Y194145D01*
X651758Y194122D01*
X651641Y194098D01*
X651389Y194069D01*
X651261Y194063D01*
X651132Y194057D01*
X651126D01*
X651103D01*
X651068D01*
X651027Y194063D01*
X650968D01*
X650904Y194069D01*
X650828Y194075D01*
X650746Y194081D01*
X650658Y194093D01*
X650564Y194104D01*
X650360Y194139D01*
X650149Y194192D01*
X649933Y194256D01*
X649927Y194262D01*
X649903Y194268D01*
X649868Y194280D01*
X649822Y194303D01*
X649757Y194326D01*
X649687Y194356D01*
X649611Y194391D01*
X649517Y194438D01*
X649424Y194484D01*
X649319Y194537D01*
X649207Y194596D01*
X649096Y194666D01*
X648979Y194736D01*
X648856Y194812D01*
X648734Y194900D01*
X648611Y194988D01*
Y195327D01*
X648617Y195321D01*
X648634Y195315D01*
X648663Y195298D01*
X648698Y195274D01*
X648745Y195251D01*
X648798Y195222D01*
X648915Y195151D01*
X649044Y195081D01*
X649172Y195011D01*
X649295Y194952D01*
X649348Y194929D01*
X649395Y194906D01*
X649400D01*
X649412Y194900D01*
X649430Y194888D01*
X649459Y194876D01*
X649488Y194865D01*
X649529Y194847D01*
X649623Y194812D01*
X649734Y194771D01*
X649862Y194730D01*
X650003Y194689D01*
X650149Y194654D01*
X650155D01*
X650173Y194648D01*
X650196Y194642D01*
X650231Y194637D01*
X650278Y194631D01*
X650330Y194619D01*
X650389Y194607D01*
X650453Y194602D01*
X650600Y194578D01*
X650769Y194561D01*
X650945Y194549D01*
X651132Y194543D01*
X651138D01*
X651144D01*
X651161D01*
X651191D01*
X651220Y194549D01*
X651255D01*
X651302D01*
X651348Y194555D01*
X651460Y194566D01*
X651594Y194584D01*
X651746Y194607D01*
X651916Y194642D01*
X652103Y194683D01*
X652296Y194736D01*
X652507Y194800D01*
X652723Y194876D01*
X652946Y194964D01*
X653180Y195070D01*
X653413Y195186D01*
X653648Y195327D01*
Y194988D01*
D02*
G37*
G36*
X650699Y191998D02*
X650775D01*
X650851Y191992D01*
X650939Y191987D01*
X651126Y191963D01*
X651325Y191934D01*
X651518Y191893D01*
X651606Y191869D01*
X651694Y191840D01*
X651699D01*
X651711Y191834D01*
X651734Y191823D01*
X651764Y191811D01*
X651805Y191794D01*
X651846Y191776D01*
X651939Y191723D01*
X652050Y191653D01*
X652162Y191571D01*
X652267Y191478D01*
X652360Y191366D01*
Y191361D01*
X652372Y191355D01*
X652378Y191337D01*
X652396Y191308D01*
X652413Y191279D01*
X652431Y191244D01*
X652472Y191156D01*
X652513Y191045D01*
X652548Y190922D01*
X652571Y190776D01*
X652583Y190623D01*
Y190583D01*
X652577Y190547D01*
Y190512D01*
X652571Y190465D01*
X652554Y190360D01*
X652524Y190243D01*
X652478Y190120D01*
X652419Y190003D01*
X652337Y189886D01*
X652331Y189881D01*
X652325Y189875D01*
X652290Y189840D01*
X652232Y189793D01*
X652156Y189734D01*
X652056Y189676D01*
X651933Y189623D01*
X651793Y189576D01*
X651629Y189547D01*
X651594Y189997D01*
X651600D01*
X651606D01*
X651623Y190003D01*
X651647Y190009D01*
X651705Y190021D01*
X651770Y190044D01*
X651846Y190074D01*
X651922Y190109D01*
X651998Y190155D01*
X652056Y190214D01*
X652062Y190220D01*
X652080Y190243D01*
X652103Y190278D01*
X652127Y190331D01*
X652150Y190390D01*
X652173Y190460D01*
X652191Y190542D01*
X652197Y190635D01*
Y190670D01*
X652191Y190711D01*
X652185Y190764D01*
X652173Y190822D01*
X652156Y190887D01*
X652132Y190951D01*
X652097Y191015D01*
X652091Y191021D01*
X652080Y191045D01*
X652056Y191074D01*
X652027Y191109D01*
X651992Y191156D01*
X651945Y191197D01*
X651893Y191244D01*
X651834Y191285D01*
X651828Y191290D01*
X651805Y191302D01*
X651764Y191320D01*
X651711Y191349D01*
X651647Y191372D01*
X651571Y191402D01*
X651483Y191431D01*
X651383Y191460D01*
X651378D01*
X651372Y191466D01*
X651354D01*
X651337Y191472D01*
X651278Y191483D01*
X651202Y191495D01*
X651114Y191507D01*
X651021Y191518D01*
X650915Y191530D01*
X650804D01*
X650799D01*
X650781D01*
X650752D01*
X650711D01*
X650723Y191524D01*
X650746Y191501D01*
X650793Y191472D01*
X650840Y191425D01*
X650898Y191372D01*
X650962Y191302D01*
X651021Y191226D01*
X651079Y191138D01*
X651085Y191127D01*
X651103Y191097D01*
X651120Y191045D01*
X651144Y190980D01*
X651173Y190904D01*
X651191Y190816D01*
X651208Y190717D01*
X651214Y190612D01*
Y190565D01*
X651208Y190530D01*
X651202Y190489D01*
X651196Y190442D01*
X651173Y190331D01*
X651132Y190202D01*
X651103Y190138D01*
X651068Y190068D01*
X651027Y190003D01*
X650980Y189933D01*
X650927Y189869D01*
X650869Y189804D01*
X650863Y189799D01*
X650851Y189793D01*
X650834Y189775D01*
X650804Y189752D01*
X650769Y189728D01*
X650728Y189699D01*
X650681Y189670D01*
X650623Y189641D01*
X650564Y189611D01*
X650494Y189582D01*
X650418Y189553D01*
X650336Y189530D01*
X650249Y189506D01*
X650161Y189489D01*
X650061Y189483D01*
X649956Y189477D01*
X649950D01*
X649933D01*
X649898D01*
X649857Y189483D01*
X649810Y189489D01*
X649751Y189494D01*
X649687Y189506D01*
X649617Y189518D01*
X649471Y189559D01*
X649389Y189588D01*
X649313Y189623D01*
X649231Y189658D01*
X649155Y189705D01*
X649085Y189758D01*
X649014Y189816D01*
X649008Y189822D01*
X648997Y189834D01*
X648979Y189851D01*
X648956Y189881D01*
X648932Y189910D01*
X648903Y189951D01*
X648868Y189997D01*
X648833Y190056D01*
X648804Y190114D01*
X648769Y190179D01*
X648710Y190325D01*
X648693Y190407D01*
X648675Y190495D01*
X648663Y190588D01*
X648657Y190682D01*
Y190717D01*
X648663Y190746D01*
Y190776D01*
X648669Y190816D01*
X648681Y190910D01*
X648710Y191015D01*
X648745Y191127D01*
X648792Y191249D01*
X648862Y191366D01*
Y191372D01*
X648874Y191378D01*
X648886Y191396D01*
X648897Y191419D01*
X648944Y191472D01*
X649008Y191542D01*
X649096Y191618D01*
X649190Y191700D01*
X649307Y191776D01*
X649441Y191840D01*
X649447D01*
X649459Y191846D01*
X649482Y191858D01*
X649511Y191864D01*
X649547Y191881D01*
X649593Y191893D01*
X649652Y191905D01*
X649716Y191922D01*
X649787Y191940D01*
X649868Y191951D01*
X649956Y191969D01*
X650050Y191981D01*
X650155Y191987D01*
X650266Y191998D01*
X650389Y192004D01*
X650518D01*
X650524D01*
X650553D01*
X650588D01*
X650641D01*
X650699Y191998D01*
D02*
G37*
G36*
X651465Y189003D02*
X651512Y188997D01*
X651559Y188991D01*
X651617Y188980D01*
X651676Y188962D01*
X651811Y188921D01*
X651887Y188892D01*
X651957Y188851D01*
X652027Y188810D01*
X652097Y188763D01*
X652167Y188705D01*
X652238Y188640D01*
X652244Y188635D01*
X652255Y188623D01*
X652267Y188605D01*
X652290Y188576D01*
X652319Y188541D01*
X652349Y188494D01*
X652378Y188441D01*
X652407Y188389D01*
X652442Y188324D01*
X652472Y188254D01*
X652501Y188178D01*
X652530Y188096D01*
X652554Y188008D01*
X652565Y187915D01*
X652577Y187815D01*
X652583Y187716D01*
Y187669D01*
X652577Y187634D01*
X652571Y187587D01*
X652565Y187540D01*
X652559Y187482D01*
X652548Y187424D01*
X652513Y187289D01*
X652454Y187149D01*
X652425Y187078D01*
X652384Y187014D01*
X652337Y186944D01*
X652284Y186880D01*
X652279Y186874D01*
X652273Y186868D01*
X652255Y186850D01*
X652232Y186827D01*
X652197Y186803D01*
X652162Y186774D01*
X652121Y186739D01*
X652074Y186710D01*
X651957Y186640D01*
X651822Y186581D01*
X651670Y186529D01*
X651588Y186511D01*
X651501Y186499D01*
X651436Y186973D01*
X651442D01*
X651454Y186979D01*
X651477D01*
X651501Y186991D01*
X651571Y187008D01*
X651658Y187037D01*
X651752Y187073D01*
X651852Y187119D01*
X651939Y187178D01*
X652015Y187242D01*
X652021Y187254D01*
X652045Y187277D01*
X652068Y187318D01*
X652103Y187377D01*
X652132Y187441D01*
X652162Y187523D01*
X652185Y187617D01*
X652191Y187716D01*
Y187751D01*
X652185Y187775D01*
X652179Y187833D01*
X652162Y187909D01*
X652132Y188003D01*
X652097Y188096D01*
X652039Y188190D01*
X651963Y188278D01*
X651951Y188289D01*
X651922Y188313D01*
X651875Y188348D01*
X651805Y188395D01*
X651723Y188436D01*
X651623Y188471D01*
X651512Y188494D01*
X651389Y188506D01*
X651383D01*
X651378D01*
X651360D01*
X651337Y188500D01*
X651278Y188494D01*
X651202Y188477D01*
X651120Y188453D01*
X651027Y188412D01*
X650939Y188359D01*
X650857Y188289D01*
X650845Y188278D01*
X650822Y188254D01*
X650793Y188207D01*
X650752Y188143D01*
X650711Y188067D01*
X650681Y187973D01*
X650658Y187874D01*
X650646Y187757D01*
Y187704D01*
X650652Y187663D01*
X650658Y187617D01*
X650664Y187558D01*
X650676Y187494D01*
X650693Y187424D01*
X650278Y187476D01*
Y187505D01*
X650284Y187529D01*
Y187605D01*
X650278Y187657D01*
X650266Y187734D01*
X650249Y187815D01*
X650219Y187903D01*
X650184Y187997D01*
X650132Y188090D01*
X650126Y188102D01*
X650102Y188131D01*
X650061Y188166D01*
X650009Y188213D01*
X649944Y188260D01*
X649862Y188295D01*
X649763Y188324D01*
X649646Y188336D01*
X649640D01*
X649634D01*
X649605D01*
X649558Y188324D01*
X649494Y188313D01*
X649430Y188295D01*
X649359Y188260D01*
X649283Y188219D01*
X649219Y188161D01*
X649213Y188155D01*
X649190Y188131D01*
X649160Y188090D01*
X649131Y188038D01*
X649096Y187973D01*
X649073Y187897D01*
X649049Y187810D01*
X649044Y187710D01*
Y187663D01*
X649055Y187611D01*
X649067Y187552D01*
X649085Y187476D01*
X649120Y187400D01*
X649160Y187324D01*
X649219Y187248D01*
X649225Y187242D01*
X649248Y187219D01*
X649289Y187189D01*
X649348Y187154D01*
X649418Y187113D01*
X649506Y187078D01*
X649611Y187043D01*
X649734Y187020D01*
X649652Y186546D01*
X649646D01*
X649628Y186552D01*
X649605Y186558D01*
X649576Y186564D01*
X649535Y186575D01*
X649488Y186587D01*
X649383Y186628D01*
X649266Y186675D01*
X649143Y186745D01*
X649026Y186827D01*
X648921Y186932D01*
X648915Y186938D01*
X648909Y186944D01*
X648897Y186961D01*
X648880Y186991D01*
X648862Y187020D01*
X648839Y187055D01*
X648786Y187143D01*
X648739Y187254D01*
X648698Y187388D01*
X648669Y187535D01*
X648657Y187617D01*
Y187751D01*
X648663Y187810D01*
X648675Y187886D01*
X648693Y187973D01*
X648716Y188073D01*
X648751Y188172D01*
X648798Y188272D01*
Y188278D01*
X648804Y188284D01*
X648821Y188319D01*
X648850Y188365D01*
X648891Y188424D01*
X648944Y188488D01*
X649008Y188558D01*
X649085Y188623D01*
X649166Y188681D01*
X649178Y188687D01*
X649207Y188705D01*
X649254Y188728D01*
X649313Y188751D01*
X649389Y188775D01*
X649471Y188798D01*
X649558Y188816D01*
X649658Y188822D01*
X649670D01*
X649699D01*
X649746Y188816D01*
X649804Y188804D01*
X649874Y188787D01*
X649950Y188763D01*
X650032Y188734D01*
X650108Y188687D01*
X650120Y188681D01*
X650143Y188664D01*
X650178Y188629D01*
X650225Y188588D01*
X650278Y188529D01*
X650330Y188465D01*
X650389Y188383D01*
X650436Y188289D01*
Y188295D01*
X650442Y188307D01*
Y188324D01*
X650453Y188348D01*
X650471Y188406D01*
X650506Y188482D01*
X650547Y188564D01*
X650605Y188652D01*
X650676Y188740D01*
X650763Y188816D01*
X650775Y188822D01*
X650810Y188845D01*
X650863Y188874D01*
X650933Y188915D01*
X651021Y188950D01*
X651126Y188980D01*
X651249Y189003D01*
X651383Y189009D01*
X651389D01*
X651407D01*
X651430D01*
X651465Y189003D01*
D02*
G37*
G36*
X495100Y223400D02*
Y222900D01*
Y143500D01*
X495017Y143300D01*
X435400D01*
Y213000D01*
X406600Y241800D01*
X290100D01*
Y260817D01*
X457517D01*
X457600Y260900D01*
X495100Y223400D01*
D02*
G37*
G36*
X342800Y238900D02*
X379700Y202000D01*
Y142600D01*
X322300D01*
Y205500D01*
X321100Y206700D01*
X308600Y219200D01*
X290507D01*
X290200Y219600D01*
Y239700D01*
X342000D01*
X342800Y238900D01*
D02*
G37*
%LPC*%
G36*
X608158Y268121D02*
X608152D01*
X608146D01*
X608117D01*
X608064Y268109D01*
X608006Y268097D01*
X607941Y268074D01*
X607865Y268044D01*
X607795Y267998D01*
X607725Y267939D01*
X607719Y267933D01*
X607696Y267910D01*
X607666Y267869D01*
X607631Y267816D01*
X607602Y267752D01*
X607573Y267676D01*
X607549Y267594D01*
X607544Y267495D01*
Y267448D01*
X607555Y267401D01*
X607567Y267337D01*
X607584Y267266D01*
X607620Y267190D01*
X607660Y267114D01*
X607719Y267044D01*
X607725Y267038D01*
X607748Y267015D01*
X607789Y266991D01*
X607836Y266956D01*
X607895Y266927D01*
X607971Y266898D01*
X608047Y266875D01*
X608134Y266869D01*
X608146D01*
X608181D01*
X608228Y266880D01*
X608292Y266892D01*
X608362Y266910D01*
X608433Y266939D01*
X608509Y266980D01*
X608579Y267038D01*
X608585Y267044D01*
X608602Y267068D01*
X608632Y267108D01*
X608661Y267161D01*
X608696Y267226D01*
X608719Y267307D01*
X608743Y267395D01*
X608749Y267495D01*
Y267541D01*
X608737Y267588D01*
X608725Y267653D01*
X608708Y267723D01*
X608678Y267799D01*
X608638Y267875D01*
X608579Y267945D01*
X608573Y267951D01*
X608550Y267974D01*
X608515Y268004D01*
X608462Y268033D01*
X608403Y268068D01*
X608327Y268091D01*
X608246Y268115D01*
X608158Y268121D01*
D02*
G37*
G36*
X609925Y268279D02*
X609919D01*
X609907D01*
X609889D01*
X609866Y268273D01*
X609807Y268267D01*
X609726Y268249D01*
X609638Y268226D01*
X609544Y268185D01*
X609451Y268126D01*
X609363Y268050D01*
X609351Y268039D01*
X609328Y268009D01*
X609293Y267963D01*
X609246Y267898D01*
X609205Y267816D01*
X609170Y267717D01*
X609146Y267606D01*
X609135Y267483D01*
Y267454D01*
X609141Y267430D01*
X609146Y267366D01*
X609164Y267290D01*
X609187Y267202D01*
X609228Y267108D01*
X609281Y267021D01*
X609357Y266933D01*
X609369Y266921D01*
X609398Y266898D01*
X609445Y266863D01*
X609509Y266828D01*
X609591Y266787D01*
X609685Y266752D01*
X609796Y266728D01*
X609913Y266717D01*
X609919D01*
X609948D01*
X609983Y266722D01*
X610036Y266728D01*
X610094Y266740D01*
X610164Y266757D01*
X610234Y266781D01*
X610305Y266810D01*
X610311Y266816D01*
X610334Y266828D01*
X610369Y266851D01*
X610410Y266880D01*
X610457Y266921D01*
X610509Y266968D01*
X610556Y267027D01*
X610597Y267091D01*
X610603Y267103D01*
X610615Y267126D01*
X610627Y267161D01*
X610644Y267214D01*
X610667Y267278D01*
X610679Y267342D01*
X610691Y267419D01*
X610697Y267500D01*
Y267535D01*
X610691Y267559D01*
X610685Y267617D01*
X610667Y267699D01*
X610644Y267787D01*
X610603Y267881D01*
X610550Y267968D01*
X610480Y268056D01*
X610468Y268068D01*
X610439Y268091D01*
X610393Y268126D01*
X610328Y268167D01*
X610252Y268208D01*
X610153Y268243D01*
X610047Y268267D01*
X609925Y268279D01*
D02*
G37*
G36*
X649939Y191478D02*
X649933D01*
X649921D01*
X649898D01*
X649868Y191472D01*
X649833D01*
X649798Y191466D01*
X649705Y191448D01*
X649599Y191425D01*
X649494Y191384D01*
X649389Y191331D01*
X649289Y191261D01*
X649277Y191249D01*
X649254Y191220D01*
X649213Y191179D01*
X649166Y191115D01*
X649125Y191039D01*
X649085Y190951D01*
X649061Y190852D01*
X649049Y190741D01*
Y190711D01*
X649055Y190688D01*
X649061Y190629D01*
X649079Y190553D01*
X649114Y190465D01*
X649160Y190378D01*
X649219Y190284D01*
X649260Y190237D01*
X649307Y190191D01*
X649319Y190179D01*
X649354Y190155D01*
X649412Y190120D01*
X649488Y190079D01*
X649582Y190033D01*
X649699Y189997D01*
X649827Y189974D01*
X649974Y189962D01*
X649979D01*
X649991D01*
X650009D01*
X650032Y189968D01*
X650102Y189974D01*
X650184Y189992D01*
X650284Y190015D01*
X650383Y190056D01*
X650477Y190109D01*
X650570Y190179D01*
X650582Y190191D01*
X650605Y190220D01*
X650641Y190267D01*
X650681Y190331D01*
X650728Y190413D01*
X650763Y190506D01*
X650787Y190612D01*
X650799Y190729D01*
Y190758D01*
X650793Y190781D01*
X650787Y190840D01*
X650769Y190916D01*
X650740Y190998D01*
X650705Y191092D01*
X650646Y191179D01*
X650570Y191261D01*
X650559Y191273D01*
X650529Y191296D01*
X650477Y191331D01*
X650407Y191372D01*
X650313Y191407D01*
X650208Y191443D01*
X650079Y191466D01*
X649939Y191478D01*
D02*
G37*
%LPD*%
D10*
X244400Y415000D02*
X246400D01*
X244400Y403189D02*
X246400D01*
X245400Y415000D02*
X247400Y421000D01*
X243400D02*
X245400Y415000D01*
Y403189D02*
X247400Y397189D01*
X243400D02*
X245400Y403189D01*
Y415000D02*
Y425000D01*
Y393189D02*
Y403189D01*
X260100Y142811D02*
X262100D01*
X260100Y131000D02*
X262100D01*
X261100Y142811D02*
X263100Y148811D01*
X259100D02*
X261100Y142811D01*
Y131000D02*
X263100Y125000D01*
X259100D02*
X261100Y131000D01*
Y142811D02*
Y152811D01*
Y121000D02*
Y131000D01*
X649000Y273043D02*
X651000D01*
X649000Y119500D02*
X651000D01*
X650000Y273043D02*
X652000Y267043D01*
X648000D02*
X650000Y273043D01*
Y119500D02*
X652000Y125500D01*
X648000D02*
X650000Y119500D01*
Y207044D02*
Y273043D01*
Y119500D02*
Y185499D01*
X607500Y426587D02*
X609500D01*
X607500Y119500D02*
X609500D01*
X608500Y426587D02*
X610500Y420587D01*
X606500D02*
X608500Y426587D01*
Y119500D02*
X610500Y125500D01*
X606500D02*
X608500Y119500D01*
Y283804D02*
Y426587D01*
Y119500D02*
Y262283D01*
X572500Y426461D02*
X574500D01*
X572500Y391500D02*
X574500D01*
X573500Y426461D02*
X575500Y432461D01*
X571500D02*
X573500Y426461D01*
Y391500D02*
X575500Y385500D01*
X571500D02*
X573500Y391500D01*
Y426461D02*
Y436461D01*
Y381500D02*
Y391500D01*
X535400Y105800D02*
Y107800D01*
X523589Y105800D02*
Y107800D01*
X535400Y106800D02*
X541400Y104800D01*
X535400Y106800D02*
X541400Y108800D01*
X517589Y104800D02*
X523589Y106800D01*
X517589Y108800D02*
X523589Y106800D01*
X535400D02*
X545400D01*
X513589D02*
X523589D01*
X582500Y154461D02*
X584500D01*
X582500Y119500D02*
X584500D01*
X583500Y154461D02*
X585500Y160461D01*
X581500D02*
X583500Y154461D01*
Y119500D02*
X585500Y113500D01*
X581500D02*
X583500Y119500D01*
Y154461D02*
Y164461D01*
Y109500D02*
Y119500D01*
X295411Y111400D02*
Y113400D01*
X283600Y111400D02*
Y113400D01*
X295411Y112400D02*
X301411Y110400D01*
X295411Y112400D02*
X301411Y114400D01*
X277600Y110400D02*
X283600Y112400D01*
X277600Y114400D02*
X283600Y112400D01*
X295411D02*
X305411D01*
X273600D02*
X283600D01*
X409499Y445000D02*
X409501Y447000D01*
X271799Y445100D02*
X271801Y447100D01*
X403499Y444004D02*
X409500Y446000D01*
X403502Y448004D02*
X409500Y446000D01*
X271800Y446100D02*
X277799Y444096D01*
X271800Y446100D02*
X277801Y448096D01*
X372240Y446027D02*
X409500Y446000D01*
X271800Y446100D02*
X309060Y446073D01*
X424996Y488500D02*
Y490500D01*
X393500Y488500D02*
Y490500D01*
X424996Y489500D02*
X430996Y487500D01*
X424996Y489500D02*
X430996Y491500D01*
X387500Y487500D02*
X393500Y489500D01*
X387500Y491500D02*
X393500Y489500D01*
X424996D02*
X434996D01*
X383500D02*
X393500D01*
X425248Y466500D02*
Y468500D01*
X409500Y466500D02*
Y468500D01*
X425248Y467500D02*
X431248Y465500D01*
X425248Y467500D02*
X431248Y469500D01*
X403500Y465500D02*
X409500Y467500D01*
X403500Y469500D02*
X409500Y467500D01*
X425248D02*
X435248D01*
X399500D02*
X409500D01*
X547100Y445000D02*
Y447000D01*
X409394Y445000D02*
Y447000D01*
X541100Y444000D02*
X547100Y446000D01*
X541100Y448000D02*
X547100Y446000D01*
X409394D02*
X415394Y444000D01*
X409394Y446000D02*
X415394Y448000D01*
X509837Y446000D02*
X547100D01*
X409394D02*
X446657D01*
D12*
X254798Y393000D02*
X253798Y393999D01*
Y395999D01*
X254798Y396998D01*
X255797D01*
X256797Y395999D01*
Y394999D01*
Y395999D01*
X257797Y396998D01*
X258796D01*
X259796Y395999D01*
Y393999D01*
X258796Y393000D01*
X259796Y406995D02*
X257797Y404996D01*
X255797D01*
X253798Y406995D01*
X259796Y409994D02*
X255797D01*
Y410994D01*
X256797Y411993D01*
X259796D01*
X256797D01*
X255797Y412993D01*
X256797Y413993D01*
X259796D01*
Y415992D02*
X255797D01*
Y416992D01*
X256797Y417991D01*
X259796D01*
X256797D01*
X255797Y418991D01*
X256797Y419991D01*
X259796D01*
Y421990D02*
X257797Y423989D01*
X255797D01*
X253798Y421990D01*
X270498Y120810D02*
X269498Y121810D01*
Y123810D01*
X270498Y124809D01*
X271497D01*
X272497Y123810D01*
Y122810D01*
Y123810D01*
X273497Y124809D01*
X274496D01*
X275496Y123810D01*
Y121810D01*
X274496Y120810D01*
X275496Y134806D02*
X273497Y132807D01*
X271497D01*
X269498Y134806D01*
X275496Y137805D02*
X271497D01*
Y138805D01*
X272497Y139804D01*
X275496D01*
X272497D01*
X271497Y140804D01*
X272497Y141804D01*
X275496D01*
Y143803D02*
X271497D01*
Y144803D01*
X272497Y145802D01*
X275496D01*
X272497D01*
X271497Y146802D01*
X272497Y147802D01*
X275496D01*
Y149801D02*
X273497Y151801D01*
X271497D01*
X269498Y149801D01*
X582898Y384388D02*
X581898Y385388D01*
Y387387D01*
X582898Y388387D01*
X583897D01*
X584897Y387387D01*
X585897Y388387D01*
X586896D01*
X587896Y387387D01*
Y385388D01*
X586896Y384388D01*
X585897D01*
X584897Y385388D01*
X583897Y384388D01*
X582898D01*
X584897Y385388D02*
Y387387D01*
X587896Y390386D02*
X586896D01*
Y391386D01*
X587896D01*
Y390386D01*
X582898Y395385D02*
X581898Y396384D01*
Y398384D01*
X582898Y399383D01*
X583897D01*
X584897Y398384D01*
X585897Y399383D01*
X586896D01*
X587896Y398384D01*
Y396384D01*
X586896Y395385D01*
X585897D01*
X584897Y396384D01*
X583897Y395385D01*
X582898D01*
X584897Y396384D02*
Y398384D01*
X582898Y401383D02*
X581898Y402382D01*
Y404382D01*
X582898Y405381D01*
X583897D01*
X584897Y404382D01*
X585897Y405381D01*
X586896D01*
X587896Y404382D01*
Y402382D01*
X586896Y401383D01*
X585897D01*
X584897Y402382D01*
X583897Y401383D01*
X582898D01*
X584897Y402382D02*
Y404382D01*
X587896Y415378D02*
X585897Y413379D01*
X583897D01*
X581898Y415378D01*
X587896Y418377D02*
X583897D01*
Y419377D01*
X584897Y420376D01*
X587896D01*
X584897D01*
X583897Y421376D01*
X584897Y422376D01*
X587896D01*
Y424375D02*
X583897D01*
Y425375D01*
X584897Y426374D01*
X587896D01*
X584897D01*
X583897Y427374D01*
X584897Y428374D01*
X587896D01*
Y430373D02*
X585897Y432373D01*
X583897D01*
X581898Y430373D01*
X513400Y97402D02*
X514399Y98402D01*
X516398D01*
X517398Y97402D01*
Y96403D01*
X516398Y95403D01*
X515399D01*
X516398D01*
X517398Y94403D01*
Y93404D01*
X516398Y92404D01*
X514399D01*
X513400Y93404D01*
X527395Y92404D02*
X525396Y94403D01*
Y96403D01*
X527395Y98402D01*
X530394Y92404D02*
Y96403D01*
X531394D01*
X532393Y95403D01*
Y92404D01*
Y95403D01*
X533393Y96403D01*
X534393Y95403D01*
Y92404D01*
X536392D02*
Y96403D01*
X537392D01*
X538391Y95403D01*
Y92404D01*
Y95403D01*
X539391Y96403D01*
X540391Y95403D01*
Y92404D01*
X542390D02*
X544389Y94403D01*
Y96403D01*
X542390Y98402D01*
X592898Y112388D02*
X591898Y113388D01*
Y115387D01*
X592898Y116387D01*
X593897D01*
X594897Y115387D01*
X595897Y116387D01*
X596896D01*
X597896Y115387D01*
Y113388D01*
X596896Y112388D01*
X595897D01*
X594897Y113388D01*
X593897Y112388D01*
X592898D01*
X594897Y113388D02*
Y115387D01*
X597896Y118386D02*
X596896D01*
Y119386D01*
X597896D01*
Y118386D01*
X592898Y123384D02*
X591898Y124384D01*
Y126383D01*
X592898Y127383D01*
X593897D01*
X594897Y126383D01*
X595897Y127383D01*
X596896D01*
X597896Y126383D01*
Y124384D01*
X596896Y123384D01*
X595897D01*
X594897Y124384D01*
X593897Y123384D01*
X592898D01*
X594897Y124384D02*
Y126383D01*
X592898Y129383D02*
X591898Y130382D01*
Y132382D01*
X592898Y133381D01*
X593897D01*
X594897Y132382D01*
X595897Y133381D01*
X596896D01*
X597896Y132382D01*
Y130382D01*
X596896Y129383D01*
X595897D01*
X594897Y130382D01*
X593897Y129383D01*
X592898D01*
X594897Y130382D02*
Y132382D01*
X597896Y143378D02*
X595897Y141379D01*
X593897D01*
X591898Y143378D01*
X597896Y146377D02*
X593897D01*
Y147377D01*
X594897Y148376D01*
X597896D01*
X594897D01*
X593897Y149376D01*
X594897Y150376D01*
X597896D01*
Y152375D02*
X593897D01*
Y153375D01*
X594897Y154375D01*
X597896D01*
X594897D01*
X593897Y155374D01*
X594897Y156374D01*
X597896D01*
Y158373D02*
X595897Y160373D01*
X593897D01*
X591898Y158373D01*
X273411Y103002D02*
X274410Y104002D01*
X276410D01*
X277409Y103002D01*
Y102003D01*
X276410Y101003D01*
X275410D01*
X276410D01*
X277409Y100003D01*
Y99004D01*
X276410Y98004D01*
X274410D01*
X273411Y99004D01*
X287406Y98004D02*
X285407Y100003D01*
Y102003D01*
X287406Y104002D01*
X290405Y98004D02*
Y102003D01*
X291405D01*
X292404Y101003D01*
Y98004D01*
Y101003D01*
X293404Y102003D01*
X294404Y101003D01*
Y98004D01*
X296403D02*
Y102003D01*
X297403D01*
X298402Y101003D01*
Y98004D01*
Y101003D01*
X299402Y102003D01*
X300402Y101003D01*
Y98004D01*
X302401D02*
X304400Y100003D01*
Y102003D01*
X302401Y104002D01*
X310061Y447472D02*
X311061Y448470D01*
X313060Y448469D01*
X314059Y447469D01*
X314059Y446469D01*
X313058Y445470D01*
X312059Y445471D01*
X313058Y445470D01*
X314057Y444470D01*
X314056Y443470D01*
X313056Y442471D01*
X311057Y442473D01*
X310058Y443473D01*
X319054Y442467D02*
X319058Y448465D01*
X316057Y445468D01*
X320056Y445465D01*
X322053Y442464D02*
X322054Y443464D01*
X323054Y443463D01*
X323053Y442464D01*
X322053Y442464D01*
X327052Y443461D02*
X328051Y442460D01*
X330051Y442459D01*
X331051Y443458D01*
X331054Y447456D01*
X330055Y448457D01*
X328056Y448458D01*
X327055Y447459D01*
X327055Y446460D01*
X328053Y445459D01*
X331052Y445457D01*
X333054Y448455D02*
X337053Y448452D01*
X337052Y447452D01*
X333050Y443456D01*
X333050Y442456D01*
X343051Y448447D02*
X341051Y447449D01*
X339050Y445451D01*
X339048Y443452D01*
X340047Y442451D01*
X342047Y442450D01*
X343047Y443449D01*
X343048Y444449D01*
X342049Y445449D01*
X339050Y445451D01*
X353043Y442442D02*
X351045Y444443D01*
X351047Y446442D01*
X353047Y448440D01*
X356042Y442440D02*
X356045Y446439D01*
X357045Y446438D01*
X358044Y445437D01*
X358042Y442438D01*
X358044Y445437D01*
X359044Y446436D01*
X360043Y445436D01*
X360041Y442437D01*
X362040Y442435D02*
X362043Y446434D01*
X363043Y446433D01*
X364042Y445433D01*
X364040Y442434D01*
X364042Y445433D01*
X365042Y446432D01*
X366041Y445432D01*
X366039Y442432D01*
X368038Y442431D02*
X370039Y444429D01*
X370041Y446428D01*
X368043Y448429D01*
X393153Y480102D02*
X394153Y481102D01*
X396152D01*
X397152Y480102D01*
Y479103D01*
X396152Y478103D01*
X397152Y477103D01*
Y476104D01*
X396152Y475104D01*
X394153D01*
X393153Y476104D01*
Y477103D01*
X394153Y478103D01*
X393153Y479103D01*
Y480102D01*
X394153Y478103D02*
X396152D01*
X407149Y475104D02*
X405149Y477103D01*
Y479103D01*
X407149Y481102D01*
X410147Y475104D02*
Y479103D01*
X411147D01*
X412147Y478103D01*
Y475104D01*
Y478103D01*
X413147Y479103D01*
X414146Y478103D01*
Y475104D01*
X416146D02*
Y479103D01*
X417145D01*
X418145Y478103D01*
Y475104D01*
Y478103D01*
X419145Y479103D01*
X420144Y478103D01*
Y475104D01*
X422144D02*
X424143Y477103D01*
Y479103D01*
X422144Y481102D01*
X404278Y453104D02*
Y459102D01*
X401279Y456103D01*
X405278D01*
X415274Y453104D02*
X413275Y455103D01*
Y457103D01*
X415274Y459102D01*
X418273Y453104D02*
Y457103D01*
X419273D01*
X420273Y456103D01*
Y453104D01*
Y456103D01*
X421273Y457103D01*
X422272Y456103D01*
Y453104D01*
X424272D02*
Y457103D01*
X425271D01*
X426271Y456103D01*
Y453104D01*
Y456103D01*
X427271Y457103D01*
X428270Y456103D01*
Y453104D01*
X430270D02*
X432269Y455103D01*
Y457103D01*
X430270Y459102D01*
X447656Y447399D02*
X448656Y448399D01*
X450656D01*
X451655Y447399D01*
Y446400D01*
X450656Y445400D01*
X449656D01*
X450656D01*
X451655Y444400D01*
Y443401D01*
X450656Y442401D01*
X448656D01*
X447656Y443401D01*
X456654Y442401D02*
Y448399D01*
X453655Y445400D01*
X457653D01*
X459653Y442401D02*
Y443401D01*
X460652D01*
Y442401D01*
X459653D01*
X464651Y443401D02*
X465651Y442401D01*
X467650D01*
X468650Y443401D01*
Y447399D01*
X467650Y448399D01*
X465651D01*
X464651Y447399D01*
Y446400D01*
X465651Y445400D01*
X468650D01*
X470649Y448399D02*
X474648D01*
Y447399D01*
X470649Y443401D01*
Y442401D01*
X476647Y448399D02*
X480646D01*
Y447399D01*
X476647Y443401D01*
Y442401D01*
X490643D02*
X488643Y444400D01*
Y446400D01*
X490643Y448399D01*
X493642Y442401D02*
Y446400D01*
X494641D01*
X495641Y445400D01*
Y442401D01*
Y445400D01*
X496641Y446400D01*
X497640Y445400D01*
Y442401D01*
X499640D02*
Y446400D01*
X500639D01*
X501639Y445400D01*
Y442401D01*
Y445400D01*
X502639Y446400D01*
X503638Y445400D01*
Y442401D01*
X505638D02*
X507637Y444400D01*
Y446400D01*
X505638Y448399D01*
D18*
X295300Y266500D02*
X305300D01*
X320965Y361665D02*
X343000D01*
X305300Y266500D02*
X317100Y278300D01*
Y357800D02*
X320965Y361665D01*
X317100Y352200D02*
X321200Y356300D01*
X317100Y278300D02*
Y352200D01*
Y357800D01*
D19*
X295300Y226500D02*
D03*
D20*
X305300D02*
D03*
X295300Y236500D02*
D03*
X305300D02*
D03*
X295300Y246500D02*
D03*
X305300D02*
D03*
X295300Y256500D02*
D03*
X305300D02*
D03*
X295300Y266500D02*
D03*
X305300D02*
D03*
D21*
X465500Y154335D02*
D03*
X475500Y184335D02*
D03*
X455500D02*
D03*
X465500Y391500D02*
D03*
X455500Y361500D02*
D03*
X475500D02*
D03*
X343000Y184500D02*
D03*
X363000D02*
D03*
X353000Y154500D02*
D03*
X363000Y361665D02*
D03*
X343000D02*
D03*
X353000Y391665D02*
D03*
D22*
X409500Y184335D02*
D03*
Y361500D02*
D03*
X302700D02*
D03*
X516300D02*
D03*
X302700Y184300D02*
D03*
X516300D02*
D03*
D23*
X409500Y273043D02*
D03*
X523600Y142800D02*
D03*
X295400D02*
D03*
Y403200D02*
D03*
X523600D02*
D03*
M02*
