G04*
G04 #@! TF.GenerationSoftware,Altium Limited,Altium Designer,18.1.7 (191)*
G04*
G04 Layer_Physical_Order=2*
G04 Layer_Color=16711680*
%FSLAX25Y25*%
%MOIN*%
G70*
G01*
G75*
%ADD10C,0.01000*%
%ADD27C,0.04000*%
%ADD28C,0.10827*%
G04:AMPARAMS|DCode=29|XSize=354.33mil|YSize=60mil|CornerRadius=15mil|HoleSize=0mil|Usage=FLASHONLY|Rotation=180.000|XOffset=0mil|YOffset=0mil|HoleType=Round|Shape=RoundedRectangle|*
%AMROUNDEDRECTD29*
21,1,0.35433,0.03000,0,0,180.0*
21,1,0.32433,0.06000,0,0,180.0*
1,1,0.03000,-0.16217,0.01500*
1,1,0.03000,0.16217,0.01500*
1,1,0.03000,0.16217,-0.01500*
1,1,0.03000,-0.16217,-0.01500*
%
%ADD29ROUNDEDRECTD29*%
%ADD30C,0.07087*%
%ADD31C,0.06496*%
%ADD32R,0.06496X0.06496*%
%ADD33C,0.06201*%
%ADD34C,0.19685*%
%ADD35C,0.23622*%
%ADD36C,0.05906*%
%ADD37C,0.03150*%
%ADD38R,0.04528X0.07087*%
G36*
X217400Y281200D02*
X217400Y218705D01*
X217046Y218352D01*
X129886Y218399D01*
X129787Y218899D01*
X130793Y219316D01*
X132382Y220290D01*
X133800Y221500D01*
X135010Y222918D01*
X135984Y224507D01*
X136698Y226229D01*
X137133Y228042D01*
X137279Y229900D01*
X137133Y231758D01*
X136698Y233571D01*
X135984Y235293D01*
X135010Y236882D01*
X133800Y238300D01*
X132382Y239510D01*
X130793Y240484D01*
X129071Y241198D01*
X127258Y241633D01*
X125400Y241779D01*
X123542Y241633D01*
X121729Y241198D01*
X120007Y240484D01*
X118418Y239510D01*
X117000Y238300D01*
X115790Y236882D01*
X114816Y235293D01*
X114102Y233571D01*
X113667Y231758D01*
X113521Y229900D01*
X113667Y228042D01*
X114102Y226229D01*
X114816Y224507D01*
X115790Y222918D01*
X117000Y221500D01*
X118418Y220290D01*
X120007Y219316D01*
X121002Y218903D01*
X120903Y218404D01*
X31700Y218451D01*
X31700Y281200D01*
X217400Y281200D01*
D02*
G37*
%LPC*%
G36*
X196517Y278331D02*
X180800D01*
Y275802D01*
X198046D01*
Y276802D01*
X197930Y277387D01*
X197598Y277883D01*
X197102Y278215D01*
X196517Y278331D01*
D02*
G37*
G36*
X179800D02*
X164083D01*
X163498Y278215D01*
X163002Y277883D01*
X162671Y277387D01*
X162554Y276802D01*
Y275802D01*
X179800D01*
Y278331D01*
D02*
G37*
G36*
X85817Y277991D02*
X70100D01*
Y275461D01*
X87346D01*
Y276461D01*
X87230Y277047D01*
X86898Y277543D01*
X86402Y277874D01*
X85817Y277991D01*
D02*
G37*
G36*
X69100D02*
X53383D01*
X52798Y277874D01*
X52302Y277543D01*
X51970Y277047D01*
X51854Y276461D01*
Y275461D01*
X69100D01*
Y277991D01*
D02*
G37*
G36*
X198046Y274802D02*
X180800D01*
Y272272D01*
X196517D01*
X197102Y272389D01*
X197598Y272720D01*
X197930Y273216D01*
X198046Y273802D01*
Y274802D01*
D02*
G37*
G36*
X179800D02*
X162554D01*
Y273802D01*
X162671Y273216D01*
X163002Y272720D01*
X163498Y272389D01*
X164083Y272272D01*
X179800D01*
Y274802D01*
D02*
G37*
G36*
X87346Y274461D02*
X70100D01*
Y271932D01*
X85817D01*
X86402Y272048D01*
X86898Y272380D01*
X87230Y272876D01*
X87346Y273461D01*
Y274461D01*
D02*
G37*
G36*
X69100D02*
X51854D01*
Y273461D01*
X51970Y272876D01*
X52302Y272380D01*
X52798Y272048D01*
X53383Y271932D01*
X69100D01*
Y274461D01*
D02*
G37*
G36*
X180800Y266424D02*
Y261530D01*
X185694D01*
X185574Y262443D01*
X185029Y263760D01*
X184161Y264891D01*
X183030Y265758D01*
X181713Y266304D01*
X180800Y266424D01*
D02*
G37*
G36*
X179800Y266424D02*
X178887Y266304D01*
X177570Y265758D01*
X176439Y264891D01*
X175571Y263760D01*
X175026Y262443D01*
X174906Y261530D01*
X179800D01*
Y266424D01*
D02*
G37*
G36*
X70100Y266084D02*
Y261190D01*
X74994D01*
X74874Y262103D01*
X74329Y263420D01*
X73461Y264551D01*
X72330Y265418D01*
X71013Y265964D01*
X70100Y266084D01*
D02*
G37*
G36*
X69100Y266084D02*
X68187Y265964D01*
X66870Y265418D01*
X65739Y264551D01*
X64871Y263420D01*
X64326Y262103D01*
X64206Y261190D01*
X69100D01*
Y266084D01*
D02*
G37*
G36*
X185694Y260530D02*
X180800D01*
Y255636D01*
X181713Y255756D01*
X183030Y256301D01*
X184161Y257169D01*
X185029Y258300D01*
X185574Y259617D01*
X185694Y260530D01*
D02*
G37*
G36*
X179800D02*
X174906D01*
X175026Y259617D01*
X175571Y258300D01*
X176439Y257169D01*
X177570Y256301D01*
X178887Y255756D01*
X179800Y255636D01*
Y260530D01*
D02*
G37*
G36*
X74994Y260190D02*
X70100D01*
Y255295D01*
X71013Y255416D01*
X72330Y255961D01*
X73461Y256829D01*
X74329Y257960D01*
X74874Y259277D01*
X74994Y260190D01*
D02*
G37*
G36*
X69100D02*
X64206D01*
X64326Y259277D01*
X64871Y257960D01*
X65739Y256829D01*
X66870Y255961D01*
X68187Y255416D01*
X69100Y255295D01*
Y260190D01*
D02*
G37*
G36*
X190800Y236424D02*
Y231530D01*
X195694D01*
X195574Y232443D01*
X195029Y233760D01*
X194161Y234891D01*
X193030Y235758D01*
X191713Y236304D01*
X190800Y236424D01*
D02*
G37*
G36*
X170800D02*
Y231530D01*
X175694D01*
X175574Y232443D01*
X175029Y233760D01*
X174161Y234891D01*
X173030Y235758D01*
X171713Y236304D01*
X170800Y236424D01*
D02*
G37*
G36*
X189800Y236424D02*
X188887Y236304D01*
X187570Y235758D01*
X186439Y234891D01*
X185571Y233760D01*
X185026Y232443D01*
X184906Y231530D01*
X189800D01*
Y236424D01*
D02*
G37*
G36*
X169800D02*
X168887Y236304D01*
X167570Y235758D01*
X166439Y234891D01*
X165571Y233760D01*
X165026Y232443D01*
X164906Y231530D01*
X169800D01*
Y236424D01*
D02*
G37*
G36*
X80100Y236084D02*
Y231190D01*
X84994D01*
X84874Y232103D01*
X84329Y233420D01*
X83461Y234551D01*
X82330Y235418D01*
X81013Y235964D01*
X80100Y236084D01*
D02*
G37*
G36*
X60100D02*
Y231190D01*
X64994D01*
X64874Y232103D01*
X64329Y233420D01*
X63461Y234551D01*
X62330Y235418D01*
X61013Y235964D01*
X60100Y236084D01*
D02*
G37*
G36*
X79100Y236084D02*
X78187Y235964D01*
X76870Y235418D01*
X75739Y234551D01*
X74871Y233420D01*
X74326Y232103D01*
X74206Y231190D01*
X79100D01*
Y236084D01*
D02*
G37*
G36*
X59100D02*
X58187Y235964D01*
X56870Y235418D01*
X55739Y234551D01*
X54871Y233420D01*
X54326Y232103D01*
X54206Y231190D01*
X59100D01*
Y236084D01*
D02*
G37*
G36*
X195694Y230530D02*
X190800D01*
Y225636D01*
X191713Y225756D01*
X193030Y226301D01*
X194161Y227169D01*
X195029Y228300D01*
X195574Y229617D01*
X195694Y230530D01*
D02*
G37*
G36*
X175694D02*
X170800D01*
Y225636D01*
X171713Y225756D01*
X173030Y226301D01*
X174161Y227169D01*
X175029Y228300D01*
X175574Y229617D01*
X175694Y230530D01*
D02*
G37*
G36*
X189800D02*
X184906D01*
X185026Y229617D01*
X185571Y228300D01*
X186439Y227169D01*
X187570Y226301D01*
X188887Y225756D01*
X189800Y225636D01*
Y230530D01*
D02*
G37*
G36*
X169800D02*
X164906D01*
X165026Y229617D01*
X165571Y228300D01*
X166439Y227169D01*
X167570Y226301D01*
X168887Y225756D01*
X169800Y225636D01*
Y230530D01*
D02*
G37*
G36*
X64994Y230190D02*
X60100D01*
Y225295D01*
X61013Y225416D01*
X62330Y225961D01*
X63461Y226829D01*
X64329Y227960D01*
X64874Y229277D01*
X64994Y230190D01*
D02*
G37*
G36*
X84994D02*
X80100D01*
Y225295D01*
X81013Y225416D01*
X82330Y225961D01*
X83461Y226829D01*
X84329Y227960D01*
X84874Y229277D01*
X84994Y230190D01*
D02*
G37*
G36*
X79100D02*
X74206D01*
X74326Y229277D01*
X74871Y227960D01*
X75739Y226829D01*
X76870Y225961D01*
X78187Y225416D01*
X79100Y225295D01*
Y230190D01*
D02*
G37*
G36*
X59100D02*
X54206D01*
X54326Y229277D01*
X54871Y227960D01*
X55739Y226829D01*
X56870Y225961D01*
X58187Y225416D01*
X59100Y225295D01*
Y230190D01*
D02*
G37*
%LPD*%
D10*
X110000Y135600D02*
X131205Y114394D01*
X108900Y135600D02*
X110000D01*
X130700Y169606D02*
X131205Y169100D01*
X130700Y169606D02*
Y177861D01*
X131205Y113500D02*
Y114394D01*
X119395Y113500D02*
Y115305D01*
X104800Y129900D02*
X119395Y115305D01*
X104800Y129900D02*
Y141700D01*
X119100Y169395D02*
X119395Y169100D01*
X119100Y169395D02*
Y182200D01*
D27*
X125600Y75291D02*
X148300Y97991D01*
Y135200D01*
X33600Y218700D02*
X45590Y230690D01*
X33600Y147300D02*
Y218700D01*
X21200Y134900D02*
X33600Y147300D01*
X45590Y230690D02*
X59600D01*
X11200Y134900D02*
X21200D01*
D28*
X180300Y261030D02*
D03*
X190300Y231030D02*
D03*
X170300D02*
D03*
X190300Y52053D02*
D03*
X170300D02*
D03*
X180300Y22054D02*
D03*
X69600Y260690D02*
D03*
X79600Y230690D02*
D03*
X59600D02*
D03*
X79600Y51713D02*
D03*
X59600D02*
D03*
X69600Y21713D02*
D03*
D29*
X180300Y275302D02*
D03*
Y7782D02*
D03*
X69600Y274961D02*
D03*
Y7442D02*
D03*
D30*
X125900Y273300D02*
D03*
X212300Y115800D02*
D03*
X29800Y72900D02*
D03*
D31*
X11200Y134900D02*
D03*
X21200D02*
D03*
X11200Y124900D02*
D03*
X21200D02*
D03*
X11200Y114900D02*
D03*
X21200D02*
D03*
X11200Y104900D02*
D03*
X21200D02*
D03*
X11200Y94900D02*
D03*
D32*
X21200D02*
D03*
D33*
X125600Y206000D02*
D03*
Y75291D02*
D03*
D34*
X125400Y52735D02*
D03*
Y229900D02*
D03*
X18600D02*
D03*
X232200D02*
D03*
X18600Y52700D02*
D03*
X232200D02*
D03*
D35*
X125400Y141443D02*
D03*
X239500Y11200D02*
D03*
X11300D02*
D03*
Y271600D02*
D03*
X239500D02*
D03*
D36*
X148300Y135200D02*
D03*
D37*
X108900Y135600D02*
D03*
X130700Y177861D02*
D03*
X104800Y141700D02*
D03*
X119100Y182200D02*
D03*
D38*
X131205Y169100D02*
D03*
X119395D02*
D03*
X131205Y113500D02*
D03*
X119395D02*
D03*
M02*
