G04*
G04 #@! TF.GenerationSoftware,Altium Limited,Altium Designer,18.1.7 (191)*
G04*
G04 Layer_Color=65535*
%FSLAX25Y25*%
%MOIN*%
G70*
G01*
G75*
%ADD10C,0.01000*%
%ADD11C,0.00047*%
%ADD12C,0.00787*%
%ADD13C,0.02000*%
%ADD14C,0.00700*%
G36*
X94248Y173520D02*
X94858D01*
Y173432D01*
X95381D01*
X95381Y173345D01*
X95730Y173345D01*
Y173258D01*
X95381D01*
Y173345D01*
X94684D01*
Y173258D01*
X93987D01*
Y173171D01*
X93551D01*
Y173084D01*
X93202D01*
Y172997D01*
X92941D01*
X92941Y172909D01*
X92767D01*
X92767Y172822D01*
X92505Y172822D01*
Y172735D01*
X92331Y172735D01*
Y172648D01*
X92156Y172648D01*
Y172561D01*
X91982D01*
Y172474D01*
X91808D01*
Y172386D01*
X91633D01*
Y172299D01*
X91546Y172299D01*
Y172212D01*
X91372D01*
Y172125D01*
X91285D01*
Y172038D01*
X91110D01*
Y171951D01*
X91023D01*
Y171863D01*
X90936D01*
X90936Y171776D01*
X90849D01*
Y171689D01*
X90762D01*
Y171602D01*
X90588Y171602D01*
X90588Y171515D01*
X90500D01*
X90500Y171428D01*
X90413D01*
Y171341D01*
X90326Y171341D01*
Y171253D01*
X90239D01*
Y171166D01*
X90152D01*
Y171079D01*
Y170992D01*
X90065Y170992D01*
Y170905D01*
X89977D01*
X89977Y170817D01*
X89890D01*
Y170730D01*
X89803D01*
Y170643D01*
X89716Y170643D01*
Y170556D01*
Y170469D01*
X89629D01*
Y170382D01*
X89542D01*
X89542Y170294D01*
X89542Y170207D01*
X89454D01*
Y170120D01*
X89367D01*
Y170033D01*
Y169946D01*
X89280D01*
Y169859D01*
Y169772D01*
X89193D01*
Y169684D01*
Y169597D01*
X89106Y169597D01*
Y169510D01*
Y169423D01*
X89019Y169423D01*
Y169336D01*
Y169249D01*
X88931D01*
Y169161D01*
Y169074D01*
Y168987D01*
X88844D01*
Y168900D01*
Y168813D01*
X88757D01*
Y168726D01*
Y168638D01*
Y168551D01*
X88670D01*
Y168464D01*
Y168377D01*
Y168290D01*
Y168203D01*
X88670Y168115D01*
X88583Y168115D01*
Y168028D01*
Y167941D01*
Y167854D01*
Y167767D01*
X88496D01*
Y167680D01*
Y167593D01*
X88496Y167505D01*
X88496Y167418D01*
X88408D01*
Y167505D01*
X88234D01*
Y167593D01*
X88147Y167593D01*
Y167680D01*
X87973D01*
Y167767D01*
X87798D01*
X87798Y167854D01*
X87711D01*
Y167941D01*
X87537Y167941D01*
Y168028D01*
X87450Y168028D01*
Y168115D01*
X87275Y168115D01*
X87275Y168203D01*
X87188D01*
Y168290D01*
Y168377D01*
X87275D01*
Y168464D01*
Y168551D01*
Y168638D01*
Y168726D01*
X87362D01*
Y168813D01*
Y168900D01*
Y168987D01*
X87450D01*
Y169074D01*
Y169161D01*
Y169249D01*
X87537D01*
Y169336D01*
Y169423D01*
X87624D01*
X87624Y169510D01*
X87624Y169597D01*
X87711Y169597D01*
Y169684D01*
Y169772D01*
Y169859D01*
X87798D01*
Y169946D01*
X87885D01*
Y170033D01*
Y170120D01*
X87973Y170120D01*
Y170207D01*
Y170294D01*
X88060Y170294D01*
Y170382D01*
Y170469D01*
X88234Y170469D01*
Y170556D01*
Y170643D01*
X87624D01*
Y170556D01*
X87362D01*
Y170469D01*
X87101D01*
Y170382D01*
X86839D01*
X86839Y170294D01*
X86665Y170294D01*
Y170207D01*
X86491D01*
X86491Y170120D01*
X86317D01*
Y170033D01*
X86229D01*
X86229Y169946D01*
X86142D01*
X86142Y169859D01*
X85968D01*
Y169772D01*
X85881D01*
Y169684D01*
X85794D01*
Y169597D01*
X85706D01*
Y169510D01*
Y169423D01*
X85619D01*
X85619Y169336D01*
X85532D01*
Y169249D01*
Y169161D01*
X85445D01*
Y169074D01*
Y168987D01*
Y168900D01*
Y168813D01*
Y168726D01*
Y168638D01*
X85532D01*
Y168551D01*
Y168464D01*
X85619D01*
Y168377D01*
X85706Y168377D01*
Y168290D01*
Y168203D01*
X85794D01*
X85794Y168115D01*
X85881D01*
Y168028D01*
X85968D01*
Y167941D01*
X86055D01*
Y167854D01*
X86142D01*
X86142Y167767D01*
X86229D01*
Y167680D01*
X86317D01*
X86317Y167593D01*
X86491D01*
Y167505D01*
X86578D01*
Y167418D01*
X86665Y167418D01*
Y167331D01*
X86839D01*
Y167244D01*
X86927D01*
Y167157D01*
X87014D01*
X87014Y167069D01*
X87188D01*
Y166982D01*
X87362D01*
Y166895D01*
X87450Y166895D01*
Y166808D01*
X87624D01*
Y166721D01*
X87798D01*
Y166634D01*
X87885D01*
Y166546D01*
X88060D01*
Y166459D01*
X88234D01*
Y166372D01*
X88408D01*
Y166285D01*
X88583D01*
Y166198D01*
X88757D01*
Y166111D01*
X88931Y166111D01*
Y166024D01*
X89106D01*
Y165936D01*
X89280D01*
Y165849D01*
X89454D01*
Y165762D01*
X89629Y165762D01*
Y165675D01*
X89890D01*
Y165588D01*
X90065D01*
X90065Y165501D01*
X90239D01*
Y165413D01*
X90413D01*
Y165326D01*
X90675D01*
Y165239D01*
X90849D01*
Y165152D01*
X91023D01*
X91023Y165065D01*
X91285D01*
Y164978D01*
X91546D01*
Y164890D01*
X91721D01*
Y164803D01*
X91982D01*
Y164716D01*
X92156D01*
Y164629D01*
X92418D01*
Y164542D01*
X92679D01*
Y164455D01*
X92854D01*
X92854Y164367D01*
X93115Y164367D01*
X93115Y164280D01*
X93377D01*
Y164193D01*
X93638D01*
Y164106D01*
X93900D01*
Y164019D01*
X94074D01*
Y163932D01*
X94423D01*
X94423Y163845D01*
X94597D01*
X94597Y163757D01*
X94858D01*
Y163670D01*
X95207Y163670D01*
Y163583D01*
X95381D01*
X95381Y163496D01*
X95730D01*
X95730Y163409D01*
X95992D01*
Y163321D01*
X96253D01*
Y163234D01*
X96515D01*
Y163147D01*
X96776Y163147D01*
Y163060D01*
X97038Y163060D01*
Y162973D01*
X97299D01*
Y162886D01*
X97648D01*
Y162799D01*
X97909D01*
Y162711D01*
X98171D01*
Y162624D01*
X98519Y162624D01*
Y162537D01*
X98781D01*
Y162450D01*
X99042D01*
Y162363D01*
X99391D01*
Y162276D01*
X99652D01*
Y162188D01*
X99914D01*
X99914Y162101D01*
X100263D01*
Y162014D01*
X100524D01*
Y161927D01*
X100873D01*
Y161840D01*
X101134D01*
Y161753D01*
X101483D01*
X101483Y161665D01*
X101744D01*
Y161578D01*
X102093D01*
Y161491D01*
X102442D01*
Y161404D01*
X102703D01*
X102703Y161317D01*
X103052Y161317D01*
Y161230D01*
X103313D01*
Y161142D01*
X103662Y161143D01*
Y161055D01*
X103226D01*
Y161143D01*
X102355Y161142D01*
Y161230D01*
X101570D01*
Y161317D01*
X100786Y161317D01*
Y161404D01*
X100263D01*
Y161491D01*
X99652D01*
Y161578D01*
X99042D01*
Y161665D01*
X98606D01*
Y161753D01*
X97996D01*
Y161840D01*
X97561D01*
Y161927D01*
X97125Y161927D01*
Y162014D01*
X96602D01*
Y162101D01*
X96253D01*
Y162188D01*
X95817D01*
Y162276D01*
X95469D01*
Y162363D01*
X95120D01*
X95120Y162450D01*
X94684Y162450D01*
X94684Y162537D01*
X94423D01*
Y162624D01*
X94074D01*
Y162711D01*
X93725D01*
Y162799D01*
X93377D01*
Y162886D01*
X93028D01*
Y162973D01*
X92767D01*
X92767Y163060D01*
X92505Y163060D01*
Y163147D01*
X92244D01*
X92244Y163234D01*
X91895D01*
Y163321D01*
X91633D01*
Y163409D01*
X91372D01*
Y163496D01*
X91110Y163496D01*
Y163583D01*
X90849D01*
Y163670D01*
X90588Y163670D01*
Y163757D01*
X90326D01*
Y163845D01*
X90152Y163845D01*
Y163932D01*
X89890D01*
Y164019D01*
X89716D01*
Y164106D01*
X89454Y164106D01*
Y164193D01*
X89280D01*
Y164280D01*
X89019D01*
Y164367D01*
X88931Y164367D01*
Y164280D01*
Y164193D01*
Y164106D01*
X89019D01*
X89019Y164019D01*
X89019Y163932D01*
X89106Y163932D01*
Y163845D01*
Y163757D01*
Y163670D01*
X89193Y163670D01*
Y163583D01*
X89280D01*
Y163496D01*
Y163409D01*
X89367D01*
X89367Y163321D01*
Y163234D01*
X89454D01*
Y163147D01*
Y163060D01*
X89542D01*
Y162973D01*
X89629Y162973D01*
Y162886D01*
Y162799D01*
X89716D01*
Y162711D01*
X89803D01*
Y162624D01*
X89890Y162624D01*
Y162537D01*
X89890Y162450D01*
X89977D01*
Y162363D01*
X90065D01*
Y162276D01*
X90152D01*
Y162188D01*
X90239D01*
Y162101D01*
X90326Y162101D01*
Y162014D01*
X90413D01*
Y161927D01*
X90500D01*
Y161840D01*
X90588Y161840D01*
X90588Y161753D01*
X90675D01*
Y161665D01*
X90762D01*
Y161578D01*
X90849D01*
X90849Y161491D01*
X91023D01*
Y161404D01*
X91110D01*
Y161317D01*
X91198Y161317D01*
X91198Y161230D01*
X91372D01*
Y161142D01*
X91459Y161143D01*
Y161055D01*
X91633D01*
Y160968D01*
X91721Y160968D01*
Y160881D01*
X91895D01*
Y160794D01*
X92069D01*
Y160707D01*
X92244D01*
X92244Y160619D01*
X92418D01*
Y160532D01*
X92679Y160532D01*
Y160445D01*
X92854D01*
Y160358D01*
X93115Y160358D01*
X93115Y160271D01*
X93377D01*
Y160184D01*
X93813Y160184D01*
Y160097D01*
X94336D01*
Y160009D01*
X94597D01*
Y159922D01*
X93202D01*
Y160009D01*
X92505D01*
Y160097D01*
X92156D01*
Y160184D01*
X91808Y160184D01*
Y160271D01*
X91633D01*
Y160358D01*
X91372D01*
X91372Y160445D01*
X91110D01*
Y160532D01*
X90936Y160532D01*
X90936Y160619D01*
X90762D01*
Y160707D01*
X90588D01*
Y160794D01*
X90413Y160794D01*
Y160881D01*
X90326Y160881D01*
Y160968D01*
X90152D01*
Y161055D01*
X90065D01*
X90065Y161142D01*
X89890D01*
Y161230D01*
X89803D01*
Y161317D01*
X89629D01*
Y161404D01*
X89542D01*
Y161491D01*
X89454D01*
Y161578D01*
X89367D01*
X89367Y161665D01*
X89280Y161665D01*
Y161753D01*
X89193D01*
Y161840D01*
X89019D01*
Y161927D01*
X88931D01*
Y162014D01*
Y162101D01*
X88844D01*
Y162188D01*
X88757D01*
Y162276D01*
X88670Y162276D01*
Y162363D01*
X88583Y162363D01*
Y162450D01*
X88496D01*
Y162537D01*
X88408Y162537D01*
Y162624D01*
Y162711D01*
X88321D01*
Y162799D01*
X88234D01*
Y162886D01*
X88147Y162886D01*
Y162973D01*
Y163060D01*
X88060Y163060D01*
X88060Y163147D01*
Y163234D01*
X87973D01*
Y163321D01*
X87885D01*
X87885Y163409D01*
Y163496D01*
X87798D01*
X87798Y163583D01*
Y163670D01*
X87711D01*
Y163757D01*
Y163845D01*
X87624Y163845D01*
Y163932D01*
X87624Y164019D01*
X87537D01*
X87537Y164106D01*
Y164193D01*
Y164280D01*
X87450D01*
Y164367D01*
Y164455D01*
Y164542D01*
X87362D01*
Y164629D01*
Y164716D01*
X87275Y164716D01*
Y164803D01*
X87275Y164890D01*
X87275Y164978D01*
Y165065D01*
X87188D01*
Y165152D01*
Y165239D01*
X87014Y165239D01*
Y165326D01*
X86839D01*
X86839Y165413D01*
X86665D01*
Y165501D01*
X86491D01*
X86491Y165588D01*
X86404D01*
Y165675D01*
X86229D01*
X86229Y165762D01*
X86055D01*
Y165849D01*
X85881D01*
X85881Y165936D01*
X85794D01*
Y166024D01*
X85619D01*
Y166111D01*
X85532D01*
Y166198D01*
X85358D01*
Y166285D01*
X85183D01*
Y166372D01*
X85096Y166372D01*
Y166459D01*
X84922Y166459D01*
Y166546D01*
X84835D01*
Y166634D01*
X84748D01*
Y166721D01*
X84573D01*
Y166808D01*
X84486D01*
Y166895D01*
X84399D01*
Y166982D01*
X84312D01*
Y167069D01*
X84137D01*
Y167157D01*
X84050D01*
Y167244D01*
X83963D01*
X83963Y167331D01*
X83876D01*
Y167418D01*
X83789D01*
Y167505D01*
X83702D01*
Y167593D01*
X83614D01*
Y167680D01*
X83527Y167680D01*
Y167767D01*
Y167854D01*
X83440D01*
Y167941D01*
X83353Y167941D01*
Y168028D01*
X83266D01*
Y168115D01*
Y168203D01*
X83179D01*
X83179Y168290D01*
Y168377D01*
X83091Y168377D01*
Y168464D01*
X83091Y168551D01*
X83004D01*
Y168638D01*
Y168726D01*
X83004Y168813D01*
X83004Y168900D01*
X82917D01*
Y168987D01*
Y169074D01*
Y169161D01*
X83004D01*
Y169249D01*
Y169336D01*
Y169423D01*
X83091D01*
X83091Y169510D01*
Y169597D01*
X83179D01*
X83179Y169684D01*
X83179Y169772D01*
X83266Y169772D01*
Y169859D01*
X83353D01*
Y169946D01*
X83440D01*
X83440Y170033D01*
X83614D01*
Y170120D01*
X83702D01*
Y170207D01*
X83876D01*
Y170294D01*
X84050Y170294D01*
Y170382D01*
X84225D01*
Y170469D01*
X84399Y170469D01*
Y170556D01*
X84660D01*
Y170643D01*
X85009D01*
Y170730D01*
X85271D01*
Y170817D01*
X85706D01*
X85706Y170905D01*
X86142D01*
Y170992D01*
X86839D01*
Y171079D01*
X87973D01*
Y171166D01*
X88670D01*
Y171253D01*
X88757D01*
Y171341D01*
X88844D01*
Y171428D01*
X88931D01*
Y171515D01*
X89019D01*
X89019Y171602D01*
X89106Y171602D01*
Y171689D01*
X89193D01*
Y171776D01*
X89280D01*
Y171863D01*
X89367D01*
X89367Y171951D01*
X89454D01*
Y172038D01*
X89629Y172038D01*
Y172125D01*
X89716D01*
Y172212D01*
X89803D01*
Y172299D01*
X89977Y172299D01*
X89977Y172386D01*
X90065D01*
Y172474D01*
X90239D01*
X90239Y172561D01*
X90326D01*
Y172648D01*
X90500Y172648D01*
Y172735D01*
X90675D01*
Y172822D01*
X90849Y172822D01*
Y172909D01*
X91023D01*
Y172997D01*
X91198D01*
X91198Y173084D01*
X91459D01*
Y173171D01*
X91721Y173171D01*
Y173258D01*
X91982D01*
Y173345D01*
X92331D01*
Y173432D01*
X92854D01*
Y173520D01*
X93464D01*
Y173607D01*
X94248D01*
X94248Y173520D01*
D02*
G37*
G36*
X97996Y170033D02*
X97909D01*
Y169946D01*
X97909Y169859D01*
X97909Y169772D01*
Y169684D01*
X97822D01*
Y169597D01*
Y169510D01*
Y169423D01*
Y169336D01*
X94336D01*
Y169249D01*
X94248D01*
Y169161D01*
X94161D01*
Y169074D01*
Y168987D01*
Y168900D01*
Y168813D01*
Y168726D01*
X94248D01*
Y168638D01*
X97125D01*
X97125Y168551D01*
X97386D01*
Y168464D01*
X97561D01*
Y168377D01*
X97648D01*
Y168290D01*
X97735D01*
Y168203D01*
X97735Y168115D01*
X97822D01*
Y168028D01*
X97909D01*
Y167941D01*
Y167854D01*
Y167767D01*
Y167680D01*
Y167593D01*
X97996D01*
Y167505D01*
Y167418D01*
Y167331D01*
X97909D01*
X97909Y167244D01*
Y167157D01*
Y167069D01*
Y166982D01*
X97909Y166895D01*
X97822D01*
Y166808D01*
X97735D01*
X97735Y166721D01*
X97735Y166634D01*
X97648D01*
Y166546D01*
X97561D01*
Y166459D01*
X97386D01*
Y166372D01*
X97125Y166372D01*
X97125Y166285D01*
X93377D01*
X93377Y166372D01*
X93377Y166459D01*
Y166546D01*
Y166634D01*
X93464D01*
Y166721D01*
Y166808D01*
Y166895D01*
X93464Y166982D01*
X93551D01*
Y167069D01*
X96950Y167069D01*
Y167157D01*
X97125D01*
Y167244D01*
Y167331D01*
Y167418D01*
X97125Y167505D01*
X97125Y167593D01*
Y167680D01*
Y167767D01*
X94248D01*
Y167854D01*
X93987D01*
Y167941D01*
X93813D01*
Y168028D01*
X93725D01*
Y168115D01*
X93638D01*
Y168203D01*
X93551D01*
Y168290D01*
Y168377D01*
X93464D01*
Y168464D01*
Y168551D01*
X93377D01*
Y168638D01*
Y168726D01*
Y168813D01*
Y168900D01*
Y168987D01*
Y169074D01*
Y169161D01*
X93377Y169249D01*
X93377Y169336D01*
Y169423D01*
X93464D01*
Y169510D01*
Y169597D01*
X93551D01*
Y169684D01*
Y169772D01*
X93638D01*
Y169859D01*
X93725D01*
Y169946D01*
X93900Y169946D01*
Y170033D01*
X94074D01*
Y170120D01*
X97996D01*
Y170033D01*
D02*
G37*
G36*
X109153D02*
X109327Y170033D01*
Y169946D01*
X109415D01*
X109415Y169859D01*
X109502Y169859D01*
Y169772D01*
X109589Y169772D01*
Y169684D01*
X109676D01*
Y169597D01*
Y169510D01*
X109763D01*
Y169423D01*
Y169336D01*
Y169249D01*
Y169161D01*
X109851D01*
Y169074D01*
Y168987D01*
Y168900D01*
X109851Y168813D01*
X109851Y168726D01*
Y168638D01*
Y168551D01*
Y168464D01*
Y168377D01*
Y168290D01*
Y168203D01*
Y168115D01*
Y168028D01*
Y167941D01*
Y167854D01*
X109851Y167767D01*
X109851Y167680D01*
Y167593D01*
Y167505D01*
Y167418D01*
Y167331D01*
Y167244D01*
Y167157D01*
X109851Y167069D01*
X109851Y166982D01*
Y166895D01*
Y166808D01*
Y166721D01*
Y166634D01*
Y166546D01*
Y166459D01*
Y166372D01*
Y166285D01*
X108979Y166285D01*
X108979Y166372D01*
Y166459D01*
Y166546D01*
Y166634D01*
Y166721D01*
Y166808D01*
Y166895D01*
Y166982D01*
Y167069D01*
Y167157D01*
Y167244D01*
Y167331D01*
Y167418D01*
Y167505D01*
X106451D01*
Y167593D01*
Y167680D01*
X106538D01*
X106538Y167767D01*
X106538Y167854D01*
Y167941D01*
Y168028D01*
X106625D01*
Y168115D01*
Y168203D01*
X106713D01*
X106713Y168290D01*
X106887D01*
Y168377D01*
X108979D01*
Y168464D01*
Y168551D01*
Y168638D01*
Y168726D01*
Y168813D01*
Y168900D01*
Y168987D01*
Y169074D01*
Y169161D01*
Y169249D01*
X108892D01*
Y169336D01*
X106015D01*
Y169249D01*
X105928D01*
Y169161D01*
Y169074D01*
Y168987D01*
X105841D01*
Y168900D01*
Y168813D01*
Y168726D01*
Y168638D01*
Y168551D01*
Y168464D01*
Y168377D01*
Y168290D01*
Y168203D01*
Y168115D01*
Y168028D01*
Y167941D01*
Y167854D01*
Y167767D01*
Y167680D01*
Y167593D01*
Y167505D01*
Y167418D01*
Y167331D01*
Y167244D01*
Y167157D01*
Y167069D01*
Y166982D01*
Y166895D01*
Y166808D01*
Y166721D01*
Y166634D01*
Y166546D01*
Y166459D01*
Y166372D01*
X105928Y166372D01*
Y166285D01*
X105057D01*
X105057Y166372D01*
Y166459D01*
Y166546D01*
Y166634D01*
Y166721D01*
X105057Y166808D01*
X105057Y166895D01*
X105057Y166982D01*
X105057Y167069D01*
Y167157D01*
Y167244D01*
X105057Y167331D01*
X105057Y167418D01*
X105057Y167505D01*
X105057Y167593D01*
Y167680D01*
Y167767D01*
Y167854D01*
Y167941D01*
Y168028D01*
Y168115D01*
Y168203D01*
Y168290D01*
Y168377D01*
Y168464D01*
X105057Y168551D01*
X105057Y168638D01*
Y168726D01*
X105057Y168813D01*
X105057Y168900D01*
Y168987D01*
Y169074D01*
X105057Y169161D01*
X105057Y169249D01*
X105144D01*
Y169336D01*
Y169423D01*
Y169510D01*
X105231Y169510D01*
Y169597D01*
Y169684D01*
X105318D01*
Y169772D01*
X105405D01*
Y169859D01*
X105492Y169859D01*
Y169946D01*
X105579Y169946D01*
Y170033D01*
X105754D01*
X105754Y170120D01*
X109153D01*
Y170033D01*
D02*
G37*
G36*
X103226D02*
X103400D01*
Y169946D01*
X103488D01*
Y169859D01*
X103575D01*
Y169772D01*
X103662Y169772D01*
Y169684D01*
X103749D01*
Y169597D01*
X103836D01*
Y169510D01*
Y169423D01*
Y169336D01*
X103923D01*
Y169249D01*
Y169161D01*
Y169074D01*
Y168987D01*
X104011D01*
Y168900D01*
X103923D01*
Y168813D01*
X104011D01*
Y168726D01*
X103923D01*
Y168638D01*
Y168551D01*
Y168464D01*
Y168377D01*
X103836D01*
Y168290D01*
Y168203D01*
Y168115D01*
X103749D01*
Y168028D01*
X103662D01*
Y167941D01*
Y167854D01*
X103575D01*
Y167767D01*
X103400Y167767D01*
Y167680D01*
X103226Y167680D01*
X103226Y167593D01*
X99914D01*
Y167505D01*
Y167418D01*
Y167331D01*
X99914Y167244D01*
X99914Y167157D01*
Y167069D01*
Y166982D01*
Y166895D01*
Y166808D01*
Y166721D01*
Y166634D01*
X99914Y166546D01*
X99914Y166459D01*
Y166372D01*
Y166285D01*
X99129D01*
Y166372D01*
Y166459D01*
Y166546D01*
Y166634D01*
Y166721D01*
Y166808D01*
Y166895D01*
Y166982D01*
Y167069D01*
Y167157D01*
X99129Y167244D01*
X99129Y167331D01*
Y167418D01*
Y167505D01*
Y167593D01*
Y167680D01*
Y167767D01*
Y167854D01*
Y167941D01*
Y168028D01*
Y168115D01*
Y168203D01*
X99217D01*
Y168290D01*
X99391Y168290D01*
Y168377D01*
X102965Y168377D01*
Y168464D01*
X103052D01*
X103052Y168551D01*
X103139D01*
Y168638D01*
Y168726D01*
Y168813D01*
Y168900D01*
Y168987D01*
Y169074D01*
Y169161D01*
X103052D01*
Y169249D01*
X102965Y169249D01*
Y169336D01*
X99129D01*
Y169423D01*
Y169510D01*
Y169597D01*
Y169684D01*
Y169772D01*
Y169859D01*
Y169946D01*
Y170033D01*
Y170120D01*
X103226D01*
X103226Y170033D01*
D02*
G37*
G36*
X115167D02*
Y169946D01*
Y169859D01*
X115080D01*
Y169772D01*
Y169684D01*
Y169597D01*
Y169510D01*
Y169423D01*
Y169336D01*
X112030D01*
X112030Y169249D01*
X111855D01*
Y169161D01*
X111768D01*
X111768Y169074D01*
Y168987D01*
Y168900D01*
X111768Y168813D01*
Y168726D01*
Y168638D01*
Y168551D01*
Y168464D01*
Y168377D01*
Y168290D01*
X111768Y168203D01*
X111768Y168115D01*
Y168028D01*
Y167941D01*
Y167854D01*
Y167767D01*
X111768Y167680D01*
X111768Y167593D01*
Y167505D01*
Y167418D01*
Y167331D01*
X111768Y167244D01*
X111855D01*
Y167157D01*
X112030D01*
Y167069D01*
X115080Y167069D01*
Y166982D01*
Y166895D01*
Y166808D01*
Y166721D01*
Y166634D01*
Y166546D01*
X115167D01*
Y166459D01*
Y166372D01*
X115167Y166285D01*
X111855D01*
X111855Y166372D01*
X111594D01*
Y166459D01*
X111419D01*
Y166546D01*
X111332Y166546D01*
Y166634D01*
X111245D01*
Y166721D01*
X111158D01*
Y166808D01*
Y166895D01*
X111071Y166895D01*
Y166982D01*
Y167069D01*
X110984D01*
Y167157D01*
Y167244D01*
Y167331D01*
Y167418D01*
Y167505D01*
Y167593D01*
Y167680D01*
Y167767D01*
Y167854D01*
X110984Y167941D01*
Y168028D01*
X110984Y168115D01*
Y168203D01*
Y168290D01*
Y168377D01*
Y168464D01*
Y168551D01*
Y168638D01*
Y168726D01*
Y168813D01*
Y168900D01*
Y168987D01*
Y169074D01*
Y169161D01*
Y169249D01*
Y169336D01*
Y169423D01*
X111071Y169423D01*
Y169510D01*
Y169597D01*
X111158D01*
Y169684D01*
X111245D01*
Y169772D01*
X111332D01*
Y169859D01*
X111419D01*
Y169946D01*
X111594D01*
Y170033D01*
X111768D01*
Y170120D01*
X115167D01*
Y170033D01*
D02*
G37*
G36*
X120397D02*
Y169946D01*
Y169859D01*
X120310D01*
Y169772D01*
Y169684D01*
Y169597D01*
Y169510D01*
Y169423D01*
Y169336D01*
X117172D01*
Y169249D01*
Y169161D01*
Y169074D01*
X117172Y168987D01*
Y168900D01*
X117172Y168813D01*
Y168726D01*
Y168638D01*
X120223D01*
X120223Y168551D01*
X120223Y168464D01*
X120223Y168377D01*
Y168290D01*
X120223Y168203D01*
Y168115D01*
Y168028D01*
Y167941D01*
Y167854D01*
Y167767D01*
X117172D01*
Y167680D01*
Y167593D01*
Y167505D01*
Y167418D01*
Y167331D01*
Y167244D01*
X117172Y167157D01*
X117172Y167069D01*
X120310D01*
Y166982D01*
Y166895D01*
Y166808D01*
Y166721D01*
Y166634D01*
Y166546D01*
X120397Y166546D01*
Y166459D01*
Y166372D01*
Y166285D01*
X116300D01*
Y166372D01*
Y166459D01*
Y166546D01*
Y166634D01*
Y166721D01*
Y166808D01*
X116300Y166895D01*
X116300Y166982D01*
Y167069D01*
Y167157D01*
Y167244D01*
X116300Y167331D01*
X116300Y167418D01*
Y167505D01*
Y167593D01*
Y167680D01*
Y167767D01*
Y167854D01*
Y167941D01*
Y168028D01*
Y168115D01*
Y168203D01*
Y168290D01*
Y168377D01*
Y168464D01*
Y168551D01*
Y168638D01*
Y168726D01*
Y168813D01*
Y168900D01*
Y168987D01*
Y169074D01*
X116300Y169161D01*
X116300Y169249D01*
Y169336D01*
X116300Y169423D01*
X116300Y169510D01*
Y169597D01*
Y169684D01*
Y169772D01*
X116300Y169859D01*
X116300Y169946D01*
Y170033D01*
Y170120D01*
X120397Y170120D01*
Y170033D01*
D02*
G37*
G36*
X122402Y170033D02*
Y169946D01*
Y169859D01*
Y169772D01*
Y169684D01*
Y169597D01*
Y169510D01*
Y169423D01*
Y169336D01*
Y169249D01*
Y169161D01*
Y169074D01*
Y168987D01*
Y168900D01*
X122402Y168813D01*
X122402Y168726D01*
Y168638D01*
X122402Y168551D01*
X122402Y168464D01*
Y168377D01*
Y168290D01*
Y168203D01*
Y168115D01*
Y168028D01*
Y167941D01*
Y167854D01*
Y167767D01*
Y167680D01*
Y167593D01*
X122402Y167505D01*
X122402Y167418D01*
Y167331D01*
Y167244D01*
X122489D01*
Y167157D01*
X122663D01*
Y167069D01*
X125278D01*
Y166982D01*
X125278Y166895D01*
X125278Y166808D01*
Y166721D01*
Y166634D01*
X125365D01*
Y166546D01*
Y166459D01*
Y166372D01*
Y166285D01*
X122315D01*
X122315Y166372D01*
X122053D01*
Y166459D01*
X121966D01*
X121966Y166546D01*
X121879Y166546D01*
Y166634D01*
X121792D01*
Y166721D01*
X121705D01*
Y166808D01*
X121705Y166895D01*
X121617D01*
Y166982D01*
X121617Y167069D01*
X121617Y167157D01*
X121530D01*
X121530Y167244D01*
X121530Y167331D01*
Y167418D01*
Y167505D01*
Y167593D01*
X121530Y167680D01*
X121530Y167767D01*
Y167854D01*
Y167941D01*
Y168028D01*
Y168115D01*
Y168203D01*
Y168290D01*
Y168377D01*
Y168464D01*
Y168551D01*
Y168638D01*
Y168726D01*
Y168813D01*
Y168900D01*
Y168987D01*
X121530Y169074D01*
X121530Y169161D01*
Y169249D01*
Y169336D01*
Y169423D01*
X121617D01*
Y169510D01*
X121617Y169597D01*
X121617Y169684D01*
X121705D01*
Y169772D01*
Y169859D01*
X121792D01*
Y169946D01*
X121966D01*
X121966Y170033D01*
X122053D01*
Y170120D01*
X122402Y170120D01*
Y170033D01*
D02*
G37*
G36*
X130595Y170033D02*
X130770D01*
Y169946D01*
X130857D01*
Y169859D01*
X130944D01*
Y169772D01*
X131031D01*
Y169684D01*
X131118D01*
Y169597D01*
Y169510D01*
X131205D01*
X131205Y169423D01*
Y169336D01*
X131205Y169249D01*
X131292D01*
X131292Y169161D01*
X131292Y169074D01*
Y168987D01*
Y168900D01*
Y168813D01*
Y168726D01*
Y168638D01*
Y168551D01*
Y168464D01*
X131292Y168377D01*
Y168290D01*
X131292Y168203D01*
Y168115D01*
Y168028D01*
Y167941D01*
Y167854D01*
Y167767D01*
Y167680D01*
X131292Y167593D01*
X131292Y167505D01*
Y167418D01*
Y167331D01*
Y167244D01*
Y167157D01*
Y167069D01*
Y166982D01*
Y166895D01*
Y166808D01*
Y166721D01*
Y166634D01*
Y166546D01*
X131292Y166459D01*
X131292Y166372D01*
Y166285D01*
X130421D01*
Y166372D01*
Y166459D01*
Y166546D01*
Y166634D01*
Y166721D01*
Y166808D01*
Y166895D01*
Y166982D01*
Y167069D01*
Y167157D01*
Y167244D01*
Y167331D01*
Y167418D01*
Y167505D01*
X127893D01*
Y167593D01*
Y167680D01*
Y167767D01*
X127980D01*
X127980Y167854D01*
X127980Y167941D01*
Y168028D01*
X128068D01*
Y168115D01*
Y168203D01*
X128155D01*
Y168290D01*
X128329D01*
Y168377D01*
X130421D01*
Y168464D01*
Y168551D01*
Y168638D01*
Y168726D01*
Y168813D01*
Y168900D01*
Y168987D01*
Y169074D01*
Y169161D01*
Y169249D01*
X130334D01*
Y169336D01*
X127457D01*
Y169249D01*
X127370D01*
Y169161D01*
Y169074D01*
Y168987D01*
Y168900D01*
X127370Y168813D01*
X127370Y168726D01*
Y168638D01*
Y168551D01*
Y168464D01*
Y168377D01*
Y168290D01*
Y168203D01*
Y168115D01*
Y168028D01*
Y167941D01*
Y167854D01*
Y167767D01*
Y167680D01*
Y167593D01*
Y167505D01*
Y167418D01*
Y167331D01*
Y167244D01*
Y167157D01*
Y167069D01*
X127370Y166982D01*
X127370Y166895D01*
Y166808D01*
Y166721D01*
Y166634D01*
Y166546D01*
Y166459D01*
Y166372D01*
X127370Y166285D01*
X126498D01*
Y166372D01*
Y166459D01*
Y166546D01*
X126498Y166634D01*
X126498Y166721D01*
Y166808D01*
Y166895D01*
Y166982D01*
Y167069D01*
Y167157D01*
Y167244D01*
Y167331D01*
Y167418D01*
Y167505D01*
Y167593D01*
Y167680D01*
Y167767D01*
X126498Y167854D01*
X126498Y167941D01*
Y168028D01*
Y168115D01*
Y168203D01*
Y168290D01*
Y168377D01*
X126498Y168464D01*
X126498Y168551D01*
Y168638D01*
Y168726D01*
Y168813D01*
Y168900D01*
Y168987D01*
Y169074D01*
Y169161D01*
Y169249D01*
X126586Y169249D01*
Y169336D01*
Y169423D01*
Y169510D01*
X126673D01*
Y169597D01*
Y169684D01*
X126760D01*
Y169772D01*
X126847D01*
X126847Y169859D01*
X126934D01*
X126934Y169946D01*
X127022D01*
Y170033D01*
X127196D01*
Y170120D01*
X130595D01*
Y170033D01*
D02*
G37*
G36*
X136522D02*
X136697D01*
Y169946D01*
X136871Y169946D01*
Y169859D01*
X136958D01*
Y169772D01*
Y169684D01*
X137045D01*
Y169597D01*
X137132Y169597D01*
Y169510D01*
Y169423D01*
Y169336D01*
Y169249D01*
Y169161D01*
Y169074D01*
Y168987D01*
Y168900D01*
X137132Y168813D01*
X137132Y168726D01*
Y168638D01*
X137045D01*
Y168551D01*
Y168464D01*
X136958D01*
X136958Y168377D01*
X136784D01*
Y168290D01*
X136784Y168203D01*
Y168115D01*
X136958Y168115D01*
Y168028D01*
X137045D01*
Y167941D01*
X137132D01*
Y167854D01*
Y167767D01*
X137220D01*
Y167680D01*
Y167593D01*
Y167505D01*
X137307D01*
Y167418D01*
Y167331D01*
Y167244D01*
Y167157D01*
X137220D01*
Y167069D01*
Y166982D01*
Y166895D01*
X137132D01*
X137132Y166808D01*
X137132Y166721D01*
X137045D01*
Y166634D01*
X136958D01*
X136958Y166546D01*
X136871D01*
Y166459D01*
X136697D01*
Y166372D01*
X136435D01*
Y166285D01*
X132426Y166285D01*
Y166372D01*
Y166459D01*
Y166546D01*
Y166634D01*
Y166721D01*
Y166808D01*
Y166895D01*
Y166982D01*
Y167069D01*
Y167157D01*
Y167244D01*
Y167331D01*
Y167418D01*
Y167505D01*
Y167593D01*
Y167680D01*
Y167767D01*
Y167854D01*
Y167941D01*
Y168028D01*
Y168115D01*
Y168203D01*
Y168290D01*
Y168377D01*
Y168464D01*
Y168551D01*
Y168638D01*
Y168726D01*
Y168813D01*
Y168900D01*
Y168987D01*
Y169074D01*
Y169161D01*
Y169249D01*
Y169336D01*
Y169423D01*
Y169510D01*
X132513D01*
X132513Y169597D01*
X132513Y169684D01*
X132600D01*
Y169772D01*
X132687D01*
Y169859D01*
X132774D01*
Y169946D01*
X132861Y169946D01*
Y170033D01*
X133123D01*
Y170120D01*
X136522D01*
Y170033D01*
D02*
G37*
G36*
X220272Y154660D02*
X218303D01*
X218307Y154657D01*
X218321Y154639D01*
X218343Y154617D01*
X218369Y154580D01*
X218402Y154540D01*
X218438Y154490D01*
X218478Y154431D01*
X218518Y154366D01*
Y154362D01*
X218522Y154358D01*
X218536Y154337D01*
X218554Y154300D01*
X218576Y154256D01*
X218602Y154206D01*
X218627Y154151D01*
X218653Y154096D01*
X218674Y154042D01*
X218376D01*
Y154045D01*
X218369Y154053D01*
X218365Y154067D01*
X218354Y154085D01*
X218343Y154107D01*
X218329Y154133D01*
X218292Y154195D01*
X218252Y154267D01*
X218201Y154340D01*
X218143Y154417D01*
X218081Y154493D01*
X218077Y154497D01*
X218074Y154500D01*
X218063Y154511D01*
X218052Y154526D01*
X218016Y154559D01*
X217972Y154602D01*
X217921Y154646D01*
X217863Y154693D01*
X217805Y154733D01*
X217743Y154770D01*
Y154970D01*
X220272D01*
Y154660D01*
D02*
G37*
G36*
X32124Y196755D02*
X32131Y196747D01*
X32135Y196733D01*
X32146Y196715D01*
X32157Y196693D01*
X32171Y196667D01*
X32208Y196605D01*
X32248Y196533D01*
X32299Y196460D01*
X32357Y196383D01*
X32419Y196307D01*
X32423Y196303D01*
X32426Y196300D01*
X32437Y196289D01*
X32448Y196274D01*
X32484Y196241D01*
X32528Y196198D01*
X32579Y196154D01*
X32637Y196107D01*
X32695Y196067D01*
X32757Y196030D01*
Y195830D01*
X30228D01*
Y196140D01*
X32197D01*
X32193Y196143D01*
X32179Y196161D01*
X32157Y196183D01*
X32131Y196220D01*
X32098Y196260D01*
X32062Y196310D01*
X32022Y196369D01*
X31982Y196434D01*
Y196438D01*
X31978Y196442D01*
X31964Y196463D01*
X31946Y196500D01*
X31924Y196544D01*
X31898Y196595D01*
X31873Y196649D01*
X31847Y196704D01*
X31826Y196758D01*
X32124D01*
Y196755D01*
D02*
G37*
%LPC*%
G36*
X136261Y169336D02*
X133210D01*
Y169249D01*
Y169161D01*
Y169074D01*
Y168987D01*
Y168900D01*
Y168813D01*
Y168726D01*
Y168638D01*
X136261D01*
Y168726D01*
X136348D01*
Y168813D01*
Y168900D01*
Y168987D01*
Y169074D01*
Y169161D01*
Y169249D01*
X136261D01*
Y169336D01*
D02*
G37*
G36*
X136348Y167767D02*
X133210D01*
Y167680D01*
Y167593D01*
Y167505D01*
Y167418D01*
Y167331D01*
Y167244D01*
Y167157D01*
Y167069D01*
X136261D01*
Y167157D01*
X136348D01*
Y167244D01*
X136435D01*
Y167331D01*
Y167418D01*
Y167505D01*
Y167593D01*
Y167680D01*
X136348D01*
Y167767D01*
D02*
G37*
%LPD*%
D10*
X7303Y85300D02*
G03*
X7303Y85300I-1803J0D01*
G01*
X6100Y88800D02*
X25800D01*
X26100Y89100D01*
Y140800D01*
X6100Y88800D02*
Y140800D01*
X26100D01*
X211098Y191001D02*
Y193001D01*
Y192001D01*
X206100D01*
X205100Y193001D01*
Y194000D01*
X206100Y195000D01*
X211098Y189002D02*
X205100D01*
X208099D01*
Y185003D01*
X211098D01*
X205100D01*
Y180005D02*
Y182004D01*
X206100Y183004D01*
X208099D01*
X209099Y182004D01*
Y180005D01*
X208099Y179005D01*
X207099D01*
Y183004D01*
X209099Y176006D02*
Y174007D01*
X208099Y173007D01*
X205100D01*
Y176006D01*
X206100Y177006D01*
X207099Y176006D01*
Y173007D01*
X210098Y170008D02*
X209099D01*
Y171008D01*
Y169008D01*
Y170008D01*
X206100D01*
X205100Y169008D01*
Y163010D02*
Y165010D01*
X206100Y166009D01*
X208099D01*
X209099Y165010D01*
Y163010D01*
X208099Y162011D01*
X207099D01*
Y166009D01*
X209099Y160011D02*
X205100D01*
X207099D01*
X208099Y159012D01*
X209099Y158012D01*
Y157012D01*
X98900Y264498D02*
X102899D01*
X100899D01*
Y258500D01*
X104898D02*
Y264498D01*
X107897D01*
X108897Y263498D01*
Y261499D01*
X107897Y260499D01*
X104898D01*
X110896Y257500D02*
X114895D01*
X120893Y263498D02*
X119893Y264498D01*
X117894D01*
X116894Y263498D01*
Y259500D01*
X117894Y258500D01*
X119893D01*
X120893Y259500D01*
X125891Y264498D02*
X123892D01*
X122892Y263498D01*
Y259500D01*
X123892Y258500D01*
X125891D01*
X126891Y259500D01*
Y263498D01*
X125891Y264498D01*
X128890Y258500D02*
Y264498D01*
X130890Y262499D01*
X132889Y264498D01*
Y258500D01*
X134888D02*
Y264498D01*
X136888Y262499D01*
X138887Y264498D01*
Y258500D01*
X143885Y264498D02*
X141886D01*
X140886Y263498D01*
Y259500D01*
X141886Y258500D01*
X143885D01*
X144885Y259500D01*
Y263498D01*
X143885Y264498D01*
X146885Y258500D02*
Y264498D01*
X148884Y262499D01*
X150883Y264498D01*
Y258500D01*
X177600Y118598D02*
Y114599D01*
X179599Y112600D01*
X181599Y114599D01*
Y118598D01*
X183598D02*
Y112600D01*
X186597D01*
X187597Y113600D01*
Y114599D01*
X186597Y115599D01*
X183598D01*
X186597D01*
X187597Y116599D01*
Y117598D01*
X186597Y118598D01*
X183598D01*
X189596Y112600D02*
Y116599D01*
X191595Y118598D01*
X193595Y116599D01*
Y112600D01*
Y115599D01*
X189596D01*
X195594Y118598D02*
X199593D01*
X197593D01*
Y112600D01*
X201592Y115599D02*
X205591D01*
X35800Y75598D02*
Y71599D01*
X37799Y69600D01*
X39799Y71599D01*
Y75598D01*
X41798D02*
Y69600D01*
X44797D01*
X45797Y70600D01*
Y71599D01*
X44797Y72599D01*
X41798D01*
X44797D01*
X45797Y73599D01*
Y74598D01*
X44797Y75598D01*
X41798D01*
X47796Y69600D02*
Y73599D01*
X49795Y75598D01*
X51795Y73599D01*
Y69600D01*
Y72599D01*
X47796D01*
X53794Y75598D02*
X57793D01*
X55793D01*
Y69600D01*
X59792Y72599D02*
X63791D01*
X61792Y74598D02*
Y70600D01*
X46298Y185101D02*
Y187101D01*
Y186101D01*
X41300D01*
X40300Y187101D01*
Y188100D01*
X41300Y189100D01*
X39300Y183102D02*
Y179103D01*
X40300Y177104D02*
X46298D01*
Y174105D01*
X45298Y173105D01*
X43299D01*
X42299Y174105D01*
Y177104D01*
Y175104D02*
X40300Y173105D01*
X46298Y171106D02*
Y167107D01*
Y169106D01*
X40300D01*
X46298Y165108D02*
X40300D01*
Y162109D01*
X41300Y161109D01*
X45298D01*
X46298Y162109D01*
Y165108D01*
X30102Y93799D02*
Y91799D01*
Y92799D01*
X35100D01*
X36100Y91799D01*
Y90800D01*
X35100Y89800D01*
X37100Y95798D02*
Y99797D01*
X30102Y105795D02*
Y101796D01*
X36100D01*
Y105795D01*
X33101Y101796D02*
Y103796D01*
X36100Y107794D02*
X30102D01*
Y110793D01*
X31102Y111793D01*
X33101D01*
X34101Y110793D01*
Y107794D01*
X31102Y117791D02*
X30102Y116791D01*
Y114792D01*
X31102Y113792D01*
X32101D01*
X33101Y114792D01*
Y116791D01*
X34101Y117791D01*
X35100D01*
X36100Y116791D01*
Y114792D01*
X35100Y113792D01*
X25000Y83300D02*
Y85299D01*
Y84300D01*
X19002D01*
X20002Y83300D01*
D11*
X154910Y184727D02*
X158616D01*
X154864Y184680D02*
X158710D01*
X154817Y184633D02*
X158710D01*
X154817Y184586D02*
X158710Y184586D01*
X154817Y184539D02*
X158756D01*
X154770Y184492D02*
X158756Y184492D01*
X154770Y184445D02*
X158756D01*
X154770Y184398D02*
X158756D01*
X154770Y184352D02*
X158756D01*
X154770Y184305D02*
X158803D01*
X154723Y184258D02*
X158803D01*
X154723Y184211D02*
X158803D01*
X154723Y184164D02*
X158803D01*
X154723Y184117D02*
X158803Y184117D01*
X154723Y184070D02*
X158803D01*
X154723Y184023D02*
X158850D01*
X154676Y183976D02*
X158850D01*
X154676Y183929D02*
X158850Y183930D01*
X154676Y183882D02*
X158850D01*
X154676Y183836D02*
X158850D01*
X154676Y183789D02*
X158897Y183789D01*
X154629Y183742D02*
X158897D01*
X154629Y183695D02*
X158897D01*
X154629Y183648D02*
X158897D01*
X154629Y183601D02*
X158897D01*
X154629Y183554D02*
X158944D01*
X154629Y183507D02*
X158944D01*
X154582Y183460D02*
X158944D01*
X154582Y183414D02*
X158944D01*
X154582Y183367D02*
X158944D01*
X154582Y183320D02*
X158944Y183320D01*
X154582Y183273D02*
X158991D01*
X154535Y183226D02*
X158991D01*
X154535Y183179D02*
X158991D01*
X154535Y183132D02*
X158991Y183132D01*
X154535Y183085D02*
X158991D01*
X154535Y183038D02*
X159038D01*
X154488Y182991D02*
X159038Y182991D01*
X154488Y182945D02*
X159038D01*
X154488Y182898D02*
X159038D01*
X154488Y182851D02*
X159038D01*
X154488Y182804D02*
X159085Y182804D01*
X154488Y182757D02*
X159085Y182757D01*
X154441Y182710D02*
X159085D01*
X154441Y182663D02*
X159085D01*
X154441Y182616D02*
X159085D01*
X154441Y182569D02*
X159085Y182569D01*
X154441Y182522D02*
X159132Y182522D01*
X154394Y182475D02*
X159132Y182475D01*
X154394Y182429D02*
X159132D01*
X154394Y182382D02*
X159132D01*
X154394Y182335D02*
X159132Y182335D01*
X154394Y182288D02*
X159179Y182288D01*
X154348Y182241D02*
X159179D01*
X154348Y182194D02*
X159179Y182194D01*
X154348Y182147D02*
X159179D01*
X154348Y182100D02*
X159179Y182100D01*
X154348Y182053D02*
X159179D01*
X154348Y182006D02*
X159225D01*
X148203Y181959D02*
X148438D01*
X154301Y181959D02*
X159225D01*
X165088Y181959D02*
X165323D01*
X148156Y181913D02*
X148485D01*
X154301D02*
X159225D01*
X165041D02*
X165370D01*
X148109Y181866D02*
X148579D01*
X154301D02*
X159225D01*
X164948D02*
X165417D01*
X148063Y181819D02*
X148625D01*
X154301D02*
X159225D01*
X164901D02*
X165464D01*
X148016Y181772D02*
X148719Y181772D01*
X154301Y181772D02*
X159272D01*
X164807Y181772D02*
X165510Y181772D01*
X147969Y181725D02*
X148766Y181725D01*
X154254D02*
X159272D01*
X164760D02*
X165557D01*
X147922Y181678D02*
X148860D01*
X154254D02*
X159272D01*
X164713D02*
X165604D01*
X147875Y181631D02*
X148907D01*
X154254D02*
X159272D01*
X164619D02*
X165651D01*
X147828Y181584D02*
X149001D01*
X154254Y181584D02*
X159272Y181584D01*
X164573D02*
X165698D01*
X147781Y181537D02*
X149048D01*
X154254D02*
X159319D01*
X164479D02*
X165745D01*
X147734Y181491D02*
X149141D01*
X154254D02*
X159319D01*
X164432D02*
X165792D01*
X147687Y181444D02*
X149188D01*
X154207D02*
X159319D01*
X164338D02*
X165839D01*
X147641Y181397D02*
X149235D01*
X154207D02*
X159319D01*
X164291D02*
X165886D01*
X147594Y181350D02*
X149329D01*
X154207D02*
X159319D01*
X164197D02*
X165933Y181350D01*
X147547Y181303D02*
X149376D01*
X154207Y181303D02*
X159319Y181303D01*
X164150Y181303D02*
X165980D01*
X147500Y181256D02*
X149470D01*
X154207D02*
X159366D01*
X164057D02*
X166026D01*
X147453Y181209D02*
X149517D01*
X154160D02*
X159366D01*
X164010D02*
X166073D01*
X147406Y181162D02*
X149610D01*
X154160D02*
X159366D01*
X163916D02*
X166120D01*
X147359Y181115D02*
X149657Y181115D01*
X154160D02*
X159366D01*
X163869D02*
X166167D01*
X147312Y181068D02*
X149751D01*
X154160D02*
X159366D01*
X163822D02*
X166214D01*
X147265Y181021D02*
X149798D01*
X154113D02*
X159413D01*
X163728D02*
X166261D01*
X147218Y180975D02*
X149892D01*
X154113D02*
X159413D01*
X163681D02*
X166308D01*
X147171Y180928D02*
X149939D01*
X154066D02*
X159460D01*
X163587Y180928D02*
X166355D01*
X147125Y180881D02*
X150032D01*
X153972Y180881D02*
X159554Y180881D01*
X163541D02*
X166402D01*
X147078Y180834D02*
X150079D01*
X153879D02*
X159648D01*
X163447D02*
X166449D01*
X147031Y180787D02*
X150126D01*
X153785D02*
X159788D01*
X163400D02*
X166496D01*
X146984Y180740D02*
X150220D01*
X153644D02*
X159882D01*
X163306D02*
X166542Y180740D01*
X146937Y180693D02*
X150267D01*
X153550Y180693D02*
X160023Y180693D01*
X163259D02*
X166589D01*
X146890Y180646D02*
X150361D01*
X153410D02*
X160117D01*
X163165D02*
X166636D01*
X146843Y180599D02*
X150408Y180599D01*
X153316D02*
X160211Y180599D01*
X163119D02*
X166683D01*
X146796Y180552D02*
X150502D01*
X153175D02*
X160351Y180552D01*
X163072D02*
X166730Y180552D01*
X146749Y180506D02*
X150549D01*
X153081D02*
X160445D01*
X162978D02*
X166777Y180506D01*
X146702Y180459D02*
X150642D01*
X152940Y180459D02*
X160586Y180459D01*
X162931D02*
X166824D01*
X146655Y180412D02*
X150689D01*
X152847D02*
X160679D01*
X162837D02*
X166871D01*
X146609Y180365D02*
X150783D01*
X152753D02*
X160820D01*
X162790Y180365D02*
X166918Y180365D01*
X146562Y180318D02*
X150830D01*
X152612D02*
X160914D01*
X162696D02*
X166964D01*
X146515Y180271D02*
X150877D01*
X152518D02*
X161055D01*
X162650D02*
X167011D01*
X146468Y180224D02*
X150971D01*
X152378Y180224D02*
X161149Y180224D01*
X162556D02*
X167058D01*
X146421Y180177D02*
X151017Y180177D01*
X152284Y180177D02*
X161242D01*
X162509D02*
X167105D01*
X146374Y180130D02*
X151111D01*
X152143D02*
X161383D01*
X162415D02*
X167152D01*
X146327Y180083D02*
X151158D01*
X152049D02*
X161477D01*
X162368D02*
X167199D01*
X146280Y180036D02*
X151252D01*
X151909D02*
X161618D01*
X162321D02*
X167246D01*
X146233Y179990D02*
X151299Y179990D01*
X151815Y179990D02*
X161711D01*
X162227D02*
X167293D01*
X146186Y179943D02*
X151393Y179943D01*
X151721Y179943D02*
X161852D01*
X162180D02*
X167340Y179943D01*
X146140Y179896D02*
X151487D01*
X151580D02*
X161946D01*
X162087D02*
X167387D01*
X146093Y179849D02*
X167434D01*
X146046Y179802D02*
X167481D01*
X145999Y179755D02*
X167527D01*
X145952Y179708D02*
X167574D01*
X145905Y179661D02*
X167621D01*
X145858Y179614D02*
X167668D01*
X145811Y179568D02*
X167715D01*
X145764Y179521D02*
X167762D01*
X145718Y179474D02*
X167809D01*
X145670Y179427D02*
X167856D01*
X145670Y179380D02*
X167903D01*
X145624Y179333D02*
X167903Y179333D01*
X145624Y179286D02*
X167903D01*
X145624Y179239D02*
X167903D01*
X145670Y179192D02*
X167903D01*
X145670Y179145D02*
X167856D01*
X145718Y179098D02*
X167809D01*
X145764Y179051D02*
X167809D01*
X145764Y179005D02*
X167762D01*
X145811Y178958D02*
X167715D01*
X145858Y178911D02*
X167715D01*
X145858Y178864D02*
X167668D01*
X145905Y178817D02*
X167621D01*
X145952Y178770D02*
X167621D01*
X145952Y178723D02*
X167574D01*
X145999Y178676D02*
X167527D01*
X146046Y178629D02*
X167481D01*
X146046Y178583D02*
X167481D01*
X146093Y178536D02*
X167434D01*
X146140Y178489D02*
X167387D01*
X146186Y178442D02*
X167387D01*
X146186Y178395D02*
X167340D01*
X146233Y178348D02*
X167293Y178348D01*
X146280Y178301D02*
X167293D01*
X146280Y178254D02*
X167246D01*
X146327Y178207D02*
X167199D01*
X146374Y178160D02*
X167199Y178160D01*
X146374Y178113D02*
X167152D01*
X146421Y178067D02*
X167105D01*
X146468Y178020D02*
X167105D01*
X146468Y177973D02*
X167058D01*
X146515Y177926D02*
X167011D01*
X146562Y177879D02*
X166964D01*
X146562Y177832D02*
X166964D01*
X146609Y177785D02*
X166918D01*
X146655Y177738D02*
X166871D01*
X146702Y177691D02*
X166871D01*
X146702Y177644D02*
X166824D01*
X146749Y177597D02*
X166777D01*
X146796Y177551D02*
X166777Y177551D01*
X146796Y177504D02*
X166730D01*
X146843Y177457D02*
X166683D01*
X146890Y177410D02*
X166683D01*
X146890Y177363D02*
X166636Y177363D01*
X146937Y177316D02*
X166589D01*
X146984Y177269D02*
X166589D01*
X146984Y177222D02*
X166542D01*
X147031Y177175D02*
X166496D01*
X147078Y177129D02*
X166449Y177129D01*
X147078Y177082D02*
X166449D01*
X147125Y177035D02*
X166402D01*
X147171Y176988D02*
X166355D01*
X147218Y176941D02*
X166355Y176941D01*
X147218Y176894D02*
X166308D01*
X147265Y176847D02*
X166261Y176847D01*
X147312Y176800D02*
X166261D01*
X147312Y176753D02*
X166214D01*
X147359Y176706D02*
X166167D01*
X147406Y176660D02*
X166167D01*
X147406Y176613D02*
X166120D01*
X147453Y176566D02*
X166073D01*
X147500Y176519D02*
X166073D01*
X147500Y176472D02*
X166026D01*
X147547Y176425D02*
X165980Y176425D01*
X147594Y176378D02*
X165980D01*
X147594Y176331D02*
X165933D01*
X147641Y176284D02*
X165886D01*
X147687Y176237D02*
X165886D01*
X147687Y176190D02*
X165839Y176190D01*
X147687Y176144D02*
X165839D01*
X147687Y176097D02*
X165839D01*
X147687Y176050D02*
X165886D01*
X147641Y176003D02*
X165886D01*
X147641Y175956D02*
X165886Y175956D01*
X147594Y175909D02*
X165933D01*
X147594Y175862D02*
X165933D01*
X147594Y175815D02*
X165980Y175815D01*
X147547Y175768D02*
X165980D01*
X147547Y175721D02*
X166026D01*
X147500Y175674D02*
X166026D01*
X147500Y175628D02*
X166026D01*
X147453Y175581D02*
X166073D01*
X147453Y175534D02*
X166073Y175534D01*
X147453Y175487D02*
X166120D01*
X147406Y175440D02*
X166120D01*
X147406Y175393D02*
X166167D01*
X147359Y175346D02*
X166167Y175346D01*
X147359Y175299D02*
X166167D01*
X147312Y175252D02*
X166214D01*
X147312Y175206D02*
X166214D01*
X147312Y175159D02*
X166261D01*
X147265Y175112D02*
X166261D01*
X147265Y175065D02*
X166308D01*
X147218Y175018D02*
X166308D01*
X147218Y174971D02*
X166308Y174971D01*
X147171Y174924D02*
X166355Y174924D01*
X147171Y174877D02*
X166355D01*
X147171Y174830D02*
X166402D01*
X147125Y174783D02*
X166402D01*
X147125Y174736D02*
X166449D01*
X147078Y174689D02*
X166449Y174689D01*
X147078Y174643D02*
X156224D01*
X157302D02*
X166449D01*
X147031Y174596D02*
X155942D01*
X157584D02*
X166496D01*
X147031Y174549D02*
X155755D01*
X157772D02*
X166496D01*
X147031Y174502D02*
X155614D01*
X157912D02*
X166542D01*
X146984Y174455D02*
X155473D01*
X158053D02*
X166542D01*
X146984Y174408D02*
X155333D01*
X158194D02*
X166589D01*
X146937Y174361D02*
X155239Y174361D01*
X158288Y174361D02*
X166589D01*
X146937Y174314D02*
X155145D01*
X158381D02*
X166589D01*
X146890Y174267D02*
X155051D01*
X158475Y174267D02*
X166636Y174267D01*
X146890Y174221D02*
X154957D01*
X158569D02*
X166636D01*
X146890Y174174D02*
X154864D01*
X158663D02*
X166683D01*
X146843Y174127D02*
X154770D01*
X158756D02*
X166683D01*
X146843Y174080D02*
X154723D01*
X158803D02*
X166730D01*
X146796Y174033D02*
X154629D01*
X158897D02*
X166730D01*
X146796Y173986D02*
X154582D01*
X158944Y173986D02*
X166730Y173986D01*
X146749Y173939D02*
X154488D01*
X159038D02*
X166777D01*
X146749Y173892D02*
X154441D01*
X159085D02*
X166777D01*
X146749Y173845D02*
X154394D01*
X159179D02*
X166824D01*
X146702Y173798D02*
X154348D01*
X159225D02*
X166824D01*
X146702Y173751D02*
X154254Y173751D01*
X159272Y173751D02*
X166871D01*
X146655Y173705D02*
X154207D01*
X159319D02*
X166871D01*
X146655Y173658D02*
X154160D01*
X159366D02*
X166871D01*
X146609Y173611D02*
X154113D01*
X159413D02*
X166918D01*
X146609Y173564D02*
X154066Y173564D01*
X159460D02*
X166918D01*
X146562Y173517D02*
X154019D01*
X159507D02*
X166964D01*
X146515Y173470D02*
X153972D01*
X159554D02*
X167058D01*
X146327Y173423D02*
X153926D01*
X159601D02*
X167199D01*
X146093Y173376D02*
X153879Y173376D01*
X159648D02*
X167481D01*
X145811Y173329D02*
X153832Y173329D01*
X159695Y173329D02*
X167715D01*
X145577Y173282D02*
X153785D01*
X159741D02*
X167949D01*
X145295Y173235D02*
X153785D01*
X159788D02*
X168231D01*
X145061Y173189D02*
X153738D01*
X159788D02*
X168465Y173189D01*
X144826Y173142D02*
X153691D01*
X159835D02*
X168747D01*
X144545Y173095D02*
X153644D01*
X159882D02*
X168981D01*
X144310Y173048D02*
X153644D01*
X159929D02*
X169216D01*
X144076Y173001D02*
X153597D01*
X159929D02*
X169497Y173001D01*
X143794Y172954D02*
X153550Y172954D01*
X159976Y172954D02*
X169732Y172954D01*
X143560Y172907D02*
X153550D01*
X160023D02*
X169966D01*
X143279Y172860D02*
X153503D01*
X160023D02*
X170248D01*
X143044Y172813D02*
X153456D01*
X160070D02*
X170482D01*
X142950Y172766D02*
X153456D01*
X160070D02*
X170623D01*
X142903Y172720D02*
X153410D01*
X160117D02*
X170623D01*
X142856Y172673D02*
X153410D01*
X160164D02*
X170670D01*
X142856Y172626D02*
X153363D01*
X160164D02*
X170670D01*
X142856Y172579D02*
X153363D01*
X160211D02*
X170670Y172579D01*
X142856Y172532D02*
X153316D01*
X160211D02*
X170670D01*
X142856Y172485D02*
X153316D01*
X160257D02*
X170670D01*
X142856Y172438D02*
X153269D01*
X160257D02*
X170670D01*
X142856Y172391D02*
X153269D01*
X160304D02*
X170670D01*
X142856Y172344D02*
X153222D01*
X160304D02*
X170670Y172344D01*
X142856Y172298D02*
X153222D01*
X160304D02*
X170670D01*
X142856Y172251D02*
X153175D01*
X160351D02*
X170670D01*
X142856Y172204D02*
X153175D01*
X160351Y172204D02*
X170670Y172204D01*
X142856Y172157D02*
X153175D01*
X160398D02*
X170670D01*
X142856Y172110D02*
X153128D01*
X160398D02*
X170670D01*
X142856Y172063D02*
X153128D01*
X160398D02*
X170670D01*
X142856Y172016D02*
X153128D01*
X160445D02*
X170670D01*
X142856Y171969D02*
X153081D01*
X160445Y171969D02*
X170670Y171969D01*
X142856Y171922D02*
X153081D01*
X160445D02*
X170670D01*
X142856Y171875D02*
X153081D01*
X160492D02*
X170670D01*
X142856Y171828D02*
X153034D01*
X160492D02*
X170670D01*
X142856Y171782D02*
X153034D01*
X160492D02*
X170670D01*
X142856Y171735D02*
X153034D01*
X160492D02*
X170670D01*
X142856Y171688D02*
X153034D01*
X160539D02*
X170670D01*
X142856Y171641D02*
X152987D01*
X160539D02*
X170670D01*
X142856Y171594D02*
X152987D01*
X160539D02*
X170670Y171594D01*
X142856Y171547D02*
X152987D01*
X160539D02*
X170670D01*
X142856Y171500D02*
X152987D01*
X160539D02*
X170670D01*
X142856Y171453D02*
X152987D01*
X160586D02*
X170670D01*
X142856Y171406D02*
X152940D01*
X160586D02*
X170670D01*
X142856Y171359D02*
X152940D01*
X160586D02*
X170670D01*
X142856Y171312D02*
X152940D01*
X160586D02*
X170670D01*
X142856Y171266D02*
X152940D01*
X160586D02*
X170670D01*
X142856Y171219D02*
X152940Y171219D01*
X160586Y171219D02*
X170670Y171219D01*
X142856Y171172D02*
X152940D01*
X160586D02*
X170670D01*
X142856Y171125D02*
X152940D01*
X160633D02*
X170670D01*
X142856Y171078D02*
X152940D01*
X160633Y171078D02*
X170670Y171078D01*
X142856Y171031D02*
X152940D01*
X160633D02*
X170670D01*
X142856Y170984D02*
X152940Y170984D01*
X160633D02*
X170670D01*
X142856Y170937D02*
X152894D01*
X160633D02*
X170670D01*
X142856Y170890D02*
X152894D01*
X160633D02*
X170670D01*
X142856Y170844D02*
X152894D01*
X160633Y170844D02*
X170670Y170844D01*
X142856Y170797D02*
X152894D01*
X160633D02*
X170670D01*
X142856Y170750D02*
X152894D01*
X160633D02*
X170670D01*
X142856Y170703D02*
X152894D01*
X160633Y170703D02*
X170670Y170703D01*
X142856Y170656D02*
X152940D01*
X160633D02*
X170670D01*
X142856Y170609D02*
X152940D01*
X160633Y170609D02*
X170670Y170609D01*
X142856Y170562D02*
X152940D01*
X160633D02*
X170670D01*
X142856Y170515D02*
X152940D01*
X160633D02*
X170670D01*
X142856Y170468D02*
X152940D01*
X160586D02*
X170670D01*
X142856Y170421D02*
X152940D01*
X160586D02*
X170670D01*
X142856Y170375D02*
X152940Y170375D01*
X160586D02*
X170670D01*
X142856Y170328D02*
X152940D01*
X160586D02*
X170670D01*
X142856Y170281D02*
X152940D01*
X160586D02*
X170670D01*
X142856Y170234D02*
X152940Y170234D01*
X160586Y170234D02*
X170670Y170234D01*
X142856Y170187D02*
X152987D01*
X160586D02*
X170670D01*
X142856Y170140D02*
X152987Y170140D01*
X160539Y170140D02*
X170670Y170140D01*
X142856Y170093D02*
X152987D01*
X160539D02*
X170670D01*
X142856Y170046D02*
X152987D01*
X160539D02*
X170670D01*
X142856Y169999D02*
X152987Y169999D01*
X160539Y169999D02*
X170670Y169999D01*
X142856Y169952D02*
X153034D01*
X160539D02*
X170670D01*
X142856Y169905D02*
X153034D01*
X160492D02*
X170670D01*
X142856Y169859D02*
X153034D01*
X160492Y169859D02*
X170670Y169859D01*
X142856Y169812D02*
X153034D01*
X160492D02*
X170670D01*
X142856Y169765D02*
X153081Y169765D01*
X160492D02*
X170670D01*
X142856Y169718D02*
X153081D01*
X160445D02*
X170670D01*
X142856Y169671D02*
X153081D01*
X160445D02*
X170670D01*
X142856Y169624D02*
X153128D01*
X160445D02*
X170670D01*
X142856Y169577D02*
X153128Y169577D01*
X160398Y169577D02*
X170670D01*
X142856Y169530D02*
X153128D01*
X160398D02*
X170670D01*
X142856Y169483D02*
X153175D01*
X160398D02*
X170670D01*
X142856Y169436D02*
X153175D01*
X160351D02*
X170670D01*
X142856Y169389D02*
X153222Y169389D01*
X160351D02*
X170670D01*
X142856Y169343D02*
X153222D01*
X160304D02*
X170670D01*
X142856Y169296D02*
X153222D01*
X160304D02*
X170670D01*
X142856Y169249D02*
X153269Y169249D01*
X160257D02*
X170670Y169249D01*
X142856Y169202D02*
X153269D01*
X160257D02*
X170670D01*
X142856Y169155D02*
X153316Y169155D01*
X160211D02*
X170670D01*
X142856Y169108D02*
X153316D01*
X160211D02*
X170670D01*
X142856Y169061D02*
X153363D01*
X160164D02*
X170670D01*
X142856Y169014D02*
X153363D01*
X160164D02*
X170670D01*
X142903Y168967D02*
X153410D01*
X160117Y168967D02*
X170623Y168967D01*
X142950Y168921D02*
X153410D01*
X160117D02*
X170576D01*
X143091Y168874D02*
X153456D01*
X160070D02*
X170435D01*
X143372Y168827D02*
X153503D01*
X160070Y168827D02*
X170201Y168827D01*
X143607Y168780D02*
X153503D01*
X160023D02*
X169919D01*
X143841Y168733D02*
X153550D01*
X159976D02*
X169685D01*
X144123Y168686D02*
X153597D01*
X159976D02*
X169404D01*
X144357Y168639D02*
X153597D01*
X159929D02*
X169169D01*
X144639Y168592D02*
X153644Y168592D01*
X159882D02*
X168935Y168592D01*
X144873Y168545D02*
X153691D01*
X159882D02*
X168653D01*
X145108Y168498D02*
X153691D01*
X159835D02*
X168419D01*
X145389Y168451D02*
X153738D01*
X159788Y168451D02*
X168184Y168451D01*
X145624Y168404D02*
X153785Y168404D01*
X159741D02*
X167903D01*
X145858Y168358D02*
X153832D01*
X159695D02*
X167668D01*
X146140Y168311D02*
X153879Y168311D01*
X159695D02*
X167387D01*
X146374Y168264D02*
X153926D01*
X159648Y168264D02*
X167152Y168264D01*
X146468Y168217D02*
X153926D01*
X159601D02*
X167105D01*
X146515Y168170D02*
X153972D01*
X159554Y168170D02*
X167058Y168170D01*
X146515Y168123D02*
X154019D01*
X159507Y168123D02*
X167011Y168123D01*
X146562Y168076D02*
X154066D01*
X159460D02*
X167011D01*
X146562Y168029D02*
X154113D01*
X159413D02*
X166964Y168029D01*
X146609Y167982D02*
X154207D01*
X159366D02*
X166964D01*
X146609Y167936D02*
X154254D01*
X159319Y167936D02*
X166918Y167936D01*
X146609Y167889D02*
X154301D01*
X159225D02*
X166918D01*
X146655Y167842D02*
X154348Y167842D01*
X159179Y167842D02*
X166918Y167842D01*
X146655Y167795D02*
X154394D01*
X159132D02*
X166871D01*
X146702Y167748D02*
X154488D01*
X159085D02*
X166871D01*
X146702Y167701D02*
X154535D01*
X158991D02*
X166824D01*
X146702Y167654D02*
X154582D01*
X158944D02*
X166824D01*
X146749Y167607D02*
X154676D01*
X158850D02*
X166824D01*
X146749Y167560D02*
X154723D01*
X158803D02*
X166777D01*
X146796Y167513D02*
X154770D01*
X158756D02*
X166777D01*
X146796Y167466D02*
X154864D01*
X158663D02*
X166730D01*
X146796Y167420D02*
X154910D01*
X158616D02*
X166730D01*
X146843Y167373D02*
X155004D01*
X158522D02*
X166730D01*
X146843Y167326D02*
X155098D01*
X158475D02*
X166683D01*
X146890Y167279D02*
X155145D01*
X158381D02*
X166683D01*
X146890Y167232D02*
X155239Y167232D01*
X158334Y167232D02*
X166636D01*
X146890Y167185D02*
X155239Y167185D01*
X158288D02*
X166636D01*
X146937Y167138D02*
X155286D01*
X158288D02*
X166636D01*
X146937Y167091D02*
X155286D01*
X158241D02*
X166589D01*
X146984Y167044D02*
X155286Y167044D01*
X158241Y167044D02*
X166589D01*
X146984Y166997D02*
X155286D01*
X158288D02*
X166542Y166997D01*
X146984Y166951D02*
X155239D01*
X158288D02*
X166542D01*
X147031Y166904D02*
X155239D01*
X158288D02*
X166542D01*
X147031Y166857D02*
X155192D01*
X158334D02*
X166496D01*
X147078Y166810D02*
X155192D01*
X158334D02*
X166496D01*
X147078Y166763D02*
X155192Y166763D01*
X158381D02*
X166449D01*
X147078Y166716D02*
X155145D01*
X158381D02*
X166449D01*
X147125Y166669D02*
X155145D01*
X158428D02*
X166449D01*
X147125Y166622D02*
X155098D01*
X158428D02*
X166402D01*
X147171Y166575D02*
X155098D01*
X158428D02*
X166402D01*
X147171Y166528D02*
X155051D01*
X158475D02*
X166355D01*
X147171Y166481D02*
X155051D01*
X158475D02*
X166355D01*
X147218Y166435D02*
X155051D01*
X158522D02*
X166355D01*
X147218Y166388D02*
X155004D01*
X158522D02*
X166308D01*
X147265Y166341D02*
X155004D01*
X158522D02*
X166308D01*
X147265Y166294D02*
X154957D01*
X158569D02*
X166261D01*
X147265Y166247D02*
X154957D01*
X158569D02*
X166261D01*
X147312Y166200D02*
X154957D01*
X158616D02*
X166261D01*
X147312Y166153D02*
X154910D01*
X158616D02*
X166214D01*
X147359Y166106D02*
X154910D01*
X158663D02*
X166214D01*
X147359Y166059D02*
X154864D01*
X158663D02*
X166167D01*
X147359Y166013D02*
X154864D01*
X158663D02*
X166167D01*
X147406Y165966D02*
X154817D01*
X158710D02*
X166167D01*
X147406Y165919D02*
X154817D01*
X158710D02*
X166120D01*
X147453Y165872D02*
X154817D01*
X158756D02*
X166120D01*
X147453Y165825D02*
X154770Y165825D01*
X158756D02*
X166073D01*
X147453Y165778D02*
X154770D01*
X158756D02*
X166073D01*
X147500Y165731D02*
X154723D01*
X158803D02*
X166073D01*
X147500Y165684D02*
X154723Y165684D01*
X158803Y165684D02*
X166026D01*
X147547Y165637D02*
X154723D01*
X158850Y165637D02*
X166026Y165637D01*
X147547Y165590D02*
X154676D01*
X158850D02*
X165980D01*
X147547Y165543D02*
X154676D01*
X158850D02*
X165980D01*
X147594Y165497D02*
X154629D01*
X158897D02*
X165980D01*
X147594Y165450D02*
X154629D01*
X158897D02*
X165933D01*
X147594Y165403D02*
X154629D01*
X158944D02*
X165933D01*
X147594Y165356D02*
X154582D01*
X158944D02*
X165933D01*
X147594Y165309D02*
X154582D01*
X158991D02*
X165980D01*
X147547Y165262D02*
X154535D01*
X158991D02*
X165980D01*
X147500Y165215D02*
X154535Y165215D01*
X158991D02*
X166026Y165215D01*
X147500Y165168D02*
X154488D01*
X159038D02*
X166073D01*
X147453Y165121D02*
X154488D01*
X159038D02*
X166073D01*
X147406Y165074D02*
X154488D01*
X159085D02*
X166120D01*
X147359Y165027D02*
X154441Y165027D01*
X159085D02*
X166167Y165027D01*
X147359Y164981D02*
X154441D01*
X159085D02*
X166167D01*
X147312Y164934D02*
X154394D01*
X159132D02*
X166214D01*
X147265Y164887D02*
X154394D01*
X159132D02*
X166261D01*
X147265Y164840D02*
X154394Y164840D01*
X159179Y164840D02*
X166308Y164840D01*
X147218Y164793D02*
X154348D01*
X159179Y164793D02*
X166308D01*
X147171Y164746D02*
X154348D01*
X159225D02*
X166355D01*
X147171Y164699D02*
X154301D01*
X159225D02*
X166402Y164699D01*
X147125Y164652D02*
X154301D01*
X159225D02*
X166402D01*
X147078Y164605D02*
X154254D01*
X159272D02*
X166449D01*
X147078Y164558D02*
X154254D01*
X159272D02*
X166496D01*
X147031Y164512D02*
X154254D01*
X159319D02*
X166496D01*
X146984Y164465D02*
X154207Y164465D01*
X159319D02*
X166542Y164465D01*
X146984Y164418D02*
X154207Y164418D01*
X159319D02*
X166589D01*
X146937Y164371D02*
X154160D01*
X159366D02*
X166589D01*
X146890Y164324D02*
X154160D01*
X159366D02*
X166636D01*
X146843Y164277D02*
X154160D01*
X159413D02*
X166683D01*
X146843Y164230D02*
X154113D01*
X159413D02*
X166683Y164230D01*
X146796Y164183D02*
X154113D01*
X159413D02*
X166730D01*
X146749Y164136D02*
X154066D01*
X159460D02*
X166777D01*
X146749Y164090D02*
X154066Y164090D01*
X159460D02*
X166824D01*
X146702Y164043D02*
X154066D01*
X159507Y164042D02*
X166824Y164043D01*
X146655Y163996D02*
X154019D01*
X159507D02*
X166871D01*
X146655Y163949D02*
X154019D01*
X159554D02*
X166918D01*
X146609Y163902D02*
X153972D01*
X159554D02*
X166918D01*
X146562Y163855D02*
X153972D01*
X159554D02*
X166964D01*
X146562Y163808D02*
X153926D01*
X159601D02*
X167011D01*
X146515Y163761D02*
X153926D01*
X159601D02*
X167011D01*
X146468Y163714D02*
X153926D01*
X159648Y163714D02*
X167058Y163714D01*
X146468Y163667D02*
X153879Y163667D01*
X159648D02*
X167105D01*
X146421Y163620D02*
X153879D01*
X159648D02*
X167105D01*
X146374Y163574D02*
X153832D01*
X159695D02*
X167152D01*
X146374Y163527D02*
X153832D01*
X159695D02*
X167199D01*
X146327Y163480D02*
X153832Y163480D01*
X159741Y163480D02*
X167199D01*
X146280Y163433D02*
X153785D01*
X159741D02*
X167246D01*
X146233Y163386D02*
X153785Y163386D01*
X159788Y163386D02*
X167293Y163386D01*
X146233Y163339D02*
X153738D01*
X159788D02*
X167293D01*
X146186Y163292D02*
X153738D01*
X159788Y163292D02*
X167340Y163292D01*
X146140Y163245D02*
X153691D01*
X159835D02*
X167387D01*
X146140Y163198D02*
X153691D01*
X159835D02*
X167434D01*
X146093Y163151D02*
X153691D01*
X159882D02*
X167434D01*
X146046Y163104D02*
X153644Y163104D01*
X159882Y163104D02*
X167481D01*
X146046Y163058D02*
X153644D01*
X159882Y163058D02*
X167527Y163058D01*
X145999Y163011D02*
X153597D01*
X159929Y163011D02*
X167527D01*
X145952Y162964D02*
X153597D01*
X159929D02*
X167574D01*
X145952Y162917D02*
X153597D01*
X159976D02*
X167621D01*
X145905Y162870D02*
X153550Y162870D01*
X159976Y162870D02*
X167621Y162870D01*
X145858Y162823D02*
X153550D01*
X159976D02*
X167668D01*
X145858Y162776D02*
X153503D01*
X160023D02*
X167715D01*
X145811Y162729D02*
X153503D01*
X160023D02*
X167715D01*
X145764Y162682D02*
X153503D01*
X160070Y162682D02*
X167762D01*
X145718Y162636D02*
X153456D01*
X160070D02*
X167809D01*
X145718Y162589D02*
X153456D01*
X160117Y162589D02*
X167809Y162589D01*
X145670Y162542D02*
X153410D01*
X160117D02*
X167856D01*
X145670Y162495D02*
X153410D01*
X160117D02*
X167903D01*
X145624Y162448D02*
X153363D01*
X160164Y162448D02*
X167903Y162448D01*
X145624Y162401D02*
X153363D01*
X160164D02*
X167903D01*
X145624Y162354D02*
X153363D01*
X160211D02*
X167903D01*
X145670Y162307D02*
X153316D01*
X160211D02*
X167903D01*
X145670Y162260D02*
X153316Y162260D01*
X160211Y162260D02*
X167856D01*
X145718Y162213D02*
X153269D01*
X160257D02*
X167809D01*
X145764Y162166D02*
X153269D01*
X160257D02*
X167762D01*
X145811Y162119D02*
X153269D01*
X160304D02*
X167715D01*
X145858Y162073D02*
X153222D01*
X160304D02*
X167668D01*
X145905Y162026D02*
X153222D01*
X160351D02*
X167621Y162026D01*
X145952Y161979D02*
X153175D01*
X160351D02*
X167574D01*
X145999Y161932D02*
X153175D01*
X160351D02*
X167527D01*
X146046Y161885D02*
X153128D01*
X160398D02*
X167481D01*
X146093Y161838D02*
X153128Y161838D01*
X160398Y161838D02*
X167434Y161838D01*
X146140Y161791D02*
X153128D01*
X160445D02*
X167387D01*
X146186Y161744D02*
X153081Y161744D01*
X160445D02*
X167340D01*
X146233Y161697D02*
X153081D01*
X160445D02*
X167293D01*
X146280Y161651D02*
X153034D01*
X160492D02*
X167246D01*
X146327Y161604D02*
X151158D01*
X151393D02*
X153034D01*
X160492D02*
X162134D01*
X162368D02*
X167199D01*
X146374Y161557D02*
X151064D01*
X151487D02*
X153034D01*
X160539D02*
X162040D01*
X162462D02*
X167152D01*
X146421Y161510D02*
X151017D01*
X151580D02*
X152987D01*
X160539D02*
X161993D01*
X162509D02*
X167105D01*
X146468Y161463D02*
X150971D01*
X151674Y161463D02*
X152987D01*
X160539D02*
X161899D01*
X162602D02*
X167058D01*
X146515Y161416D02*
X150877D01*
X151721D02*
X152940D01*
X160586Y161416D02*
X161805Y161416D01*
X162650D02*
X167011D01*
X146562Y161369D02*
X150830D01*
X151815D02*
X152940D01*
X160586D02*
X161711D01*
X162743D02*
X166964D01*
X146609Y161322D02*
X150736D01*
X151909D02*
X152940D01*
X160633D02*
X161618D01*
X162790D02*
X166918D01*
X146655Y161275D02*
X150689D01*
X152003Y161275D02*
X152894Y161275D01*
X160633D02*
X161524D01*
X162884D02*
X166871D01*
X146702Y161228D02*
X150595Y161228D01*
X152096Y161228D02*
X152894D01*
X160679D02*
X161430D01*
X162931D02*
X166824D01*
X146749Y161181D02*
X150549D01*
X152190D02*
X152847D01*
X160679D02*
X161336D01*
X162978D02*
X166777D01*
X146796Y161135D02*
X150455D01*
X152284D02*
X152847D01*
X160679D02*
X161289D01*
X163072D02*
X166730D01*
X146843Y161088D02*
X150408Y161088D01*
X152378D02*
X152800Y161088D01*
X160726D02*
X161196D01*
X163119D02*
X166683D01*
X146890Y161041D02*
X150314D01*
X152425D02*
X152800D01*
X160726D02*
X161102D01*
X163212D02*
X166636D01*
X146937Y160994D02*
X150267D01*
X152518D02*
X152753D01*
X160773D02*
X161008D01*
X163259D02*
X166589D01*
X146984Y160947D02*
X150220D01*
X163353D02*
X166542D01*
X147031Y160900D02*
X150126Y160900D01*
X163400Y160900D02*
X166496D01*
X147078Y160853D02*
X150079D01*
X163494Y160853D02*
X166449Y160853D01*
X147125Y160806D02*
X149986D01*
X163541D02*
X166402D01*
X147171Y160759D02*
X149939D01*
X163634D02*
X166355D01*
X147218Y160712D02*
X149845D01*
X163681D02*
X166308D01*
X147265Y160666D02*
X149798D01*
X163728D02*
X166261D01*
X147312Y160619D02*
X149704D01*
X163822D02*
X166214D01*
X147359Y160572D02*
X149657D01*
X163869D02*
X166167D01*
X147406Y160525D02*
X149564D01*
X163963D02*
X166120D01*
X147453Y160478D02*
X149517D01*
X164010D02*
X166073D01*
X147500Y160431D02*
X149470D01*
X164103D02*
X166026D01*
X147547Y160384D02*
X149376D01*
X164150D02*
X165980D01*
X147594Y160337D02*
X149329D01*
X164244D02*
X165933D01*
X147641Y160290D02*
X149235D01*
X164291D02*
X165886D01*
X147687Y160243D02*
X149188D01*
X164385D02*
X165839D01*
X147734Y160196D02*
X149094D01*
X164432D02*
X165792D01*
X147781Y160150D02*
X149048D01*
X164479D02*
X165745D01*
X147828Y160103D02*
X148954D01*
X164573D02*
X165698D01*
X147875Y160056D02*
X148907D01*
X164619Y160056D02*
X165651Y160056D01*
X147922Y160009D02*
X148813D01*
X164713D02*
X165604Y160009D01*
X147969Y159962D02*
X148766D01*
X164760D02*
X165557D01*
X148016Y159915D02*
X148672Y159915D01*
X164854D02*
X165510Y159915D01*
X148063Y159868D02*
X148625D01*
X164901D02*
X165464D01*
X148109Y159821D02*
X148579D01*
X164995D02*
X165417D01*
X148156Y159774D02*
X148485D01*
X165041D02*
X165370D01*
X148250Y159728D02*
X148391Y159728D01*
X165135D02*
X165276D01*
D12*
X222044Y151483D02*
X223028D01*
X222044Y199317D02*
X223028D01*
X222044Y151483D02*
Y154731D01*
X238186Y199262D02*
X239367D01*
X238186D02*
Y205223D01*
Y145577D02*
Y151538D01*
X222044Y196069D02*
Y199317D01*
X238186Y151538D02*
X239367D01*
Y199262D01*
X27472Y199317D02*
X28456D01*
X27472Y151483D02*
X28456D01*
Y196069D02*
Y199317D01*
X11133Y151538D02*
X12314D01*
Y145577D02*
Y151538D01*
Y199262D02*
Y205223D01*
X28456Y151483D02*
Y154731D01*
X11133Y199262D02*
X12314D01*
X11133Y151538D02*
Y199262D01*
D13*
X228000Y252000D02*
Y259900D01*
X224000Y256000D02*
X231900D01*
X23500Y23900D02*
Y31800D01*
X19500Y27900D02*
X27400D01*
X226900Y23600D02*
Y32300D01*
X23000Y252100D02*
Y259500D01*
D14*
X90025Y180807D02*
Y177608D01*
Y180807D02*
X91396D01*
X91853Y180655D01*
X92006Y180502D01*
X92158Y180198D01*
Y179893D01*
X92006Y179588D01*
X91853Y179436D01*
X91396Y179283D01*
X90025D02*
X91396D01*
X91853Y179131D01*
X92006Y178979D01*
X92158Y178674D01*
Y178217D01*
X92006Y177912D01*
X91853Y177760D01*
X91396Y177608D01*
X90025D01*
X95312D02*
X94093Y180807D01*
X92874Y177608D01*
X93331Y178674D02*
X94855D01*
X97125Y180807D02*
Y177608D01*
X96058Y180807D02*
X98191D01*
X99638D02*
Y177608D01*
X98572Y180807D02*
X100705D01*
X103066D02*
X101086D01*
Y177608D01*
X103066D01*
X101086Y179283D02*
X102305D01*
X103600Y180807D02*
Y177608D01*
Y180807D02*
X104971D01*
X105428Y180655D01*
X105580Y180502D01*
X105732Y180198D01*
Y179893D01*
X105580Y179588D01*
X105428Y179436D01*
X104971Y179283D01*
X103600D01*
X104666D02*
X105732Y177608D01*
X106448Y180807D02*
X107667Y179283D01*
Y177608D01*
X108886Y180807D02*
X107667Y179283D01*
X111811Y180807D02*
Y177608D01*
Y180807D02*
X113182D01*
X113639Y180655D01*
X113792Y180502D01*
X113944Y180198D01*
Y179893D01*
X113792Y179588D01*
X113639Y179436D01*
X113182Y179283D01*
X111811D02*
X113182D01*
X113639Y179131D01*
X113792Y178979D01*
X113944Y178674D01*
Y178217D01*
X113792Y177912D01*
X113639Y177760D01*
X113182Y177608D01*
X111811D01*
X115574Y180807D02*
X115269Y180655D01*
X114965Y180350D01*
X114812Y180045D01*
X114660Y179588D01*
Y178826D01*
X114812Y178369D01*
X114965Y178065D01*
X115269Y177760D01*
X115574Y177608D01*
X116183D01*
X116488Y177760D01*
X116793Y178065D01*
X116945Y178369D01*
X117098Y178826D01*
Y179588D01*
X116945Y180045D01*
X116793Y180350D01*
X116488Y180655D01*
X116183Y180807D01*
X115574D01*
X120282Y177608D02*
X119063Y180807D01*
X117844Y177608D01*
X118301Y178674D02*
X119825D01*
X121028Y180807D02*
Y177608D01*
Y180807D02*
X122399D01*
X122856Y180655D01*
X123009Y180502D01*
X123161Y180198D01*
Y179893D01*
X123009Y179588D01*
X122856Y179436D01*
X122399Y179283D01*
X121028D01*
X122095D02*
X123161Y177608D01*
X123877Y180807D02*
Y177608D01*
Y180807D02*
X124943D01*
X125401Y180655D01*
X125705Y180350D01*
X125858Y180045D01*
X126010Y179588D01*
Y178826D01*
X125858Y178369D01*
X125705Y178065D01*
X125401Y177760D01*
X124943Y177608D01*
X123877D01*
X129240Y179740D02*
X130154Y177608D01*
X131068Y179740D02*
X130154Y177608D01*
X132500Y180807D02*
X132043Y180655D01*
X131738Y180198D01*
X131586Y179436D01*
Y178979D01*
X131738Y178217D01*
X132043Y177760D01*
X132500Y177608D01*
X132805D01*
X133262Y177760D01*
X133566Y178217D01*
X133719Y178979D01*
Y179436D01*
X133566Y180198D01*
X133262Y180655D01*
X132805Y180807D01*
X132500D01*
X134587Y177912D02*
X134435Y177760D01*
X134587Y177608D01*
X134739Y177760D01*
X134587Y177912D01*
X135593Y180045D02*
Y180198D01*
X135745Y180502D01*
X135897Y180655D01*
X136202Y180807D01*
X136811D01*
X137116Y180655D01*
X137268Y180502D01*
X137421Y180198D01*
Y179893D01*
X137268Y179588D01*
X136964Y179131D01*
X135440Y177608D01*
X137573D01*
M02*
